<mxfile host="app.diagrams.net" agent="Mozilla/5.0 (Windows NT 10.0; Win64; x64) AppleWebKit/537.36 (KHTML, like Gecko) Chrome/137.0.0.0 Safari/537.36" version="27.2.0" pages="5">
  <diagram name="Page-1" id="7dEtHC3LILFMniGYfAyt">
    <mxGraphModel dx="2085" dy="1100" grid="1" gridSize="10" guides="1" tooltips="1" connect="1" arrows="1" fold="1" page="1" pageScale="1" pageWidth="827" pageHeight="1169" math="0" shadow="0">
      <root>
        <mxCell id="0" />
        <mxCell id="1" parent="0" />
        <UserObject label="" plantUmlData="{&#xa;  &quot;data&quot;: &quot;@startuml\nskinparam monochrome true\nskinparam defaultFontName Arial\nskinparam ArrowColor black\nskinparam shadowing false\n\nskinparam ActivityBackgroundColor white\nskinparam ActivityBorderColor black\nskinparam ActivityBorderThickness 1\n\nskinparam DiamondBackgroundColor white\nskinparam DiamondBorderColor black\nskinparam DiamondBorderThickness 1\n\nstart\n\n:Login Admin;\n\n:Akses Menu User;\n\nif (Valid?) then (ya)\n  split\n    :Tambah User;\n    :Set Role;\n    :Generate Password;\n  split again\n    :Edit User;\n    :Update Akses;\n  split again\n    :Nonaktifkan User;\n    :Arsip Data;\n  end split\nelse (tidak)\n  :Tampilkan Error;\nendif\n\n:Kirim Kredensial;\n\nstop\n@enduml&quot;,&#xa;  &quot;format&quot;: &quot;svg&quot;&#xa;}" id="Jx06i-ONw801CrRce3De-17">
          <mxCell style="shape=image;noLabel=1;verticalAlign=top;aspect=fixed;imageAspect=0;image=data:image/svg+xml,PHN2ZyB4bWxucz0iaHR0cDovL3d3dy53My5vcmcvMjAwMC9zdmciIHhtbG5zOnhsaW5rPSJodHRwOi8vd3d3LnczLm9yZy8xOTk5L3hsaW5rIiBjb250ZW50U3R5bGVUeXBlPSJ0ZXh0L2NzcyIgZGF0YS1kaWFncmFtLXR5cGU9IkFDVElWSVRZIiBoZWlnaHQ9IjUzN3B4IiBwcmVzZXJ2ZUFzcGVjdFJhdGlvPSJub25lIiBzdHlsZT0id2lkdGg6NDk4cHg7aGVpZ2h0OjUzN3B4O2JhY2tncm91bmQ6I0ZGRkZGRjsiIHZlcnNpb249IjEuMSIgdmlld0JveD0iMCAwIDQ5OCA1MzciIHdpZHRoPSI0OThweCIgem9vbUFuZFBhbj0ibWFnbmlmeSI+PGRlZnMvPjxnPjxlbGxpcHNlIGN4PSIzMDkiIGN5PSIyMCIgZmlsbD0iIzIyMjIyMiIgcng9IjEwIiByeT0iMTAiIHN0eWxlPSJzdHJva2U6IzIyMjIyMjtzdHJva2Utd2lkdGg6MTsiLz48cmVjdCBmaWxsPSIjRkZGRkZGIiBoZWlnaHQ9IjMyLjg0MzgiIHJ4PSIxMi41IiByeT0iMTIuNSIgc3R5bGU9InN0cm9rZTojMDAwMDAwO3N0cm9rZS13aWR0aDoxOyIgd2lkdGg9Ijg2IiB4PSIyNjYiIHk9IjUwIi8+PHRleHQgZmlsbD0iIzAwMDAwMCIgZm9udC1mYW1pbHk9IkFyaWFsIiBmb250LXNpemU9IjEyIiBsZW5ndGhBZGp1c3Q9InNwYWNpbmciIHRleHRMZW5ndGg9IjY2IiB4PSIyNzYiIHk9IjcxLjM0MzgiPkxvZ2luIEFkbWluPC90ZXh0PjxyZWN0IGZpbGw9IiNGRkZGRkYiIGhlaWdodD0iMzIuODQzOCIgcng9IjEyLjUiIHJ5PSIxMi41IiBzdHlsZT0ic3Ryb2tlOiMwMDAwMDA7c3Ryb2tlLXdpZHRoOjE7IiB3aWR0aD0iMTEwIiB4PSIyNTQiIHk9IjEwMi44NDM4Ii8+PHRleHQgZmlsbD0iIzAwMDAwMCIgZm9udC1mYW1pbHk9IkFyaWFsIiBmb250LXNpemU9IjEyIiBsZW5ndGhBZGp1c3Q9InNwYWNpbmciIHRleHRMZW5ndGg9IjkwIiB4PSIyNjQiIHk9IjEyNC4xODc1Ij5Ba3NlcyBNZW51IFVzZXI8L3RleHQ+PHBvbHlnb24gZmlsbD0iI0ZGRkZGRiIgcG9pbnRzPSIyOTIuNSwxNTUuNjg3NSwzMjUuNSwxNTUuNjg3NSwzMzcuNSwxNjcuNjg3NSwzMjUuNSwxNzkuNjg3NSwyOTIuNSwxNzkuNjg3NSwyODAuNSwxNjcuNjg3NSwyOTIuNSwxNTUuNjg3NSIgc3R5bGU9InN0cm9rZTojMDAwMDAwO3N0cm9rZS13aWR0aDoxOyIvPjx0ZXh0IGZpbGw9IiMwMDAwMDAiIGZvbnQtZmFtaWx5PSJBcmlhbCIgZm9udC1zaXplPSIxMSIgbGVuZ3RoQWRqdXN0PSJzcGFjaW5nIiB0ZXh0TGVuZ3RoPSIzMyIgeD0iMjkyLjUiIHk9IjE3Mi4xOTkyIj5WYWxpZD88L3RleHQ+PHRleHQgZmlsbD0iIzAwMDAwMCIgZm9udC1mYW1pbHk9IkFyaWFsIiBmb250LXNpemU9IjExIiBsZW5ndGhBZGp1c3Q9InNwYWNpbmciIHRleHRMZW5ndGg9IjExIiB4PSIyNjkuNSIgeT0iMTY2LjMxMjUiPnlhPC90ZXh0Pjx0ZXh0IGZpbGw9IiMwMDAwMDAiIGZvbnQtZmFtaWx5PSJBcmlhbCIgZm9udC1zaXplPSIxMSIgbGVuZ3RoQWRqdXN0PSJzcGFjaW5nIiB0ZXh0TGVuZ3RoPSIyNy41IiB4PSIzMzcuNSIgeT0iMTY2LjMxMjUiPnRpZGFrPC90ZXh0PjxsaW5lIHN0eWxlPSJzdHJva2U6IzAwMDAwMDtzdHJva2Utd2lkdGg6MS41OyIgeDE9IjcyIiB4Mj0iMzAzIiB5MT0iMTg5LjY4NzUiIHkyPSIxODkuNjg3NSIvPjxyZWN0IGZpbGw9IiNGRkZGRkYiIGhlaWdodD0iMzIuODQzOCIgcng9IjEyLjUiIHJ5PSIxMi41IiBzdHlsZT0ic3Ryb2tlOiMwMDAwMDA7c3Ryb2tlLXdpZHRoOjE7IiB3aWR0aD0iODYiIHg9IjI5IiB5PSIyMTEuMTg3NSIvPjx0ZXh0IGZpbGw9IiMwMDAwMDAiIGZvbnQtZmFtaWx5PSJBcmlhbCIgZm9udC1zaXplPSIxMiIgbGVuZ3RoQWRqdXN0PSJzcGFjaW5nIiB0ZXh0TGVuZ3RoPSI2NiIgeD0iMzkiIHk9IjIzMi41MzEzIj5UYW1iYWggVXNlcjwvdGV4dD48cmVjdCBmaWxsPSIjRkZGRkZGIiBoZWlnaHQ9IjMyLjg0MzgiIHJ4PSIxMi41IiByeT0iMTIuNSIgc3R5bGU9InN0cm9rZTojMDAwMDAwO3N0cm9rZS13aWR0aDoxOyIgd2lkdGg9IjY4IiB4PSIzOCIgeT0iMjc5LjAzMTMiLz48dGV4dCBmaWxsPSIjMDAwMDAwIiBmb250LWZhbWlseT0iQXJpYWwiIGZvbnQtc2l6ZT0iMTIiIGxlbmd0aEFkanVzdD0ic3BhY2luZyIgdGV4dExlbmd0aD0iNDgiIHg9IjQ4IiB5PSIzMDAuMzc1Ij5TZXQgUm9sZTwvdGV4dD48cmVjdCBmaWxsPSIjRkZGRkZGIiBoZWlnaHQ9IjMyLjg0MzgiIHJ4PSIxMi41IiByeT0iMTIuNSIgc3R5bGU9InN0cm9rZTojMDAwMDAwO3N0cm9rZS13aWR0aDoxOyIgd2lkdGg9IjEyMiIgeD0iMTEiIHk9IjM0Ni44NzUiLz48dGV4dCBmaWxsPSIjMDAwMDAwIiBmb250LWZhbWlseT0iQXJpYWwiIGZvbnQtc2l6ZT0iMTIiIGxlbmd0aEFkanVzdD0ic3BhY2luZyIgdGV4dExlbmd0aD0iMTAyIiB4PSIyMSIgeT0iMzY4LjIxODgiPkdlbmVyYXRlIFBhc3N3b3JkPC90ZXh0PjxyZWN0IGZpbGw9IiNGRkZGRkYiIGhlaWdodD0iMzIuODQzOCIgcng9IjEyLjUiIHJ5PSIxMi41IiBzdHlsZT0ic3Ryb2tlOiMwMDAwMDA7c3Ryb2tlLXdpZHRoOjE7IiB3aWR0aD0iNzQiIHg9IjE1MiIgeT0iMjQ1LjEwOTQiLz48dGV4dCBmaWxsPSIjMDAwMDAwIiBmb250LWZhbWlseT0iQXJpYWwiIGZvbnQtc2l6ZT0iMTIiIGxlbmd0aEFkanVzdD0ic3BhY2luZyIgdGV4dExlbmd0aD0iNTQiIHg9IjE2MiIgeT0iMjY2LjQ1MzEiPkVkaXQgVXNlcjwvdGV4dD48cmVjdCBmaWxsPSIjRkZGRkZGIiBoZWlnaHQ9IjMyLjg0MzgiIHJ4PSIxMi41IiByeT0iMTIuNSIgc3R5bGU9InN0cm9rZTojMDAwMDAwO3N0cm9rZS13aWR0aDoxOyIgd2lkdGg9IjkyIiB4PSIxNDMiIHk9IjMxMi45NTMxIi8+PHRleHQgZmlsbD0iIzAwMDAwMCIgZm9udC1mYW1pbHk9IkFyaWFsIiBmb250LXNpemU9IjEyIiBsZW5ndGhBZGp1c3Q9InNwYWNpbmciIHRleHRMZW5ndGg9IjcyIiB4PSIxNTMiIHk9IjMzNC4yOTY5Ij5VcGRhdGUgQWtzZXM8L3RleHQ+PHJlY3QgZmlsbD0iI0ZGRkZGRiIgaGVpZ2h0PSIzMi44NDM4IiByeD0iMTIuNSIgcnk9IjEyLjUiIHN0eWxlPSJzdHJva2U6IzAwMDAwMDtzdHJva2Utd2lkdGg6MTsiIHdpZHRoPSIxMTYiIHg9IjI0NSIgeT0iMjQ1LjEwOTQiLz48dGV4dCBmaWxsPSIjMDAwMDAwIiBmb250LWZhbWlseT0iQXJpYWwiIGZvbnQtc2l6ZT0iMTIiIGxlbmd0aEFkanVzdD0ic3BhY2luZyIgdGV4dExlbmd0aD0iOTYiIHg9IjI1NSIgeT0iMjY2LjQ1MzEiPk5vbmFrdGlma2FuIFVzZXI8L3RleHQ+PHJlY3QgZmlsbD0iI0ZGRkZGRiIgaGVpZ2h0PSIzMi44NDM4IiByeD0iMTIuNSIgcnk9IjEyLjUiIHN0eWxlPSJzdHJva2U6IzAwMDAwMDtzdHJva2Utd2lkdGg6MTsiIHdpZHRoPSI4MCIgeD0iMjYzIiB5PSIzMTIuOTUzMSIvPjx0ZXh0IGZpbGw9IiMwMDAwMDAiIGZvbnQtZmFtaWx5PSJBcmlhbCIgZm9udC1zaXplPSIxMiIgbGVuZ3RoQWRqdXN0PSJzcGFjaW5nIiB0ZXh0TGVuZ3RoPSI2MCIgeD0iMjczIiB5PSIzMzQuMjk2OSI+QXJzaXAgRGF0YTwvdGV4dD48bGluZSBzdHlsZT0ic3Ryb2tlOiMwMDAwMDA7c3Ryb2tlLXdpZHRoOjEuNTsiIHgxPSI3MiIgeDI9IjMwMyIgeTE9IjM5OS43MTg4IiB5Mj0iMzk5LjcxODgiLz48cmVjdCBmaWxsPSIjRkZGRkZGIiBoZWlnaHQ9IjMyLjg0MzgiIHJ4PSIxMi41IiByeT0iMTIuNSIgc3R5bGU9InN0cm9rZTojMDAwMDAwO3N0cm9rZS13aWR0aDoxOyIgd2lkdGg9IjExMCIgeD0iMzc3IiB5PSIxODkuNjg3NSIvPjx0ZXh0IGZpbGw9IiMwMDAwMDAiIGZvbnQtZmFtaWx5PSJBcmlhbCIgZm9udC1zaXplPSIxMiIgbGVuZ3RoQWRqdXN0PSJzcGFjaW5nIiB0ZXh0TGVuZ3RoPSI5MCIgeD0iMzg3IiB5PSIyMTEuMDMxMyI+VGFtcGlsa2FuIEVycm9yPC90ZXh0Pjxwb2x5Z29uIGZpbGw9IiNGRkZGRkYiIHBvaW50cz0iMzA5LDQwNy4yMTg4LDMyMSw0MTkuMjE4OCwzMDksNDMxLjIxODgsMjk3LDQxOS4yMTg4LDMwOSw0MDcuMjE4OCIgc3R5bGU9InN0cm9rZTojMDAwMDAwO3N0cm9rZS13aWR0aDoxOyIvPjxyZWN0IGZpbGw9IiNGRkZGRkYiIGhlaWdodD0iMzIuODQzOCIgcng9IjEyLjUiIHJ5PSIxMi41IiBzdHlsZT0ic3Ryb2tlOiMwMDAwMDA7c3Ryb2tlLXdpZHRoOjE7IiB3aWR0aD0iMTE2IiB4PSIyNTEiIHk9IjQ1MS4yMTg4Ii8+PHRleHQgZmlsbD0iIzAwMDAwMCIgZm9udC1mYW1pbHk9IkFyaWFsIiBmb250LXNpemU9IjEyIiBsZW5ndGhBZGp1c3Q9InNwYWNpbmciIHRleHRMZW5ndGg9Ijk2IiB4PSIyNjEiIHk9IjQ3Mi41NjI1Ij5LaXJpbSBLcmVkZW5zaWFsPC90ZXh0PjxlbGxpcHNlIGN4PSIzMDkiIGN5PSI1MTUuMDYyNSIgZmlsbD0ibm9uZSIgcng9IjExIiByeT0iMTEiIHN0eWxlPSJzdHJva2U6IzIyMjIyMjtzdHJva2Utd2lkdGg6MTsiLz48ZWxsaXBzZSBjeD0iMzA5IiBjeT0iNTE1LjA2MjUiIGZpbGw9IiMyMjIyMjIiIHJ4PSI2IiByeT0iNiIgc3R5bGU9InN0cm9rZTojMjIyMjIyO3N0cm9rZS13aWR0aDoxOyIvPjxsaW5lIHN0eWxlPSJzdHJva2U6IzAwMDAwMDtzdHJva2Utd2lkdGg6MTsiIHgxPSIzMDkiIHgyPSIzMDkiIHkxPSIzMCIgeTI9IjUwIi8+PHBvbHlnb24gZmlsbD0iIzAwMDAwMCIgcG9pbnRzPSIzMDUsNDAsMzA5LDUwLDMxMyw0MCwzMDksNDQiIHN0eWxlPSJzdHJva2U6IzAwMDAwMDtzdHJva2Utd2lkdGg6MTsiLz48bGluZSBzdHlsZT0ic3Ryb2tlOiMwMDAwMDA7c3Ryb2tlLXdpZHRoOjE7IiB4MT0iMzA5IiB4Mj0iMzA5IiB5MT0iODIuODQzOCIgeTI9IjEwMi44NDM4Ii8+PHBvbHlnb24gZmlsbD0iIzAwMDAwMCIgcG9pbnRzPSIzMDUsOTIuODQzOCwzMDksMTAyLjg0MzgsMzEzLDkyLjg0MzgsMzA5LDk2Ljg0MzgiIHN0eWxlPSJzdHJva2U6IzAwMDAwMDtzdHJva2Utd2lkdGg6MTsiLz48bGluZSBzdHlsZT0ic3Ryb2tlOiMwMDAwMDA7c3Ryb2tlLXdpZHRoOjE7IiB4MT0iNzIiIHgyPSI3MiIgeTE9IjI0NC4wMzEzIiB5Mj0iMjc5LjAzMTMiLz48cG9seWdvbiBmaWxsPSIjMDAwMDAwIiBwb2ludHM9IjY4LDI2OS4wMzEzLDcyLDI3OS4wMzEzLDc2LDI2OS4wMzEzLDcyLDI3My4wMzEzIiBzdHlsZT0ic3Ryb2tlOiMwMDAwMDA7c3Ryb2tlLXdpZHRoOjE7Ii8+PGxpbmUgc3R5bGU9InN0cm9rZTojMDAwMDAwO3N0cm9rZS13aWR0aDoxOyIgeDE9IjcyIiB4Mj0iNzIiIHkxPSIzMTEuODc1IiB5Mj0iMzQ2Ljg3NSIvPjxwb2x5Z29uIGZpbGw9IiMwMDAwMDAiIHBvaW50cz0iNjgsMzM2Ljg3NSw3MiwzNDYuODc1LDc2LDMzNi44NzUsNzIsMzQwLjg3NSIgc3R5bGU9InN0cm9rZTojMDAwMDAwO3N0cm9rZS13aWR0aDoxOyIvPjxsaW5lIHN0eWxlPSJzdHJva2U6IzAwMDAwMDtzdHJva2Utd2lkdGg6MTsiIHgxPSIxODkiIHgyPSIxODkiIHkxPSIyNzcuOTUzMSIgeTI9IjMxMi45NTMxIi8+PHBvbHlnb24gZmlsbD0iIzAwMDAwMCIgcG9pbnRzPSIxODUsMzAyLjk1MzEsMTg5LDMxMi45NTMxLDE5MywzMDIuOTUzMSwxODksMzA2Ljk1MzEiIHN0eWxlPSJzdHJva2U6IzAwMDAwMDtzdHJva2Utd2lkdGg6MTsiLz48bGluZSBzdHlsZT0ic3Ryb2tlOiMwMDAwMDA7c3Ryb2tlLXdpZHRoOjE7IiB4MT0iMzAzIiB4Mj0iMzAzIiB5MT0iMjc3Ljk1MzEiIHkyPSIzMTIuOTUzMSIvPjxwb2x5Z29uIGZpbGw9IiMwMDAwMDAiIHBvaW50cz0iMjk5LDMwMi45NTMxLDMwMywzMTIuOTUzMSwzMDcsMzAyLjk1MzEsMzAzLDMwNi45NTMxIiBzdHlsZT0ic3Ryb2tlOiMwMDAwMDA7c3Ryb2tlLXdpZHRoOjE7Ii8+PGxpbmUgc3R5bGU9InN0cm9rZTojMDAwMDAwO3N0cm9rZS13aWR0aDoxOyIgeDE9IjcyIiB4Mj0iNzIiIHkxPSIxOTEuMTg3NSIgeTI9IjIxMS4xODc1Ii8+PHBvbHlnb24gZmlsbD0iIzAwMDAwMCIgcG9pbnRzPSI2OCwyMDEuMTg3NSw3MiwyMTEuMTg3NSw3NiwyMDEuMTg3NSw3MiwyMDUuMTg3NSIgc3R5bGU9InN0cm9rZTojMDAwMDAwO3N0cm9rZS13aWR0aDoxOyIvPjxsaW5lIHN0eWxlPSJzdHJva2U6IzAwMDAwMDtzdHJva2Utd2lkdGg6MTsiIHgxPSIxODkiIHgyPSIxODkiIHkxPSIxOTEuMTg3NSIgeTI9IjI0NS4xMDk0Ii8+PHBvbHlnb24gZmlsbD0iIzAwMDAwMCIgcG9pbnRzPSIxODUsMjM1LjEwOTQsMTg5LDI0NS4xMDk0LDE5MywyMzUuMTA5NCwxODksMjM5LjEwOTQiIHN0eWxlPSJzdHJva2U6IzAwMDAwMDtzdHJva2Utd2lkdGg6MTsiLz48bGluZSBzdHlsZT0ic3Ryb2tlOiMwMDAwMDA7c3Ryb2tlLXdpZHRoOjE7IiB4MT0iMzAzIiB4Mj0iMzAzIiB5MT0iMTkxLjE4NzUiIHkyPSIyNDUuMTA5NCIvPjxwb2x5Z29uIGZpbGw9IiMwMDAwMDAiIHBvaW50cz0iMjk5LDIzNS4xMDk0LDMwMywyNDUuMTA5NCwzMDcsMjM1LjEwOTQsMzAzLDIzOS4xMDk0IiBzdHlsZT0ic3Ryb2tlOiMwMDAwMDA7c3Ryb2tlLXdpZHRoOjE7Ii8+PGxpbmUgc3R5bGU9InN0cm9rZTojMDAwMDAwO3N0cm9rZS13aWR0aDoxOyIgeDE9IjcyIiB4Mj0iNzIiIHkxPSIzNzkuNzE4OCIgeTI9IjM5OS43MTg4Ii8+PHBvbHlnb24gZmlsbD0iIzAwMDAwMCIgcG9pbnRzPSI2OCwzODkuNzE4OCw3MiwzOTkuNzE4OCw3NiwzODkuNzE4OCw3MiwzOTMuNzE4OCIgc3R5bGU9InN0cm9rZTojMDAwMDAwO3N0cm9rZS13aWR0aDoxOyIvPjxsaW5lIHN0eWxlPSJzdHJva2U6IzAwMDAwMDtzdHJva2Utd2lkdGg6MTsiIHgxPSIxODkiIHgyPSIxODkiIHkxPSIzNDUuNzk2OSIgeTI9IjM5OS43MTg4Ii8+PHBvbHlnb24gZmlsbD0iIzAwMDAwMCIgcG9pbnRzPSIxODUsMzg5LjcxODgsMTg5LDM5OS43MTg4LDE5MywzODkuNzE4OCwxODksMzkzLjcxODgiIHN0eWxlPSJzdHJva2U6IzAwMDAwMDtzdHJva2Utd2lkdGg6MTsiLz48bGluZSBzdHlsZT0ic3Ryb2tlOiMwMDAwMDA7c3Ryb2tlLXdpZHRoOjE7IiB4MT0iMzAzIiB4Mj0iMzAzIiB5MT0iMzQ1Ljc5NjkiIHkyPSIzOTkuNzE4OCIvPjxwb2x5Z29uIGZpbGw9IiMwMDAwMDAiIHBvaW50cz0iMjk5LDM4OS43MTg4LDMwMywzOTkuNzE4OCwzMDcsMzg5LjcxODgsMzAzLDM5My43MTg4IiBzdHlsZT0ic3Ryb2tlOiMwMDAwMDA7c3Ryb2tlLXdpZHRoOjE7Ii8+PGxpbmUgc3R5bGU9InN0cm9rZTojMDAwMDAwO3N0cm9rZS13aWR0aDoxOyIgeDE9IjI4MC41IiB4Mj0iMTg2IiB5MT0iMTY3LjY4NzUiIHkyPSIxNjcuNjg3NSIvPjxsaW5lIHN0eWxlPSJzdHJva2U6IzAwMDAwMDtzdHJva2Utd2lkdGg6MTsiIHgxPSIxODYiIHgyPSIxODYiIHkxPSIxNjcuNjg3NSIgeTI9IjE4OS42ODc1Ii8+PHBvbHlnb24gZmlsbD0iIzAwMDAwMCIgcG9pbnRzPSIxODIsMTc5LjY4NzUsMTg2LDE4OS42ODc1LDE5MCwxNzkuNjg3NSwxODYsMTgzLjY4NzUiIHN0eWxlPSJzdHJva2U6IzAwMDAwMDtzdHJva2Utd2lkdGg6MTsiLz48bGluZSBzdHlsZT0ic3Ryb2tlOiMwMDAwMDA7c3Ryb2tlLXdpZHRoOjE7IiB4MT0iMzM3LjUiIHgyPSI0MzIiIHkxPSIxNjcuNjg3NSIgeTI9IjE2Ny42ODc1Ii8+PGxpbmUgc3R5bGU9InN0cm9rZTojMDAwMDAwO3N0cm9rZS13aWR0aDoxOyIgeDE9IjQzMiIgeDI9IjQzMiIgeTE9IjE2Ny42ODc1IiB5Mj0iMTg5LjY4NzUiLz48cG9seWdvbiBmaWxsPSIjMDAwMDAwIiBwb2ludHM9IjQyOCwxNzkuNjg3NSw0MzIsMTg5LjY4NzUsNDM2LDE3OS42ODc1LDQzMiwxODMuNjg3NSIgc3R5bGU9InN0cm9rZTojMDAwMDAwO3N0cm9rZS13aWR0aDoxOyIvPjxsaW5lIHN0eWxlPSJzdHJva2U6IzAwMDAwMDtzdHJva2Utd2lkdGg6MTsiIHgxPSIxODYiIHgyPSIxODYiIHkxPSI0MDEuMjE4OCIgeTI9IjQxOS4yMTg4Ii8+PGxpbmUgc3R5bGU9InN0cm9rZTojMDAwMDAwO3N0cm9rZS13aWR0aDoxOyIgeDE9IjE4NiIgeDI9IjI5NyIgeTE9IjQxOS4yMTg4IiB5Mj0iNDE5LjIxODgiLz48cG9seWdvbiBmaWxsPSIjMDAwMDAwIiBwb2ludHM9IjI4Nyw0MTUuMjE4OCwyOTcsNDE5LjIxODgsMjg3LDQyMy4yMTg4LDI5MSw0MTkuMjE4OCIgc3R5bGU9InN0cm9rZTojMDAwMDAwO3N0cm9rZS13aWR0aDoxOyIvPjxsaW5lIHN0eWxlPSJzdHJva2U6IzAwMDAwMDtzdHJva2Utd2lkdGg6MTsiIHgxPSI0MzIiIHgyPSI0MzIiIHkxPSIyMjIuNTMxMyIgeTI9IjQxOS4yMTg4Ii8+PGxpbmUgc3R5bGU9InN0cm9rZTojMDAwMDAwO3N0cm9rZS13aWR0aDoxOyIgeDE9IjQzMiIgeDI9IjMyMSIgeTE9IjQxOS4yMTg4IiB5Mj0iNDE5LjIxODgiLz48cG9seWdvbiBmaWxsPSIjMDAwMDAwIiBwb2ludHM9IjMzMSw0MTUuMjE4OCwzMjEsNDE5LjIxODgsMzMxLDQyMy4yMTg4LDMyNyw0MTkuMjE4OCIgc3R5bGU9InN0cm9rZTojMDAwMDAwO3N0cm9rZS13aWR0aDoxOyIvPjxsaW5lIHN0eWxlPSJzdHJva2U6IzAwMDAwMDtzdHJva2Utd2lkdGg6MTsiIHgxPSIzMDkiIHgyPSIzMDkiIHkxPSIxMzUuNjg3NSIgeTI9IjE1NS42ODc1Ii8+PHBvbHlnb24gZmlsbD0iIzAwMDAwMCIgcG9pbnRzPSIzMDUsMTQ1LjY4NzUsMzA5LDE1NS42ODc1LDMxMywxNDUuNjg3NSwzMDksMTQ5LjY4NzUiIHN0eWxlPSJzdHJva2U6IzAwMDAwMDtzdHJva2Utd2lkdGg6MTsiLz48bGluZSBzdHlsZT0ic3Ryb2tlOiMwMDAwMDA7c3Ryb2tlLXdpZHRoOjE7IiB4MT0iMzA5IiB4Mj0iMzA5IiB5MT0iNDMxLjIxODgiIHkyPSI0NTEuMjE4OCIvPjxwb2x5Z29uIGZpbGw9IiMwMDAwMDAiIHBvaW50cz0iMzA1LDQ0MS4yMTg4LDMwOSw0NTEuMjE4OCwzMTMsNDQxLjIxODgsMzA5LDQ0NS4yMTg4IiBzdHlsZT0ic3Ryb2tlOiMwMDAwMDA7c3Ryb2tlLXdpZHRoOjE7Ii8+PGxpbmUgc3R5bGU9InN0cm9rZTojMDAwMDAwO3N0cm9rZS13aWR0aDoxOyIgeDE9IjMwOSIgeDI9IjMwOSIgeTE9IjQ4NC4wNjI1IiB5Mj0iNTA0LjA2MjUiLz48cG9seWdvbiBmaWxsPSIjMDAwMDAwIiBwb2ludHM9IjMwNSw0OTQuMDYyNSwzMDksNTA0LjA2MjUsMzEzLDQ5NC4wNjI1LDMwOSw0OTguMDYyNSIgc3R5bGU9InN0cm9rZTojMDAwMDAwO3N0cm9rZS13aWR0aDoxOyIvPjwhLS1TUkM9W1hMOHpKeUQwM0R0cEFwb3M4b2lUS0EyNWVMMFhRRGRUZDlET2tWV1lkcUZLVnktYjdvWUxBZlhFampfcFVfT3ZEWW1UQWhSRzFXYjVoUTRiQ0VxZll4eUxIb05zdGZ3M3MwUEpFTFQ2RndkZGdjNXUyWnVleDNxTXBRR0tRdEhYT0FjV0gxeWZjeDhBdXMtc21zRFlMMWZ3U1FTTUd5cjZqdDExN1ViamNNbENqa1FZNE9lSHhnUTJJeU9xZV9qRnhtQnhHLXVBU2dyY2c5UGJ6dy1YT2U3U2pJb0I1RVBEZjBYbDkzdGk4Y2JBU0djcEJfSmk3a1BXREdkQzNaWkYwNkJkc1Q4QlNCXzVUZV9yY04zQ1Y5QjFIXzFxM2J6OElENDh0Wjc2OFBiUE4xZTBMaVhvR2dyU1lZVERUZnFSRUtUQkRtY1I4RFdPYm10QWI5VGh2MHdNUTNXY0lEcFBBd0xfWFBjbm1zT1NPQkpUaUhfOWd0R05ZUHNXTkFPYmg1Y3ZYUk1JOHVkZldYUlprYUJ0MG0wMF0tLT48L2c+PC9zdmc+;" vertex="1" parent="1">
            <mxGeometry x="2010" y="761.5" width="498" height="537" as="geometry" />
          </mxCell>
        </UserObject>
        <mxCell id="Jx06i-ONw801CrRce3De-18" value="Flowchart Pengumuman" style="swimlane;whiteSpace=wrap;html=1;" vertex="1" parent="1">
          <mxGeometry x="2010" y="740" width="500" height="560" as="geometry" />
        </mxCell>
        <mxCell id="Jx06i-ONw801CrRce3De-25" value="" style="group" vertex="1" connectable="0" parent="1">
          <mxGeometry x="80" y="30" width="292" height="431" as="geometry" />
        </mxCell>
        <UserObject label="" plantUmlData="{&#xa;  &quot;data&quot;: &quot;@startuml\nskinparam monochrome true\nskinparam defaultFontName Arial\nskinparam ArrowColor black\nskinparam shadowing false\n\nskinparam ActivityBackgroundColor white\nskinparam ActivityBorderColor black\nskinparam ActivityBorderThickness 1\n\nskinparam DiamondBackgroundColor white\nskinparam DiamondBorderColor black\nskinparam DiamondBorderThickness 1\n\nstart\n\n\n:Akses Menu Jadwal Sholat;\n\nif (Valid?) then (ya)\n  :Pilih Jadwal Sholat;\n  :Edit Jadwal Sholat;\n  :Simpan Jadwal Sholat;\n  :Publikasi Jadwal;\nelse (tidak)\n  :Tampilkan Error;\nendif\n\nstop\n@enduml&quot;,&#xa;  &quot;format&quot;: &quot;svg&quot;&#xa;}" id="Jx06i-ONw801CrRce3De-3">
          <mxCell style="shape=image;noLabel=1;verticalAlign=top;aspect=fixed;imageAspect=0;image=data:image/svg+xml,PHN2ZyB4bWxucz0iaHR0cDovL3d3dy53My5vcmcvMjAwMC9zdmciIHhtbG5zOnhsaW5rPSJodHRwOi8vd3d3LnczLm9yZy8xOTk5L3hsaW5rIiBjb250ZW50U3R5bGVUeXBlPSJ0ZXh0L2NzcyIgZGF0YS1kaWFncmFtLXR5cGU9IkFDVElWSVRZIiBoZWlnaHQ9IjQxMXB4IiBwcmVzZXJ2ZUFzcGVjdFJhdGlvPSJub25lIiBzdHlsZT0id2lkdGg6MjkycHg7aGVpZ2h0OjQxMXB4O2JhY2tncm91bmQ6I0ZGRkZGRjsiIHZlcnNpb249IjEuMSIgdmlld0JveD0iMCAwIDI5MiA0MTEiIHdpZHRoPSIyOTJweCIgem9vbUFuZFBhbj0ibWFnbmlmeSI+PGRlZnMvPjxnPjxlbGxpcHNlIGN4PSIxNTMuNSIgY3k9IjIwIiBmaWxsPSIjMjIyMjIyIiByeD0iMTAiIHJ5PSIxMCIgc3R5bGU9InN0cm9rZTojMjIyMjIyO3N0cm9rZS13aWR0aDoxOyIvPjxyZWN0IGZpbGw9IiNGRkZGRkYiIGhlaWdodD0iMzIuODQzOCIgcng9IjEyLjUiIHJ5PSIxMi41IiBzdHlsZT0ic3Ryb2tlOiMwMDAwMDA7c3Ryb2tlLXdpZHRoOjE7IiB3aWR0aD0iMTY0IiB4PSI3MS41IiB5PSI1MCIvPjx0ZXh0IGZpbGw9IiMwMDAwMDAiIGZvbnQtZmFtaWx5PSJBcmlhbCIgZm9udC1zaXplPSIxMiIgbGVuZ3RoQWRqdXN0PSJzcGFjaW5nIiB0ZXh0TGVuZ3RoPSIxNDQiIHg9IjgxLjUiIHk9IjcxLjM0MzgiPkFrc2VzIE1lbnUgSmFkd2FsIFNob2xhdDwvdGV4dD48cG9seWdvbiBmaWxsPSIjRkZGRkZGIiBwb2ludHM9IjEzNywxMDIuODQzOCwxNzAsMTAyLjg0MzgsMTgyLDExNC44NDM4LDE3MCwxMjYuODQzOCwxMzcsMTI2Ljg0MzgsMTI1LDExNC44NDM4LDEzNywxMDIuODQzOCIgc3R5bGU9InN0cm9rZTojMDAwMDAwO3N0cm9rZS13aWR0aDoxOyIvPjx0ZXh0IGZpbGw9IiMwMDAwMDAiIGZvbnQtZmFtaWx5PSJBcmlhbCIgZm9udC1zaXplPSIxMSIgbGVuZ3RoQWRqdXN0PSJzcGFjaW5nIiB0ZXh0TGVuZ3RoPSIzMyIgeD0iMTM3IiB5PSIxMTkuMzU1NSI+VmFsaWQ/PC90ZXh0Pjx0ZXh0IGZpbGw9IiMwMDAwMDAiIGZvbnQtZmFtaWx5PSJBcmlhbCIgZm9udC1zaXplPSIxMSIgbGVuZ3RoQWRqdXN0PSJzcGFjaW5nIiB0ZXh0TGVuZ3RoPSIxMSIgeD0iMTE0IiB5PSIxMTMuNDY4OCI+eWE8L3RleHQ+PHRleHQgZmlsbD0iIzAwMDAwMCIgZm9udC1mYW1pbHk9IkFyaWFsIiBmb250LXNpemU9IjExIiBsZW5ndGhBZGp1c3Q9InNwYWNpbmciIHRleHRMZW5ndGg9IjI3LjUiIHg9IjE4MiIgeT0iMTEzLjQ2ODgiPnRpZGFrPC90ZXh0PjxyZWN0IGZpbGw9IiNGRkZGRkYiIGhlaWdodD0iMzIuODQzOCIgcng9IjEyLjUiIHJ5PSIxMi41IiBzdHlsZT0ic3Ryb2tlOiMwMDAwMDA7c3Ryb2tlLXdpZHRoOjE7IiB3aWR0aD0iMTM0IiB4PSIxNCIgeT0iMTM2Ljg0MzgiLz48dGV4dCBmaWxsPSIjMDAwMDAwIiBmb250LWZhbWlseT0iQXJpYWwiIGZvbnQtc2l6ZT0iMTIiIGxlbmd0aEFkanVzdD0ic3BhY2luZyIgdGV4dExlbmd0aD0iMTE0IiB4PSIyNCIgeT0iMTU4LjE4NzUiPlBpbGloIEphZHdhbCBTaG9sYXQ8L3RleHQ+PHJlY3QgZmlsbD0iI0ZGRkZGRiIgaGVpZ2h0PSIzMi44NDM4IiByeD0iMTIuNSIgcnk9IjEyLjUiIHN0eWxlPSJzdHJva2U6IzAwMDAwMDtzdHJva2Utd2lkdGg6MTsiIHdpZHRoPSIxMjgiIHg9IjE3IiB5PSIxODkuNjg3NSIvPjx0ZXh0IGZpbGw9IiMwMDAwMDAiIGZvbnQtZmFtaWx5PSJBcmlhbCIgZm9udC1zaXplPSIxMiIgbGVuZ3RoQWRqdXN0PSJzcGFjaW5nIiB0ZXh0TGVuZ3RoPSIxMDgiIHg9IjI3IiB5PSIyMTEuMDMxMyI+RWRpdCBKYWR3YWwgU2hvbGF0PC90ZXh0PjxyZWN0IGZpbGw9IiNGRkZGRkYiIGhlaWdodD0iMzIuODQzOCIgcng9IjEyLjUiIHJ5PSIxMi41IiBzdHlsZT0ic3Ryb2tlOiMwMDAwMDA7c3Ryb2tlLXdpZHRoOjE7IiB3aWR0aD0iMTQwIiB4PSIxMSIgeT0iMjQyLjUzMTMiLz48dGV4dCBmaWxsPSIjMDAwMDAwIiBmb250LWZhbWlseT0iQXJpYWwiIGZvbnQtc2l6ZT0iMTIiIGxlbmd0aEFkanVzdD0ic3BhY2luZyIgdGV4dExlbmd0aD0iMTIwIiB4PSIyMSIgeT0iMjYzLjg3NSI+U2ltcGFuIEphZHdhbCBTaG9sYXQ8L3RleHQ+PHJlY3QgZmlsbD0iI0ZGRkZGRiIgaGVpZ2h0PSIzMi44NDM4IiByeD0iMTIuNSIgcnk9IjEyLjUiIHN0eWxlPSJzdHJva2U6IzAwMDAwMDtzdHJva2Utd2lkdGg6MTsiIHdpZHRoPSIxMTYiIHg9IjIzIiB5PSIyOTUuMzc1Ii8+PHRleHQgZmlsbD0iIzAwMDAwMCIgZm9udC1mYW1pbHk9IkFyaWFsIiBmb250LXNpemU9IjEyIiBsZW5ndGhBZGp1c3Q9InNwYWNpbmciIHRleHRMZW5ndGg9Ijk2IiB4PSIzMyIgeT0iMzE2LjcxODgiPlB1Ymxpa2FzaSBKYWR3YWw8L3RleHQ+PHJlY3QgZmlsbD0iI0ZGRkZGRiIgaGVpZ2h0PSIzMi44NDM4IiByeD0iMTIuNSIgcnk9IjEyLjUiIHN0eWxlPSJzdHJva2U6IzAwMDAwMDtzdHJva2Utd2lkdGg6MTsiIHdpZHRoPSIxMTAiIHg9IjE3MSIgeT0iMTM2Ljg0MzgiLz48dGV4dCBmaWxsPSIjMDAwMDAwIiBmb250LWZhbWlseT0iQXJpYWwiIGZvbnQtc2l6ZT0iMTIiIGxlbmd0aEFkanVzdD0ic3BhY2luZyIgdGV4dExlbmd0aD0iOTAiIHg9IjE4MSIgeT0iMTU4LjE4NzUiPlRhbXBpbGthbiBFcnJvcjwvdGV4dD48cG9seWdvbiBmaWxsPSIjRkZGRkZGIiBwb2ludHM9IjE1My41LDMzNC4yMTg4LDE2NS41LDM0Ni4yMTg4LDE1My41LDM1OC4yMTg4LDE0MS41LDM0Ni4yMTg4LDE1My41LDMzNC4yMTg4IiBzdHlsZT0ic3Ryb2tlOiMwMDAwMDA7c3Ryb2tlLXdpZHRoOjE7Ii8+PGVsbGlwc2UgY3g9IjE1My41IiBjeT0iMzg5LjIxODgiIGZpbGw9Im5vbmUiIHJ4PSIxMSIgcnk9IjExIiBzdHlsZT0ic3Ryb2tlOiMyMjIyMjI7c3Ryb2tlLXdpZHRoOjE7Ii8+PGVsbGlwc2UgY3g9IjE1My41IiBjeT0iMzg5LjIxODgiIGZpbGw9IiMyMjIyMjIiIHJ4PSI2IiByeT0iNiIgc3R5bGU9InN0cm9rZTojMjIyMjIyO3N0cm9rZS13aWR0aDoxOyIvPjxsaW5lIHN0eWxlPSJzdHJva2U6IzAwMDAwMDtzdHJva2Utd2lkdGg6MTsiIHgxPSIxNTMuNSIgeDI9IjE1My41IiB5MT0iMzAiIHkyPSI1MCIvPjxwb2x5Z29uIGZpbGw9IiMwMDAwMDAiIHBvaW50cz0iMTQ5LjUsNDAsMTUzLjUsNTAsMTU3LjUsNDAsMTUzLjUsNDQiIHN0eWxlPSJzdHJva2U6IzAwMDAwMDtzdHJva2Utd2lkdGg6MTsiLz48bGluZSBzdHlsZT0ic3Ryb2tlOiMwMDAwMDA7c3Ryb2tlLXdpZHRoOjE7IiB4MT0iODEiIHgyPSI4MSIgeTE9IjE2OS42ODc1IiB5Mj0iMTg5LjY4NzUiLz48cG9seWdvbiBmaWxsPSIjMDAwMDAwIiBwb2ludHM9Ijc3LDE3OS42ODc1LDgxLDE4OS42ODc1LDg1LDE3OS42ODc1LDgxLDE4My42ODc1IiBzdHlsZT0ic3Ryb2tlOiMwMDAwMDA7c3Ryb2tlLXdpZHRoOjE7Ii8+PGxpbmUgc3R5bGU9InN0cm9rZTojMDAwMDAwO3N0cm9rZS13aWR0aDoxOyIgeDE9IjgxIiB4Mj0iODEiIHkxPSIyMjIuNTMxMyIgeTI9IjI0Mi41MzEzIi8+PHBvbHlnb24gZmlsbD0iIzAwMDAwMCIgcG9pbnRzPSI3NywyMzIuNTMxMyw4MSwyNDIuNTMxMyw4NSwyMzIuNTMxMyw4MSwyMzYuNTMxMyIgc3R5bGU9InN0cm9rZTojMDAwMDAwO3N0cm9rZS13aWR0aDoxOyIvPjxsaW5lIHN0eWxlPSJzdHJva2U6IzAwMDAwMDtzdHJva2Utd2lkdGg6MTsiIHgxPSI4MSIgeDI9IjgxIiB5MT0iMjc1LjM3NSIgeTI9IjI5NS4zNzUiLz48cG9seWdvbiBmaWxsPSIjMDAwMDAwIiBwb2ludHM9Ijc3LDI4NS4zNzUsODEsMjk1LjM3NSw4NSwyODUuMzc1LDgxLDI4OS4zNzUiIHN0eWxlPSJzdHJva2U6IzAwMDAwMDtzdHJva2Utd2lkdGg6MTsiLz48bGluZSBzdHlsZT0ic3Ryb2tlOiMwMDAwMDA7c3Ryb2tlLXdpZHRoOjE7IiB4MT0iMTI1IiB4Mj0iODEiIHkxPSIxMTQuODQzOCIgeTI9IjExNC44NDM4Ii8+PGxpbmUgc3R5bGU9InN0cm9rZTojMDAwMDAwO3N0cm9rZS13aWR0aDoxOyIgeDE9IjgxIiB4Mj0iODEiIHkxPSIxMTQuODQzOCIgeTI9IjEzNi44NDM4Ii8+PHBvbHlnb24gZmlsbD0iIzAwMDAwMCIgcG9pbnRzPSI3NywxMjYuODQzOCw4MSwxMzYuODQzOCw4NSwxMjYuODQzOCw4MSwxMzAuODQzOCIgc3R5bGU9InN0cm9rZTojMDAwMDAwO3N0cm9rZS13aWR0aDoxOyIvPjxsaW5lIHN0eWxlPSJzdHJva2U6IzAwMDAwMDtzdHJva2Utd2lkdGg6MTsiIHgxPSIxODIiIHgyPSIyMjYiIHkxPSIxMTQuODQzOCIgeTI9IjExNC44NDM4Ii8+PGxpbmUgc3R5bGU9InN0cm9rZTojMDAwMDAwO3N0cm9rZS13aWR0aDoxOyIgeDE9IjIyNiIgeDI9IjIyNiIgeTE9IjExNC44NDM4IiB5Mj0iMTM2Ljg0MzgiLz48cG9seWdvbiBmaWxsPSIjMDAwMDAwIiBwb2ludHM9IjIyMiwxMjYuODQzOCwyMjYsMTM2Ljg0MzgsMjMwLDEyNi44NDM4LDIyNiwxMzAuODQzOCIgc3R5bGU9InN0cm9rZTojMDAwMDAwO3N0cm9rZS13aWR0aDoxOyIvPjxsaW5lIHN0eWxlPSJzdHJva2U6IzAwMDAwMDtzdHJva2Utd2lkdGg6MTsiIHgxPSI4MSIgeDI9IjgxIiB5MT0iMzI4LjIxODgiIHkyPSIzNDYuMjE4OCIvPjxsaW5lIHN0eWxlPSJzdHJva2U6IzAwMDAwMDtzdHJva2Utd2lkdGg6MTsiIHgxPSI4MSIgeDI9IjE0MS41IiB5MT0iMzQ2LjIxODgiIHkyPSIzNDYuMjE4OCIvPjxwb2x5Z29uIGZpbGw9IiMwMDAwMDAiIHBvaW50cz0iMTMxLjUsMzQyLjIxODgsMTQxLjUsMzQ2LjIxODgsMTMxLjUsMzUwLjIxODgsMTM1LjUsMzQ2LjIxODgiIHN0eWxlPSJzdHJva2U6IzAwMDAwMDtzdHJva2Utd2lkdGg6MTsiLz48bGluZSBzdHlsZT0ic3Ryb2tlOiMwMDAwMDA7c3Ryb2tlLXdpZHRoOjE7IiB4MT0iMjI2IiB4Mj0iMjI2IiB5MT0iMTY5LjY4NzUiIHkyPSIzNDYuMjE4OCIvPjxsaW5lIHN0eWxlPSJzdHJva2U6IzAwMDAwMDtzdHJva2Utd2lkdGg6MTsiIHgxPSIyMjYiIHgyPSIxNjUuNSIgeTE9IjM0Ni4yMTg4IiB5Mj0iMzQ2LjIxODgiLz48cG9seWdvbiBmaWxsPSIjMDAwMDAwIiBwb2ludHM9IjE3NS41LDM0Mi4yMTg4LDE2NS41LDM0Ni4yMTg4LDE3NS41LDM1MC4yMTg4LDE3MS41LDM0Ni4yMTg4IiBzdHlsZT0ic3Ryb2tlOiMwMDAwMDA7c3Ryb2tlLXdpZHRoOjE7Ii8+PGxpbmUgc3R5bGU9InN0cm9rZTojMDAwMDAwO3N0cm9rZS13aWR0aDoxOyIgeDE9IjE1My41IiB4Mj0iMTUzLjUiIHkxPSI4Mi44NDM4IiB5Mj0iMTAyLjg0MzgiLz48cG9seWdvbiBmaWxsPSIjMDAwMDAwIiBwb2ludHM9IjE0OS41LDkyLjg0MzgsMTUzLjUsMTAyLjg0MzgsMTU3LjUsOTIuODQzOCwxNTMuNSw5Ni44NDM4IiBzdHlsZT0ic3Ryb2tlOiMwMDAwMDA7c3Ryb2tlLXdpZHRoOjE7Ii8+PGxpbmUgc3R5bGU9InN0cm9rZTojMDAwMDAwO3N0cm9rZS13aWR0aDoxOyIgeDE9IjE1My41IiB4Mj0iMTUzLjUiIHkxPSIzNTguMjE4OCIgeTI9IjM3OC4yMTg4Ii8+PHBvbHlnb24gZmlsbD0iIzAwMDAwMCIgcG9pbnRzPSIxNDkuNSwzNjguMjE4OCwxNTMuNSwzNzguMjE4OCwxNTcuNSwzNjguMjE4OCwxNTMuNSwzNzIuMjE4OCIgc3R5bGU9InN0cm9rZTojMDAwMDAwO3N0cm9rZS13aWR0aDoxOyIvPjwhLS1TUkM9W1hQNnhSaUNtMzRMdFZHTDdQLW9RMzhOUmZhRTE1MDRJUDZTaUVJOGFZbVA1bnlaVkx0dDJCZW5zdkpyTkh2SG9lRElaTzBTVDlzd3lTRVQwUE4wY19vSk1qSlg0VlVRYWhyWllNV1paOUF6NVU3cGFvMEJkWTRzT0hEY1p2UDdJMUxnQ3NQYmZncjZ3YWp1VUlrQ1lGMkp4VVNKZUlUcUluc0FUQjZsY3BENUo0dkJCNlV3Y21ZVjJpZ0Z6cF9VRF9RNlI4TkVSZWdXblBiczd4M0JpTjFoVzFVczg0R3dVOC1oNjY2Z1hFYzRhVXh5MnpJdjFUU0VMMExabEFQQl9aUFZ2cmY4a1owX0t6UFdNV2xybVpYR21xclVzQ1F3eUZMSEE1aUU3d09YVEpwNkt6aFJ5ZEhHV01NaFZoeV96Nm0wMF0tLT48L2c+PC9zdmc+;" vertex="1" parent="Jx06i-ONw801CrRce3De-25">
            <mxGeometry y="20" width="292" height="411" as="geometry" />
          </mxCell>
        </UserObject>
        <mxCell id="Jx06i-ONw801CrRce3De-4" value="Flowchart Jadwal Sholat" style="swimlane;whiteSpace=wrap;html=1;" vertex="1" parent="Jx06i-ONw801CrRce3De-25">
          <mxGeometry width="290" height="430" as="geometry" />
        </mxCell>
        <mxCell id="Jx06i-ONw801CrRce3De-26" value="" style="group" vertex="1" connectable="0" parent="1">
          <mxGeometry x="470" y="20" width="411" height="577" as="geometry" />
        </mxCell>
        <UserObject label="" plantUmlData="{&#xa;  &quot;data&quot;: &quot;@startuml\nskinparam monochrome true\nskinparam defaultFontName Arial\nskinparam ArrowColor black\nskinparam shadowing false\n\nskinparam ActivityBackgroundColor white\nskinparam ActivityBorderColor black\nskinparam ActivityBorderThickness 1\n\nskinparam DiamondBackgroundColor white\nskinparam DiamondBorderColor black\nskinparam DiamondBorderThickness 1\n\nstart\n\n\n:Akses Menu Infaq;\n\nif (Valid?) then (ya)\n  split\n    :Catat Infaq;\n    :Input Nominal;\n    :Pilih Kategori;\n    :Simpan Data Infaq;\n  split again\n    :Lihat Laporan;\n    :Filter Periode;\n    :Export Laporan;\n  end split\nelse (tidak)\n  :Tampilkan Error;\nendif\n\n:Update Dashboard;\n\nstop\n@enduml&quot;,&#xa;  &quot;format&quot;: &quot;svg&quot;&#xa;}" id="Jx06i-ONw801CrRce3De-5">
          <mxCell style="shape=image;noLabel=1;verticalAlign=top;aspect=fixed;imageAspect=0;image=data:image/svg+xml,PHN2ZyB4bWxucz0iaHR0cDovL3d3dy53My5vcmcvMjAwMC9zdmciIHhtbG5zOnhsaW5rPSJodHRwOi8vd3d3LnczLm9yZy8xOTk5L3hsaW5rIiBjb250ZW50U3R5bGVUeXBlPSJ0ZXh0L2NzcyIgZGF0YS1kaWFncmFtLXR5cGU9IkFDVElWSVRZIiBoZWlnaHQ9IjU1MnB4IiBwcmVzZXJ2ZUFzcGVjdFJhdGlvPSJub25lIiBzdHlsZT0id2lkdGg6NDExcHg7aGVpZ2h0OjU1MnB4O2JhY2tncm91bmQ6I0ZGRkZGRjsiIHZlcnNpb249IjEuMSIgdmlld0JveD0iMCAwIDQxMSA1NTIiIHdpZHRoPSI0MTFweCIgem9vbUFuZFBhbj0ibWFnbmlmeSI+PGRlZnMvPjxnPjxlbGxpcHNlIGN4PSIyMzciIGN5PSIyMCIgZmlsbD0iIzIyMjIyMiIgcng9IjEwIiByeT0iMTAiIHN0eWxlPSJzdHJva2U6IzIyMjIyMjtzdHJva2Utd2lkdGg6MTsiLz48cmVjdCBmaWxsPSIjRkZGRkZGIiBoZWlnaHQ9IjMyLjg0MzgiIHJ4PSIxMi41IiByeT0iMTIuNSIgc3R5bGU9InN0cm9rZTojMDAwMDAwO3N0cm9rZS13aWR0aDoxOyIgd2lkdGg9IjExNiIgeD0iMTc5IiB5PSI1MCIvPjx0ZXh0IGZpbGw9IiMwMDAwMDAiIGZvbnQtZmFtaWx5PSJBcmlhbCIgZm9udC1zaXplPSIxMiIgbGVuZ3RoQWRqdXN0PSJzcGFjaW5nIiB0ZXh0TGVuZ3RoPSI5NiIgeD0iMTg5IiB5PSI3MS4zNDM4Ij5Ba3NlcyBNZW51IEluZmFxPC90ZXh0Pjxwb2x5Z29uIGZpbGw9IiNGRkZGRkYiIHBvaW50cz0iMjIwLjUsMTAyLjg0MzgsMjUzLjUsMTAyLjg0MzgsMjY1LjUsMTE0Ljg0MzgsMjUzLjUsMTI2Ljg0MzgsMjIwLjUsMTI2Ljg0MzgsMjA4LjUsMTE0Ljg0MzgsMjIwLjUsMTAyLjg0MzgiIHN0eWxlPSJzdHJva2U6IzAwMDAwMDtzdHJva2Utd2lkdGg6MTsiLz48dGV4dCBmaWxsPSIjMDAwMDAwIiBmb250LWZhbWlseT0iQXJpYWwiIGZvbnQtc2l6ZT0iMTEiIGxlbmd0aEFkanVzdD0ic3BhY2luZyIgdGV4dExlbmd0aD0iMzMiIHg9IjIyMC41IiB5PSIxMTkuMzU1NSI+VmFsaWQ/PC90ZXh0Pjx0ZXh0IGZpbGw9IiMwMDAwMDAiIGZvbnQtZmFtaWx5PSJBcmlhbCIgZm9udC1zaXplPSIxMSIgbGVuZ3RoQWRqdXN0PSJzcGFjaW5nIiB0ZXh0TGVuZ3RoPSIxMSIgeD0iMTk3LjUiIHk9IjExMy40Njg4Ij55YTwvdGV4dD48dGV4dCBmaWxsPSIjMDAwMDAwIiBmb250LWZhbWlseT0iQXJpYWwiIGZvbnQtc2l6ZT0iMTEiIGxlbmd0aEFkanVzdD0ic3BhY2luZyIgdGV4dExlbmd0aD0iMjcuNSIgeD0iMjY1LjUiIHk9IjExMy40Njg4Ij50aWRhazwvdGV4dD48bGluZSBzdHlsZT0ic3Ryb2tlOiMwMDAwMDA7c3Ryb2tlLXdpZHRoOjEuNTsiIHgxPSI3MiIgeDI9IjIwNCIgeTE9IjEzNi44NDM4IiB5Mj0iMTM2Ljg0MzgiLz48cmVjdCBmaWxsPSIjRkZGRkZGIiBoZWlnaHQ9IjMyLjg0MzgiIHJ4PSIxMi41IiByeT0iMTIuNSIgc3R5bGU9InN0cm9rZTojMDAwMDAwO3N0cm9rZS13aWR0aDoxOyIgd2lkdGg9Ijg2IiB4PSIyOSIgeT0iMTU4LjM0MzgiLz48dGV4dCBmaWxsPSIjMDAwMDAwIiBmb250LWZhbWlseT0iQXJpYWwiIGZvbnQtc2l6ZT0iMTIiIGxlbmd0aEFkanVzdD0ic3BhY2luZyIgdGV4dExlbmd0aD0iNjYiIHg9IjM5IiB5PSIxNzkuNjg3NSI+Q2F0YXQgSW5mYXE8L3RleHQ+PHJlY3QgZmlsbD0iI0ZGRkZGRiIgaGVpZ2h0PSIzMi44NDM4IiByeD0iMTIuNSIgcnk9IjEyLjUiIHN0eWxlPSJzdHJva2U6IzAwMDAwMDtzdHJva2Utd2lkdGg6MTsiIHdpZHRoPSI5OCIgeD0iMjMiIHk9IjIyNi4xODc1Ii8+PHRleHQgZmlsbD0iIzAwMDAwMCIgZm9udC1mYW1pbHk9IkFyaWFsIiBmb250LXNpemU9IjEyIiBsZW5ndGhBZGp1c3Q9InNwYWNpbmciIHRleHRMZW5ndGg9Ijc4IiB4PSIzMyIgeT0iMjQ3LjUzMTMiPklucHV0IE5vbWluYWw8L3RleHQ+PHJlY3QgZmlsbD0iI0ZGRkZGRiIgaGVpZ2h0PSIzMi44NDM4IiByeD0iMTIuNSIgcnk9IjEyLjUiIHN0eWxlPSJzdHJva2U6IzAwMDAwMDtzdHJva2Utd2lkdGg6MTsiIHdpZHRoPSIxMDQiIHg9IjIwIiB5PSIyOTQuMDMxMyIvPjx0ZXh0IGZpbGw9IiMwMDAwMDAiIGZvbnQtZmFtaWx5PSJBcmlhbCIgZm9udC1zaXplPSIxMiIgbGVuZ3RoQWRqdXN0PSJzcGFjaW5nIiB0ZXh0TGVuZ3RoPSI4NCIgeD0iMzAiIHk9IjMxNS4zNzUiPlBpbGloIEthdGVnb3JpPC90ZXh0PjxyZWN0IGZpbGw9IiNGRkZGRkYiIGhlaWdodD0iMzIuODQzOCIgcng9IjEyLjUiIHJ5PSIxMi41IiBzdHlsZT0ic3Ryb2tlOiMwMDAwMDA7c3Ryb2tlLXdpZHRoOjE7IiB3aWR0aD0iMTIyIiB4PSIxMSIgeT0iMzYxLjg3NSIvPjx0ZXh0IGZpbGw9IiMwMDAwMDAiIGZvbnQtZmFtaWx5PSJBcmlhbCIgZm9udC1zaXplPSIxMiIgbGVuZ3RoQWRqdXN0PSJzcGFjaW5nIiB0ZXh0TGVuZ3RoPSIxMDIiIHg9IjIxIiB5PSIzODMuMjE4OCI+U2ltcGFuIERhdGEgSW5mYXE8L3RleHQ+PHJlY3QgZmlsbD0iI0ZGRkZGRiIgaGVpZ2h0PSIzMi44NDM4IiByeD0iMTIuNSIgcnk9IjEyLjUiIHN0eWxlPSJzdHJva2U6IzAwMDAwMDtzdHJva2Utd2lkdGg6MTsiIHdpZHRoPSI5OCIgeD0iMTU1IiB5PSIxOTIuMjY1NiIvPjx0ZXh0IGZpbGw9IiMwMDAwMDAiIGZvbnQtZmFtaWx5PSJBcmlhbCIgZm9udC1zaXplPSIxMiIgbGVuZ3RoQWRqdXN0PSJzcGFjaW5nIiB0ZXh0TGVuZ3RoPSI3OCIgeD0iMTY1IiB5PSIyMTMuNjA5NCI+TGloYXQgTGFwb3JhbjwvdGV4dD48cmVjdCBmaWxsPSIjRkZGRkZGIiBoZWlnaHQ9IjMyLjg0MzgiIHJ4PSIxMi41IiByeT0iMTIuNSIgc3R5bGU9InN0cm9rZTojMDAwMDAwO3N0cm9rZS13aWR0aDoxOyIgd2lkdGg9IjEwNCIgeD0iMTUyIiB5PSIyNjAuMTA5NCIvPjx0ZXh0IGZpbGw9IiMwMDAwMDAiIGZvbnQtZmFtaWx5PSJBcmlhbCIgZm9udC1zaXplPSIxMiIgbGVuZ3RoQWRqdXN0PSJzcGFjaW5nIiB0ZXh0TGVuZ3RoPSI4NCIgeD0iMTYyIiB5PSIyODEuNDUzMSI+RmlsdGVyIFBlcmlvZGU8L3RleHQ+PHJlY3QgZmlsbD0iI0ZGRkZGRiIgaGVpZ2h0PSIzMi44NDM4IiByeD0iMTIuNSIgcnk9IjEyLjUiIHN0eWxlPSJzdHJva2U6IzAwMDAwMDtzdHJva2Utd2lkdGg6MTsiIHdpZHRoPSIxMDQiIHg9IjE1MiIgeT0iMzI3Ljk1MzEiLz48dGV4dCBmaWxsPSIjMDAwMDAwIiBmb250LWZhbWlseT0iQXJpYWwiIGZvbnQtc2l6ZT0iMTIiIGxlbmd0aEFkanVzdD0ic3BhY2luZyIgdGV4dExlbmd0aD0iODQiIHg9IjE2MiIgeT0iMzQ5LjI5NjkiPkV4cG9ydCBMYXBvcmFuPC90ZXh0PjxsaW5lIHN0eWxlPSJzdHJva2U6IzAwMDAwMDtzdHJva2Utd2lkdGg6MS41OyIgeDE9IjcyIiB4Mj0iMjA0IiB5MT0iNDE0LjcxODgiIHkyPSI0MTQuNzE4OCIvPjxyZWN0IGZpbGw9IiNGRkZGRkYiIGhlaWdodD0iMzIuODQzOCIgcng9IjEyLjUiIHJ5PSIxMi41IiBzdHlsZT0ic3Ryb2tlOiMwMDAwMDA7c3Ryb2tlLXdpZHRoOjE7IiB3aWR0aD0iMTEwIiB4PSIyOTAiIHk9IjEzNi44NDM4Ii8+PHRleHQgZmlsbD0iIzAwMDAwMCIgZm9udC1mYW1pbHk9IkFyaWFsIiBmb250LXNpemU9IjEyIiBsZW5ndGhBZGp1c3Q9InNwYWNpbmciIHRleHRMZW5ndGg9IjkwIiB4PSIzMDAiIHk9IjE1OC4xODc1Ij5UYW1waWxrYW4gRXJyb3I8L3RleHQ+PHBvbHlnb24gZmlsbD0iI0ZGRkZGRiIgcG9pbnRzPSIyMzcsNDIyLjIxODgsMjQ5LDQzNC4yMTg4LDIzNyw0NDYuMjE4OCwyMjUsNDM0LjIxODgsMjM3LDQyMi4yMTg4IiBzdHlsZT0ic3Ryb2tlOiMwMDAwMDA7c3Ryb2tlLXdpZHRoOjE7Ii8+PHJlY3QgZmlsbD0iI0ZGRkZGRiIgaGVpZ2h0PSIzMi44NDM4IiByeD0iMTIuNSIgcnk9IjEyLjUiIHN0eWxlPSJzdHJva2U6IzAwMDAwMDtzdHJva2Utd2lkdGg6MTsiIHdpZHRoPSIxMTYiIHg9IjE3OSIgeT0iNDY2LjIxODgiLz48dGV4dCBmaWxsPSIjMDAwMDAwIiBmb250LWZhbWlseT0iQXJpYWwiIGZvbnQtc2l6ZT0iMTIiIGxlbmd0aEFkanVzdD0ic3BhY2luZyIgdGV4dExlbmd0aD0iOTYiIHg9IjE4OSIgeT0iNDg3LjU2MjUiPlVwZGF0ZSBEYXNoYm9hcmQ8L3RleHQ+PGVsbGlwc2UgY3g9IjIzNyIgY3k9IjUzMC4wNjI1IiBmaWxsPSJub25lIiByeD0iMTEiIHJ5PSIxMSIgc3R5bGU9InN0cm9rZTojMjIyMjIyO3N0cm9rZS13aWR0aDoxOyIvPjxlbGxpcHNlIGN4PSIyMzciIGN5PSI1MzAuMDYyNSIgZmlsbD0iIzIyMjIyMiIgcng9IjYiIHJ5PSI2IiBzdHlsZT0ic3Ryb2tlOiMyMjIyMjI7c3Ryb2tlLXdpZHRoOjE7Ii8+PGxpbmUgc3R5bGU9InN0cm9rZTojMDAwMDAwO3N0cm9rZS13aWR0aDoxOyIgeDE9IjIzNyIgeDI9IjIzNyIgeTE9IjMwIiB5Mj0iNTAiLz48cG9seWdvbiBmaWxsPSIjMDAwMDAwIiBwb2ludHM9IjIzMyw0MCwyMzcsNTAsMjQxLDQwLDIzNyw0NCIgc3R5bGU9InN0cm9rZTojMDAwMDAwO3N0cm9rZS13aWR0aDoxOyIvPjxsaW5lIHN0eWxlPSJzdHJva2U6IzAwMDAwMDtzdHJva2Utd2lkdGg6MTsiIHgxPSI3MiIgeDI9IjcyIiB5MT0iMTkxLjE4NzUiIHkyPSIyMjYuMTg3NSIvPjxwb2x5Z29uIGZpbGw9IiMwMDAwMDAiIHBvaW50cz0iNjgsMjE2LjE4NzUsNzIsMjI2LjE4NzUsNzYsMjE2LjE4NzUsNzIsMjIwLjE4NzUiIHN0eWxlPSJzdHJva2U6IzAwMDAwMDtzdHJva2Utd2lkdGg6MTsiLz48bGluZSBzdHlsZT0ic3Ryb2tlOiMwMDAwMDA7c3Ryb2tlLXdpZHRoOjE7IiB4MT0iNzIiIHgyPSI3MiIgeTE9IjI1OS4wMzEzIiB5Mj0iMjk0LjAzMTMiLz48cG9seWdvbiBmaWxsPSIjMDAwMDAwIiBwb2ludHM9IjY4LDI4NC4wMzEzLDcyLDI5NC4wMzEzLDc2LDI4NC4wMzEzLDcyLDI4OC4wMzEzIiBzdHlsZT0ic3Ryb2tlOiMwMDAwMDA7c3Ryb2tlLXdpZHRoOjE7Ii8+PGxpbmUgc3R5bGU9InN0cm9rZTojMDAwMDAwO3N0cm9rZS13aWR0aDoxOyIgeDE9IjcyIiB4Mj0iNzIiIHkxPSIzMjYuODc1IiB5Mj0iMzYxLjg3NSIvPjxwb2x5Z29uIGZpbGw9IiMwMDAwMDAiIHBvaW50cz0iNjgsMzUxLjg3NSw3MiwzNjEuODc1LDc2LDM1MS44NzUsNzIsMzU1Ljg3NSIgc3R5bGU9InN0cm9rZTojMDAwMDAwO3N0cm9rZS13aWR0aDoxOyIvPjxsaW5lIHN0eWxlPSJzdHJva2U6IzAwMDAwMDtzdHJva2Utd2lkdGg6MTsiIHgxPSIyMDQiIHgyPSIyMDQiIHkxPSIyMjUuMTA5NCIgeTI9IjI2MC4xMDk0Ii8+PHBvbHlnb24gZmlsbD0iIzAwMDAwMCIgcG9pbnRzPSIyMDAsMjUwLjEwOTQsMjA0LDI2MC4xMDk0LDIwOCwyNTAuMTA5NCwyMDQsMjU0LjEwOTQiIHN0eWxlPSJzdHJva2U6IzAwMDAwMDtzdHJva2Utd2lkdGg6MTsiLz48bGluZSBzdHlsZT0ic3Ryb2tlOiMwMDAwMDA7c3Ryb2tlLXdpZHRoOjE7IiB4MT0iMjA0IiB4Mj0iMjA0IiB5MT0iMjkyLjk1MzEiIHkyPSIzMjcuOTUzMSIvPjxwb2x5Z29uIGZpbGw9IiMwMDAwMDAiIHBvaW50cz0iMjAwLDMxNy45NTMxLDIwNCwzMjcuOTUzMSwyMDgsMzE3Ljk1MzEsMjA0LDMyMS45NTMxIiBzdHlsZT0ic3Ryb2tlOiMwMDAwMDA7c3Ryb2tlLXdpZHRoOjE7Ii8+PGxpbmUgc3R5bGU9InN0cm9rZTojMDAwMDAwO3N0cm9rZS13aWR0aDoxOyIgeDE9IjcyIiB4Mj0iNzIiIHkxPSIxMzguMzQzOCIgeTI9IjE1OC4zNDM4Ii8+PHBvbHlnb24gZmlsbD0iIzAwMDAwMCIgcG9pbnRzPSI2OCwxNDguMzQzOCw3MiwxNTguMzQzOCw3NiwxNDguMzQzOCw3MiwxNTIuMzQzOCIgc3R5bGU9InN0cm9rZTojMDAwMDAwO3N0cm9rZS13aWR0aDoxOyIvPjxsaW5lIHN0eWxlPSJzdHJva2U6IzAwMDAwMDtzdHJva2Utd2lkdGg6MTsiIHgxPSIyMDQiIHgyPSIyMDQiIHkxPSIxMzguMzQzOCIgeTI9IjE5Mi4yNjU2Ii8+PHBvbHlnb24gZmlsbD0iIzAwMDAwMCIgcG9pbnRzPSIyMDAsMTgyLjI2NTYsMjA0LDE5Mi4yNjU2LDIwOCwxODIuMjY1NiwyMDQsMTg2LjI2NTYiIHN0eWxlPSJzdHJva2U6IzAwMDAwMDtzdHJva2Utd2lkdGg6MTsiLz48bGluZSBzdHlsZT0ic3Ryb2tlOiMwMDAwMDA7c3Ryb2tlLXdpZHRoOjE7IiB4MT0iNzIiIHgyPSI3MiIgeTE9IjM5NC43MTg4IiB5Mj0iNDE0LjcxODgiLz48cG9seWdvbiBmaWxsPSIjMDAwMDAwIiBwb2ludHM9IjY4LDQwNC43MTg4LDcyLDQxNC43MTg4LDc2LDQwNC43MTg4LDcyLDQwOC43MTg4IiBzdHlsZT0ic3Ryb2tlOiMwMDAwMDA7c3Ryb2tlLXdpZHRoOjE7Ii8+PGxpbmUgc3R5bGU9InN0cm9rZTojMDAwMDAwO3N0cm9rZS13aWR0aDoxOyIgeDE9IjIwNCIgeDI9IjIwNCIgeTE9IjM2MC43OTY5IiB5Mj0iNDE0LjcxODgiLz48cG9seWdvbiBmaWxsPSIjMDAwMDAwIiBwb2ludHM9IjIwMCw0MDQuNzE4OCwyMDQsNDE0LjcxODgsMjA4LDQwNC43MTg4LDIwNCw0MDguNzE4OCIgc3R5bGU9InN0cm9rZTojMDAwMDAwO3N0cm9rZS13aWR0aDoxOyIvPjxsaW5lIHN0eWxlPSJzdHJva2U6IzAwMDAwMDtzdHJva2Utd2lkdGg6MTsiIHgxPSIyMDguNSIgeDI9IjEzOCIgeTE9IjExNC44NDM4IiB5Mj0iMTE0Ljg0MzgiLz48bGluZSBzdHlsZT0ic3Ryb2tlOiMwMDAwMDA7c3Ryb2tlLXdpZHRoOjE7IiB4MT0iMTM4IiB4Mj0iMTM4IiB5MT0iMTE0Ljg0MzgiIHkyPSIxMzYuODQzOCIvPjxwb2x5Z29uIGZpbGw9IiMwMDAwMDAiIHBvaW50cz0iMTM0LDEyNi44NDM4LDEzOCwxMzYuODQzOCwxNDIsMTI2Ljg0MzgsMTM4LDEzMC44NDM4IiBzdHlsZT0ic3Ryb2tlOiMwMDAwMDA7c3Ryb2tlLXdpZHRoOjE7Ii8+PGxpbmUgc3R5bGU9InN0cm9rZTojMDAwMDAwO3N0cm9rZS13aWR0aDoxOyIgeDE9IjI2NS41IiB4Mj0iMzQ1IiB5MT0iMTE0Ljg0MzgiIHkyPSIxMTQuODQzOCIvPjxsaW5lIHN0eWxlPSJzdHJva2U6IzAwMDAwMDtzdHJva2Utd2lkdGg6MTsiIHgxPSIzNDUiIHgyPSIzNDUiIHkxPSIxMTQuODQzOCIgeTI9IjEzNi44NDM4Ii8+PHBvbHlnb24gZmlsbD0iIzAwMDAwMCIgcG9pbnRzPSIzNDEsMTI2Ljg0MzgsMzQ1LDEzNi44NDM4LDM0OSwxMjYuODQzOCwzNDUsMTMwLjg0MzgiIHN0eWxlPSJzdHJva2U6IzAwMDAwMDtzdHJva2Utd2lkdGg6MTsiLz48bGluZSBzdHlsZT0ic3Ryb2tlOiMwMDAwMDA7c3Ryb2tlLXdpZHRoOjE7IiB4MT0iMTM4IiB4Mj0iMTM4IiB5MT0iNDE2LjIxODgiIHkyPSI0MzQuMjE4OCIvPjxsaW5lIHN0eWxlPSJzdHJva2U6IzAwMDAwMDtzdHJva2Utd2lkdGg6MTsiIHgxPSIxMzgiIHgyPSIyMjUiIHkxPSI0MzQuMjE4OCIgeTI9IjQzNC4yMTg4Ii8+PHBvbHlnb24gZmlsbD0iIzAwMDAwMCIgcG9pbnRzPSIyMTUsNDMwLjIxODgsMjI1LDQzNC4yMTg4LDIxNSw0MzguMjE4OCwyMTksNDM0LjIxODgiIHN0eWxlPSJzdHJva2U6IzAwMDAwMDtzdHJva2Utd2lkdGg6MTsiLz48bGluZSBzdHlsZT0ic3Ryb2tlOiMwMDAwMDA7c3Ryb2tlLXdpZHRoOjE7IiB4MT0iMzQ1IiB4Mj0iMzQ1IiB5MT0iMTY5LjY4NzUiIHkyPSI0MzQuMjE4OCIvPjxsaW5lIHN0eWxlPSJzdHJva2U6IzAwMDAwMDtzdHJva2Utd2lkdGg6MTsiIHgxPSIzNDUiIHgyPSIyNDkiIHkxPSI0MzQuMjE4OCIgeTI9IjQzNC4yMTg4Ii8+PHBvbHlnb24gZmlsbD0iIzAwMDAwMCIgcG9pbnRzPSIyNTksNDMwLjIxODgsMjQ5LDQzNC4yMTg4LDI1OSw0MzguMjE4OCwyNTUsNDM0LjIxODgiIHN0eWxlPSJzdHJva2U6IzAwMDAwMDtzdHJva2Utd2lkdGg6MTsiLz48bGluZSBzdHlsZT0ic3Ryb2tlOiMwMDAwMDA7c3Ryb2tlLXdpZHRoOjE7IiB4MT0iMjM3IiB4Mj0iMjM3IiB5MT0iODIuODQzOCIgeTI9IjEwMi44NDM4Ii8+PHBvbHlnb24gZmlsbD0iIzAwMDAwMCIgcG9pbnRzPSIyMzMsOTIuODQzOCwyMzcsMTAyLjg0MzgsMjQxLDkyLjg0MzgsMjM3LDk2Ljg0MzgiIHN0eWxlPSJzdHJva2U6IzAwMDAwMDtzdHJva2Utd2lkdGg6MTsiLz48bGluZSBzdHlsZT0ic3Ryb2tlOiMwMDAwMDA7c3Ryb2tlLXdpZHRoOjE7IiB4MT0iMjM3IiB4Mj0iMjM3IiB5MT0iNDQ2LjIxODgiIHkyPSI0NjYuMjE4OCIvPjxwb2x5Z29uIGZpbGw9IiMwMDAwMDAiIHBvaW50cz0iMjMzLDQ1Ni4yMTg4LDIzNyw0NjYuMjE4OCwyNDEsNDU2LjIxODgsMjM3LDQ2MC4yMTg4IiBzdHlsZT0ic3Ryb2tlOiMwMDAwMDA7c3Ryb2tlLXdpZHRoOjE7Ii8+PGxpbmUgc3R5bGU9InN0cm9rZTojMDAwMDAwO3N0cm9rZS13aWR0aDoxOyIgeDE9IjIzNyIgeDI9IjIzNyIgeTE9IjQ5OS4wNjI1IiB5Mj0iNTE5LjA2MjUiLz48cG9seWdvbiBmaWxsPSIjMDAwMDAwIiBwb2ludHM9IjIzMyw1MDkuMDYyNSwyMzcsNTE5LjA2MjUsMjQxLDUwOS4wNjI1LDIzNyw1MTMuMDYyNSIgc3R5bGU9InN0cm9rZTojMDAwMDAwO3N0cm9rZS13aWR0aDoxOyIvPjwhLS1TUkM9W1hMQkJSaThtNEJweEFfTzhucnhYSzU0VTRZZjVJQU16Qng0SmgtOXV0UkxKb2pfTkc2V0oyUktkSV9GTzZReVRRXzgxMUhqZXM3RFhYSGkzSUxnWnVXLVpKT2NqSW9sc1FPa1BkV2NYd180cDRKeEVzUjcwbU01SHp3WGVLVkVIVjBLYmtjWEt0ckthLWdIcVVpZ0VJaFpyLVpoWVEyY1BVcGVNUlVILXA1MnBqckpLdGlHODNfdDAxTTYtZV91bHhvUng4c3VXNlFPYmJBSUtjaXBnUTJBeTZEXzJzZlZ1Q0xNQUlYWXplb0Z6RThQYVpPVkgyU1NBODBQN0FQeTBhcGFjSjNWMzFMZHhxMlJPU2FDVU5PVmpvOTY1UHFvY09nNEVWQUtjZThUNWRsMHh1MzhRaTRCb0x6TTZSMHhPTzYxMXRwYk52OThIczFhWHJnTzNicnpQQ2IwUWh4a2c5aHlhWjE5ZmhDX3o5dGppMGhhd2ZvX3BKdjJmb2I4Z3luQlVXaXViU3dUZTN1b1lmLVM1U1ZXNl0tLT48L2c+PC9zdmc+;" vertex="1" parent="Jx06i-ONw801CrRce3De-26">
            <mxGeometry y="25" width="411" height="552" as="geometry" />
          </mxCell>
        </UserObject>
        <mxCell id="Jx06i-ONw801CrRce3De-6" value="Flowchart Infaq" style="swimlane;whiteSpace=wrap;html=1;" vertex="1" parent="Jx06i-ONw801CrRce3De-26">
          <mxGeometry width="410" height="575" as="geometry" />
        </mxCell>
        <mxCell id="Jx06i-ONw801CrRce3De-27" value="" style="group" vertex="1" connectable="0" parent="1">
          <mxGeometry x="1070" y="20" width="432" height="530" as="geometry" />
        </mxCell>
        <UserObject label="" plantUmlData="{&#xa;  &quot;data&quot;: &quot;@startuml\nskinparam monochrome true\nskinparam defaultFontName Arial\nskinparam ArrowColor black\nskinparam shadowing false\n\nskinparam ActivityBackgroundColor white\nskinparam ActivityBorderColor black\nskinparam ActivityBorderThickness 1\n\nskinparam DiamondBackgroundColor white\nskinparam DiamondBorderColor black\nskinparam DiamondBorderThickness 1\n\nstart\n\n:Login;\n\n:Akses Menu Zakat;\n\nif (Valid?) then (ya)\n  split\n    :Input Data Muzakki;\n    :Hitung Zakat;\n    :Cetak Bukti Zakat;\n  split again\n    :Kelola Mustahik;\n    :Distribusi Zakat;\n    :Update Status;\n  end split\nelse (tidak)\n  :Tampilkan Error;\nendif\n\n:Generate Laporan;\n\nstop\n@enduml&quot;,&#xa;  &quot;format&quot;: &quot;svg&quot;&#xa;}" id="Jx06i-ONw801CrRce3De-21">
          <mxCell style="shape=image;noLabel=1;verticalAlign=top;aspect=fixed;imageAspect=0;image=data:image/svg+xml,PHN2ZyB4bWxucz0iaHR0cDovL3d3dy53My5vcmcvMjAwMC9zdmciIHhtbG5zOnhsaW5rPSJodHRwOi8vd3d3LnczLm9yZy8xOTk5L3hsaW5rIiBjb250ZW50U3R5bGVUeXBlPSJ0ZXh0L2NzcyIgZGF0YS1kaWFncmFtLXR5cGU9IkFDVElWSVRZIiBoZWlnaHQ9IjUwN3B4IiBwcmVzZXJ2ZUFzcGVjdFJhdGlvPSJub25lIiBzdHlsZT0id2lkdGg6NDMycHg7aGVpZ2h0OjUwN3B4O2JhY2tncm91bmQ6I0ZGRkZGRjsiIHZlcnNpb249IjEuMSIgdmlld0JveD0iMCAwIDQzMiA1MDciIHdpZHRoPSI0MzJweCIgem9vbUFuZFBhbj0ibWFnbmlmeSI+PGRlZnMvPjxnPjxlbGxpcHNlIGN4PSIyNTMuNSIgY3k9IjIwIiBmaWxsPSIjMjIyMjIyIiByeD0iMTAiIHJ5PSIxMCIgc3R5bGU9InN0cm9rZTojMjIyMjIyO3N0cm9rZS13aWR0aDoxOyIvPjxyZWN0IGZpbGw9IiNGRkZGRkYiIGhlaWdodD0iMzIuODQzOCIgcng9IjEyLjUiIHJ5PSIxMi41IiBzdHlsZT0ic3Ryb2tlOiMwMDAwMDA7c3Ryb2tlLXdpZHRoOjE7IiB3aWR0aD0iNTAiIHg9IjIyOC41IiB5PSI1MCIvPjx0ZXh0IGZpbGw9IiMwMDAwMDAiIGZvbnQtZmFtaWx5PSJBcmlhbCIgZm9udC1zaXplPSIxMiIgbGVuZ3RoQWRqdXN0PSJzcGFjaW5nIiB0ZXh0TGVuZ3RoPSIzMCIgeD0iMjM4LjUiIHk9IjcxLjM0MzgiPkxvZ2luPC90ZXh0PjxyZWN0IGZpbGw9IiNGRkZGRkYiIGhlaWdodD0iMzIuODQzOCIgcng9IjEyLjUiIHJ5PSIxMi41IiBzdHlsZT0ic3Ryb2tlOiMwMDAwMDA7c3Ryb2tlLXdpZHRoOjE7IiB3aWR0aD0iMTE2IiB4PSIxOTUuNSIgeT0iMTAyLjg0MzgiLz48dGV4dCBmaWxsPSIjMDAwMDAwIiBmb250LWZhbWlseT0iQXJpYWwiIGZvbnQtc2l6ZT0iMTIiIGxlbmd0aEFkanVzdD0ic3BhY2luZyIgdGV4dExlbmd0aD0iOTYiIHg9IjIwNS41IiB5PSIxMjQuMTg3NSI+QWtzZXMgTWVudSBaYWthdDwvdGV4dD48cG9seWdvbiBmaWxsPSIjRkZGRkZGIiBwb2ludHM9IjIzNywxNTUuNjg3NSwyNzAsMTU1LjY4NzUsMjgyLDE2Ny42ODc1LDI3MCwxNzkuNjg3NSwyMzcsMTc5LjY4NzUsMjI1LDE2Ny42ODc1LDIzNywxNTUuNjg3NSIgc3R5bGU9InN0cm9rZTojMDAwMDAwO3N0cm9rZS13aWR0aDoxOyIvPjx0ZXh0IGZpbGw9IiMwMDAwMDAiIGZvbnQtZmFtaWx5PSJBcmlhbCIgZm9udC1zaXplPSIxMSIgbGVuZ3RoQWRqdXN0PSJzcGFjaW5nIiB0ZXh0TGVuZ3RoPSIzMyIgeD0iMjM3IiB5PSIxNzIuMTk5MiI+VmFsaWQ/PC90ZXh0Pjx0ZXh0IGZpbGw9IiMwMDAwMDAiIGZvbnQtZmFtaWx5PSJBcmlhbCIgZm9udC1zaXplPSIxMSIgbGVuZ3RoQWRqdXN0PSJzcGFjaW5nIiB0ZXh0TGVuZ3RoPSIxMSIgeD0iMjE0IiB5PSIxNjYuMzEyNSI+eWE8L3RleHQ+PHRleHQgZmlsbD0iIzAwMDAwMCIgZm9udC1mYW1pbHk9IkFyaWFsIiBmb250LXNpemU9IjExIiBsZW5ndGhBZGp1c3Q9InNwYWNpbmciIHRleHRMZW5ndGg9IjI3LjUiIHg9IjI4MiIgeT0iMTY2LjMxMjUiPnRpZGFrPC90ZXh0PjxsaW5lIHN0eWxlPSJzdHJva2U6IzAwMDAwMDtzdHJva2Utd2lkdGg6MS41OyIgeDE9Ijc1IiB4Mj0iMjE5IiB5MT0iMTg5LjY4NzUiIHkyPSIxODkuNjg3NSIvPjxyZWN0IGZpbGw9IiNGRkZGRkYiIGhlaWdodD0iMzIuODQzOCIgcng9IjEyLjUiIHJ5PSIxMi41IiBzdHlsZT0ic3Ryb2tlOiMwMDAwMDA7c3Ryb2tlLXdpZHRoOjE7IiB3aWR0aD0iMTI4IiB4PSIxMSIgeT0iMjExLjE4NzUiLz48dGV4dCBmaWxsPSIjMDAwMDAwIiBmb250LWZhbWlseT0iQXJpYWwiIGZvbnQtc2l6ZT0iMTIiIGxlbmd0aEFkanVzdD0ic3BhY2luZyIgdGV4dExlbmd0aD0iMTA4IiB4PSIyMSIgeT0iMjMyLjUzMTMiPklucHV0IERhdGEgTXV6YWtraTwvdGV4dD48cmVjdCBmaWxsPSIjRkZGRkZGIiBoZWlnaHQ9IjMyLjg0MzgiIHJ4PSIxMi41IiByeT0iMTIuNSIgc3R5bGU9InN0cm9rZTojMDAwMDAwO3N0cm9rZS13aWR0aDoxOyIgd2lkdGg9IjkyIiB4PSIyOSIgeT0iMjY0LjAzMTMiLz48dGV4dCBmaWxsPSIjMDAwMDAwIiBmb250LWZhbWlseT0iQXJpYWwiIGZvbnQtc2l6ZT0iMTIiIGxlbmd0aEFkanVzdD0ic3BhY2luZyIgdGV4dExlbmd0aD0iNzIiIHg9IjM5IiB5PSIyODUuMzc1Ij5IaXR1bmcgWmFrYXQ8L3RleHQ+PHJlY3QgZmlsbD0iI0ZGRkZGRiIgaGVpZ2h0PSIzMi44NDM4IiByeD0iMTIuNSIgcnk9IjEyLjUiIHN0eWxlPSJzdHJva2U6IzAwMDAwMDtzdHJva2Utd2lkdGg6MTsiIHdpZHRoPSIxMjIiIHg9IjE0IiB5PSIzMTYuODc1Ii8+PHRleHQgZmlsbD0iIzAwMDAwMCIgZm9udC1mYW1pbHk9IkFyaWFsIiBmb250LXNpemU9IjEyIiBsZW5ndGhBZGp1c3Q9InNwYWNpbmciIHRleHRMZW5ndGg9IjEwMiIgeD0iMjQiIHk9IjMzOC4yMTg4Ij5DZXRhayBCdWt0aSBaYWthdDwvdGV4dD48cmVjdCBmaWxsPSIjRkZGRkZGIiBoZWlnaHQ9IjMyLjg0MzgiIHJ4PSIxMi41IiByeT0iMTIuNSIgc3R5bGU9InN0cm9rZTojMDAwMDAwO3N0cm9rZS13aWR0aDoxOyIgd2lkdGg9IjExMCIgeD0iMTY0IiB5PSIyMTEuMTg3NSIvPjx0ZXh0IGZpbGw9IiMwMDAwMDAiIGZvbnQtZmFtaWx5PSJBcmlhbCIgZm9udC1zaXplPSIxMiIgbGVuZ3RoQWRqdXN0PSJzcGFjaW5nIiB0ZXh0TGVuZ3RoPSI5MCIgeD0iMTc0IiB5PSIyMzIuNTMxMyI+S2Vsb2xhIE11c3RhaGlrPC90ZXh0PjxyZWN0IGZpbGw9IiNGRkZGRkYiIGhlaWdodD0iMzIuODQzOCIgcng9IjEyLjUiIHJ5PSIxMi41IiBzdHlsZT0ic3Ryb2tlOiMwMDAwMDA7c3Ryb2tlLXdpZHRoOjE7IiB3aWR0aD0iMTE2IiB4PSIxNjEiIHk9IjI2NC4wMzEzIi8+PHRleHQgZmlsbD0iIzAwMDAwMCIgZm9udC1mYW1pbHk9IkFyaWFsIiBmb250LXNpemU9IjEyIiBsZW5ndGhBZGp1c3Q9InNwYWNpbmciIHRleHRMZW5ndGg9Ijk2IiB4PSIxNzEiIHk9IjI4NS4zNzUiPkRpc3RyaWJ1c2kgWmFrYXQ8L3RleHQ+PHJlY3QgZmlsbD0iI0ZGRkZGRiIgaGVpZ2h0PSIzMi44NDM4IiByeD0iMTIuNSIgcnk9IjEyLjUiIHN0eWxlPSJzdHJva2U6IzAwMDAwMDtzdHJva2Utd2lkdGg6MTsiIHdpZHRoPSI5OCIgeD0iMTcwIiB5PSIzMTYuODc1Ii8+PHRleHQgZmlsbD0iIzAwMDAwMCIgZm9udC1mYW1pbHk9IkFyaWFsIiBmb250LXNpemU9IjEyIiBsZW5ndGhBZGp1c3Q9InNwYWNpbmciIHRleHRMZW5ndGg9Ijc4IiB4PSIxODAiIHk9IjMzOC4yMTg4Ij5VcGRhdGUgU3RhdHVzPC90ZXh0PjxsaW5lIHN0eWxlPSJzdHJva2U6IzAwMDAwMDtzdHJva2Utd2lkdGg6MS41OyIgeDE9Ijc1IiB4Mj0iMjE5IiB5MT0iMzY5LjcxODgiIHkyPSIzNjkuNzE4OCIvPjxyZWN0IGZpbGw9IiNGRkZGRkYiIGhlaWdodD0iMzIuODQzOCIgcng9IjEyLjUiIHJ5PSIxMi41IiBzdHlsZT0ic3Ryb2tlOiMwMDAwMDA7c3Ryb2tlLXdpZHRoOjE7IiB3aWR0aD0iMTEwIiB4PSIzMTEiIHk9IjE4OS42ODc1Ii8+PHRleHQgZmlsbD0iIzAwMDAwMCIgZm9udC1mYW1pbHk9IkFyaWFsIiBmb250LXNpemU9IjEyIiBsZW5ndGhBZGp1c3Q9InNwYWNpbmciIHRleHRMZW5ndGg9IjkwIiB4PSIzMjEiIHk9IjIxMS4wMzEzIj5UYW1waWxrYW4gRXJyb3I8L3RleHQ+PHBvbHlnb24gZmlsbD0iI0ZGRkZGRiIgcG9pbnRzPSIyNTMuNSwzNzcuMjE4OCwyNjUuNSwzODkuMjE4OCwyNTMuNSw0MDEuMjE4OCwyNDEuNSwzODkuMjE4OCwyNTMuNSwzNzcuMjE4OCIgc3R5bGU9InN0cm9rZTojMDAwMDAwO3N0cm9rZS13aWR0aDoxOyIvPjxyZWN0IGZpbGw9IiNGRkZGRkYiIGhlaWdodD0iMzIuODQzOCIgcng9IjEyLjUiIHJ5PSIxMi41IiBzdHlsZT0ic3Ryb2tlOiMwMDAwMDA7c3Ryb2tlLXdpZHRoOjE7IiB3aWR0aD0iMTE2IiB4PSIxOTUuNSIgeT0iNDIxLjIxODgiLz48dGV4dCBmaWxsPSIjMDAwMDAwIiBmb250LWZhbWlseT0iQXJpYWwiIGZvbnQtc2l6ZT0iMTIiIGxlbmd0aEFkanVzdD0ic3BhY2luZyIgdGV4dExlbmd0aD0iOTYiIHg9IjIwNS41IiB5PSI0NDIuNTYyNSI+R2VuZXJhdGUgTGFwb3JhbjwvdGV4dD48ZWxsaXBzZSBjeD0iMjUzLjUiIGN5PSI0ODUuMDYyNSIgZmlsbD0ibm9uZSIgcng9IjExIiByeT0iMTEiIHN0eWxlPSJzdHJva2U6IzIyMjIyMjtzdHJva2Utd2lkdGg6MTsiLz48ZWxsaXBzZSBjeD0iMjUzLjUiIGN5PSI0ODUuMDYyNSIgZmlsbD0iIzIyMjIyMiIgcng9IjYiIHJ5PSI2IiBzdHlsZT0ic3Ryb2tlOiMyMjIyMjI7c3Ryb2tlLXdpZHRoOjE7Ii8+PGxpbmUgc3R5bGU9InN0cm9rZTojMDAwMDAwO3N0cm9rZS13aWR0aDoxOyIgeDE9IjI1My41IiB4Mj0iMjUzLjUiIHkxPSIzMCIgeTI9IjUwIi8+PHBvbHlnb24gZmlsbD0iIzAwMDAwMCIgcG9pbnRzPSIyNDkuNSw0MCwyNTMuNSw1MCwyNTcuNSw0MCwyNTMuNSw0NCIgc3R5bGU9InN0cm9rZTojMDAwMDAwO3N0cm9rZS13aWR0aDoxOyIvPjxsaW5lIHN0eWxlPSJzdHJva2U6IzAwMDAwMDtzdHJva2Utd2lkdGg6MTsiIHgxPSIyNTMuNSIgeDI9IjI1My41IiB5MT0iODIuODQzOCIgeTI9IjEwMi44NDM4Ii8+PHBvbHlnb24gZmlsbD0iIzAwMDAwMCIgcG9pbnRzPSIyNDkuNSw5Mi44NDM4LDI1My41LDEwMi44NDM4LDI1Ny41LDkyLjg0MzgsMjUzLjUsOTYuODQzOCIgc3R5bGU9InN0cm9rZTojMDAwMDAwO3N0cm9rZS13aWR0aDoxOyIvPjxsaW5lIHN0eWxlPSJzdHJva2U6IzAwMDAwMDtzdHJva2Utd2lkdGg6MTsiIHgxPSI3NSIgeDI9Ijc1IiB5MT0iMjQ0LjAzMTMiIHkyPSIyNjQuMDMxMyIvPjxwb2x5Z29uIGZpbGw9IiMwMDAwMDAiIHBvaW50cz0iNzEsMjU0LjAzMTMsNzUsMjY0LjAzMTMsNzksMjU0LjAzMTMsNzUsMjU4LjAzMTMiIHN0eWxlPSJzdHJva2U6IzAwMDAwMDtzdHJva2Utd2lkdGg6MTsiLz48bGluZSBzdHlsZT0ic3Ryb2tlOiMwMDAwMDA7c3Ryb2tlLXdpZHRoOjE7IiB4MT0iNzUiIHgyPSI3NSIgeTE9IjI5Ni44NzUiIHkyPSIzMTYuODc1Ii8+PHBvbHlnb24gZmlsbD0iIzAwMDAwMCIgcG9pbnRzPSI3MSwzMDYuODc1LDc1LDMxNi44NzUsNzksMzA2Ljg3NSw3NSwzMTAuODc1IiBzdHlsZT0ic3Ryb2tlOiMwMDAwMDA7c3Ryb2tlLXdpZHRoOjE7Ii8+PGxpbmUgc3R5bGU9InN0cm9rZTojMDAwMDAwO3N0cm9rZS13aWR0aDoxOyIgeDE9IjIxOSIgeDI9IjIxOSIgeTE9IjI0NC4wMzEzIiB5Mj0iMjY0LjAzMTMiLz48cG9seWdvbiBmaWxsPSIjMDAwMDAwIiBwb2ludHM9IjIxNSwyNTQuMDMxMywyMTksMjY0LjAzMTMsMjIzLDI1NC4wMzEzLDIxOSwyNTguMDMxMyIgc3R5bGU9InN0cm9rZTojMDAwMDAwO3N0cm9rZS13aWR0aDoxOyIvPjxsaW5lIHN0eWxlPSJzdHJva2U6IzAwMDAwMDtzdHJva2Utd2lkdGg6MTsiIHgxPSIyMTkiIHgyPSIyMTkiIHkxPSIyOTYuODc1IiB5Mj0iMzE2Ljg3NSIvPjxwb2x5Z29uIGZpbGw9IiMwMDAwMDAiIHBvaW50cz0iMjE1LDMwNi44NzUsMjE5LDMxNi44NzUsMjIzLDMwNi44NzUsMjE5LDMxMC44NzUiIHN0eWxlPSJzdHJva2U6IzAwMDAwMDtzdHJva2Utd2lkdGg6MTsiLz48bGluZSBzdHlsZT0ic3Ryb2tlOiMwMDAwMDA7c3Ryb2tlLXdpZHRoOjE7IiB4MT0iNzUiIHgyPSI3NSIgeTE9IjE5MS4xODc1IiB5Mj0iMjExLjE4NzUiLz48cG9seWdvbiBmaWxsPSIjMDAwMDAwIiBwb2ludHM9IjcxLDIwMS4xODc1LDc1LDIxMS4xODc1LDc5LDIwMS4xODc1LDc1LDIwNS4xODc1IiBzdHlsZT0ic3Ryb2tlOiMwMDAwMDA7c3Ryb2tlLXdpZHRoOjE7Ii8+PGxpbmUgc3R5bGU9InN0cm9rZTojMDAwMDAwO3N0cm9rZS13aWR0aDoxOyIgeDE9IjIxOSIgeDI9IjIxOSIgeTE9IjE5MS4xODc1IiB5Mj0iMjExLjE4NzUiLz48cG9seWdvbiBmaWxsPSIjMDAwMDAwIiBwb2ludHM9IjIxNSwyMDEuMTg3NSwyMTksMjExLjE4NzUsMjIzLDIwMS4xODc1LDIxOSwyMDUuMTg3NSIgc3R5bGU9InN0cm9rZTojMDAwMDAwO3N0cm9rZS13aWR0aDoxOyIvPjxsaW5lIHN0eWxlPSJzdHJva2U6IzAwMDAwMDtzdHJva2Utd2lkdGg6MTsiIHgxPSI3NSIgeDI9Ijc1IiB5MT0iMzQ5LjcxODgiIHkyPSIzNjkuNzE4OCIvPjxwb2x5Z29uIGZpbGw9IiMwMDAwMDAiIHBvaW50cz0iNzEsMzU5LjcxODgsNzUsMzY5LjcxODgsNzksMzU5LjcxODgsNzUsMzYzLjcxODgiIHN0eWxlPSJzdHJva2U6IzAwMDAwMDtzdHJva2Utd2lkdGg6MTsiLz48bGluZSBzdHlsZT0ic3Ryb2tlOiMwMDAwMDA7c3Ryb2tlLXdpZHRoOjE7IiB4MT0iMjE5IiB4Mj0iMjE5IiB5MT0iMzQ5LjcxODgiIHkyPSIzNjkuNzE4OCIvPjxwb2x5Z29uIGZpbGw9IiMwMDAwMDAiIHBvaW50cz0iMjE1LDM1OS43MTg4LDIxOSwzNjkuNzE4OCwyMjMsMzU5LjcxODgsMjE5LDM2My43MTg4IiBzdHlsZT0ic3Ryb2tlOiMwMDAwMDA7c3Ryb2tlLXdpZHRoOjE7Ii8+PGxpbmUgc3R5bGU9InN0cm9rZTojMDAwMDAwO3N0cm9rZS13aWR0aDoxOyIgeDE9IjIyNSIgeDI9IjE0NyIgeTE9IjE2Ny42ODc1IiB5Mj0iMTY3LjY4NzUiLz48bGluZSBzdHlsZT0ic3Ryb2tlOiMwMDAwMDA7c3Ryb2tlLXdpZHRoOjE7IiB4MT0iMTQ3IiB4Mj0iMTQ3IiB5MT0iMTY3LjY4NzUiIHkyPSIxODkuNjg3NSIvPjxwb2x5Z29uIGZpbGw9IiMwMDAwMDAiIHBvaW50cz0iMTQzLDE3OS42ODc1LDE0NywxODkuNjg3NSwxNTEsMTc5LjY4NzUsMTQ3LDE4My42ODc1IiBzdHlsZT0ic3Ryb2tlOiMwMDAwMDA7c3Ryb2tlLXdpZHRoOjE7Ii8+PGxpbmUgc3R5bGU9InN0cm9rZTojMDAwMDAwO3N0cm9rZS13aWR0aDoxOyIgeDE9IjI4MiIgeDI9IjM2NiIgeTE9IjE2Ny42ODc1IiB5Mj0iMTY3LjY4NzUiLz48bGluZSBzdHlsZT0ic3Ryb2tlOiMwMDAwMDA7c3Ryb2tlLXdpZHRoOjE7IiB4MT0iMzY2IiB4Mj0iMzY2IiB5MT0iMTY3LjY4NzUiIHkyPSIxODkuNjg3NSIvPjxwb2x5Z29uIGZpbGw9IiMwMDAwMDAiIHBvaW50cz0iMzYyLDE3OS42ODc1LDM2NiwxODkuNjg3NSwzNzAsMTc5LjY4NzUsMzY2LDE4My42ODc1IiBzdHlsZT0ic3Ryb2tlOiMwMDAwMDA7c3Ryb2tlLXdpZHRoOjE7Ii8+PGxpbmUgc3R5bGU9InN0cm9rZTojMDAwMDAwO3N0cm9rZS13aWR0aDoxOyIgeDE9IjE0NyIgeDI9IjE0NyIgeTE9IjM3MS4yMTg4IiB5Mj0iMzg5LjIxODgiLz48bGluZSBzdHlsZT0ic3Ryb2tlOiMwMDAwMDA7c3Ryb2tlLXdpZHRoOjE7IiB4MT0iMTQ3IiB4Mj0iMjQxLjUiIHkxPSIzODkuMjE4OCIgeTI9IjM4OS4yMTg4Ii8+PHBvbHlnb24gZmlsbD0iIzAwMDAwMCIgcG9pbnRzPSIyMzEuNSwzODUuMjE4OCwyNDEuNSwzODkuMjE4OCwyMzEuNSwzOTMuMjE4OCwyMzUuNSwzODkuMjE4OCIgc3R5bGU9InN0cm9rZTojMDAwMDAwO3N0cm9rZS13aWR0aDoxOyIvPjxsaW5lIHN0eWxlPSJzdHJva2U6IzAwMDAwMDtzdHJva2Utd2lkdGg6MTsiIHgxPSIzNjYiIHgyPSIzNjYiIHkxPSIyMjIuNTMxMyIgeTI9IjM4OS4yMTg4Ii8+PGxpbmUgc3R5bGU9InN0cm9rZTojMDAwMDAwO3N0cm9rZS13aWR0aDoxOyIgeDE9IjM2NiIgeDI9IjI2NS41IiB5MT0iMzg5LjIxODgiIHkyPSIzODkuMjE4OCIvPjxwb2x5Z29uIGZpbGw9IiMwMDAwMDAiIHBvaW50cz0iMjc1LjUsMzg1LjIxODgsMjY1LjUsMzg5LjIxODgsMjc1LjUsMzkzLjIxODgsMjcxLjUsMzg5LjIxODgiIHN0eWxlPSJzdHJva2U6IzAwMDAwMDtzdHJva2Utd2lkdGg6MTsiLz48bGluZSBzdHlsZT0ic3Ryb2tlOiMwMDAwMDA7c3Ryb2tlLXdpZHRoOjE7IiB4MT0iMjUzLjUiIHgyPSIyNTMuNSIgeTE9IjEzNS42ODc1IiB5Mj0iMTU1LjY4NzUiLz48cG9seWdvbiBmaWxsPSIjMDAwMDAwIiBwb2ludHM9IjI0OS41LDE0NS42ODc1LDI1My41LDE1NS42ODc1LDI1Ny41LDE0NS42ODc1LDI1My41LDE0OS42ODc1IiBzdHlsZT0ic3Ryb2tlOiMwMDAwMDA7c3Ryb2tlLXdpZHRoOjE7Ii8+PGxpbmUgc3R5bGU9InN0cm9rZTojMDAwMDAwO3N0cm9rZS13aWR0aDoxOyIgeDE9IjI1My41IiB4Mj0iMjUzLjUiIHkxPSI0MDEuMjE4OCIgeTI9IjQyMS4yMTg4Ii8+PHBvbHlnb24gZmlsbD0iIzAwMDAwMCIgcG9pbnRzPSIyNDkuNSw0MTEuMjE4OCwyNTMuNSw0MjEuMjE4OCwyNTcuNSw0MTEuMjE4OCwyNTMuNSw0MTUuMjE4OCIgc3R5bGU9InN0cm9rZTojMDAwMDAwO3N0cm9rZS13aWR0aDoxOyIvPjxsaW5lIHN0eWxlPSJzdHJva2U6IzAwMDAwMDtzdHJva2Utd2lkdGg6MTsiIHgxPSIyNTMuNSIgeDI9IjI1My41IiB5MT0iNDU0LjA2MjUiIHkyPSI0NzQuMDYyNSIvPjxwb2x5Z29uIGZpbGw9IiMwMDAwMDAiIHBvaW50cz0iMjQ5LjUsNDY0LjA2MjUsMjUzLjUsNDc0LjA2MjUsMjU3LjUsNDY0LjA2MjUsMjUzLjUsNDY4LjA2MjUiIHN0eWxlPSJzdHJva2U6IzAwMDAwMDtzdHJva2Utd2lkdGg6MTsiLz48IS0tU1JDPVtYTEF4UmlDbTNEcHo1SG9KaU1pbzU3ZHFYSVBUY2RSZW5iWXFKS1lNMzhmZ2E3dnp2SUhqUlExZTltYnRucGtJS2hKaUVuSGllR3EtYjhzNGJhMGJLSDZfNktDTDlnVXRtVWlKUGRlWFo2eDBCcUoyT0hMUzREV3hCRXMwWVdzUVM2MVZHdUtrS1o2aUFmTlZNT19CTjU1QklEd1NCR3VEQV9zYzJzOThWZXlQUXRPRGJ6UEpaNzByMzVtcHZYZERWdGJWaVpfWUhmOW5jZzllS1Ntc2VNT19wdlU1WkhIWElweDE2cmhLWjc0NWFyVHFSQXdkZTBydmMxbm5NVzM0cGg3YzRzM3N1QmthaTRQNXNBT0ZqOVJkUC1BVURVTGJOZ25FcThlS0JJb0pMVngxSnJ3MERSOF9nbng5MVRVeHZHdVJqZlZRREtTTHRnVjg4eWtOcGcwSUYyamdZWnI2dGJwUWVfb0FDNTRzUUZrVVBwamlFdE9NRlRwYU5vM3A4YWt2b2VGVmFJVmZOSlJPMVM1LTZMNTN6bWEwXS0tPjwvZz48L3N2Zz4=;" vertex="1" parent="Jx06i-ONw801CrRce3De-27">
            <mxGeometry y="20" width="432" height="507" as="geometry" />
          </mxCell>
        </UserObject>
        <mxCell id="Jx06i-ONw801CrRce3De-22" value="Flowchart Zakat" style="swimlane;whiteSpace=wrap;html=1;" vertex="1" parent="Jx06i-ONw801CrRce3De-27">
          <mxGeometry width="430" height="530" as="geometry" />
        </mxCell>
        <mxCell id="Jx06i-ONw801CrRce3De-28" value="" style="group" vertex="1" connectable="0" parent="1">
          <mxGeometry x="30" y="680" width="584" height="610" as="geometry" />
        </mxCell>
        <UserObject label="" plantUmlData="{&#xa;  &quot;data&quot;: &quot;@startuml\nskinparam monochrome true\nskinparam defaultFontName Arial\nskinparam ArrowColor black\nskinparam shadowing false\n\nskinparam ActivityBackgroundColor white\nskinparam ActivityBorderColor black\nskinparam ActivityBorderThickness 1\n\nskinparam DiamondBackgroundColor white\nskinparam DiamondBorderColor black\nskinparam DiamondBorderThickness 1\n\nstart\n\n:Login;\n\n:Akses Menu Janji Temu;\n\nif (Valid?) then (ya)\n  split\n    :Lihat Jadwal Ustadz;\n    :Pilih Waktu;\n    :Input Data Jamaah;\n  split again\n    :Konfirmasi Ustadz;\n    if (Disetujui?) then (ya)\n      :Set Status Approved;\n      :Kirim Notifikasi;\n    else (tidak)\n      :Set Status Rejected;\n      :Kirim Alasan;\n    endif\n  end split\nelse (tidak)\n  :Tampilkan Error;\nendif\n\n:Update Kalender;\n\nstop\n@enduml&quot;,&#xa;  &quot;format&quot;: &quot;svg&quot;&#xa;}" id="Jx06i-ONw801CrRce3De-8">
          <mxCell style="shape=image;noLabel=1;verticalAlign=top;aspect=fixed;imageAspect=0;image=data:image/svg+xml,PHN2ZyB4bWxucz0iaHR0cDovL3d3dy53My5vcmcvMjAwMC9zdmciIHhtbG5zOnhsaW5rPSJodHRwOi8vd3d3LnczLm9yZy8xOTk5L3hsaW5rIiBjb250ZW50U3R5bGVUeXBlPSJ0ZXh0L2NzcyIgZGF0YS1kaWFncmFtLXR5cGU9IkFDVElWSVRZIiBoZWlnaHQ9IjU4OHB4IiBwcmVzZXJ2ZUFzcGVjdFJhdGlvPSJub25lIiBzdHlsZT0id2lkdGg6NTg0cHg7aGVpZ2h0OjU4OHB4O2JhY2tncm91bmQ6I0ZGRkZGRjsiIHZlcnNpb249IjEuMSIgdmlld0JveD0iMCAwIDU4NCA1ODgiIHdpZHRoPSI1ODRweCIgem9vbUFuZFBhbj0ibWFnbmlmeSI+PGRlZnMvPjxnPjxlbGxpcHNlIGN4PSIzODAiIGN5PSIyMCIgZmlsbD0iIzIyMjIyMiIgcng9IjEwIiByeT0iMTAiIHN0eWxlPSJzdHJva2U6IzIyMjIyMjtzdHJva2Utd2lkdGg6MTsiLz48cmVjdCBmaWxsPSIjRkZGRkZGIiBoZWlnaHQ9IjMyLjg0MzgiIHJ4PSIxMi41IiByeT0iMTIuNSIgc3R5bGU9InN0cm9rZTojMDAwMDAwO3N0cm9rZS13aWR0aDoxOyIgd2lkdGg9IjUwIiB4PSIzNTUiIHk9IjUwIi8+PHRleHQgZmlsbD0iIzAwMDAwMCIgZm9udC1mYW1pbHk9IkFyaWFsIiBmb250LXNpemU9IjEyIiBsZW5ndGhBZGp1c3Q9InNwYWNpbmciIHRleHRMZW5ndGg9IjMwIiB4PSIzNjUiIHk9IjcxLjM0MzgiPkxvZ2luPC90ZXh0PjxyZWN0IGZpbGw9IiNGRkZGRkYiIGhlaWdodD0iMzIuODQzOCIgcng9IjEyLjUiIHJ5PSIxMi41IiBzdHlsZT0ic3Ryb2tlOiMwMDAwMDA7c3Ryb2tlLXdpZHRoOjE7IiB3aWR0aD0iMTQ2IiB4PSIzMDciIHk9IjEwMi44NDM4Ii8+PHRleHQgZmlsbD0iIzAwMDAwMCIgZm9udC1mYW1pbHk9IkFyaWFsIiBmb250LXNpemU9IjEyIiBsZW5ndGhBZGp1c3Q9InNwYWNpbmciIHRleHRMZW5ndGg9IjEyNiIgeD0iMzE3IiB5PSIxMjQuMTg3NSI+QWtzZXMgTWVudSBKYW5qaSBUZW11PC90ZXh0Pjxwb2x5Z29uIGZpbGw9IiNGRkZGRkYiIHBvaW50cz0iMzYzLjUsMTU1LjY4NzUsMzk2LjUsMTU1LjY4NzUsNDA4LjUsMTY3LjY4NzUsMzk2LjUsMTc5LjY4NzUsMzYzLjUsMTc5LjY4NzUsMzUxLjUsMTY3LjY4NzUsMzYzLjUsMTU1LjY4NzUiIHN0eWxlPSJzdHJva2U6IzAwMDAwMDtzdHJva2Utd2lkdGg6MTsiLz48dGV4dCBmaWxsPSIjMDAwMDAwIiBmb250LWZhbWlseT0iQXJpYWwiIGZvbnQtc2l6ZT0iMTEiIGxlbmd0aEFkanVzdD0ic3BhY2luZyIgdGV4dExlbmd0aD0iMzMiIHg9IjM2My41IiB5PSIxNzIuMTk5MiI+VmFsaWQ/PC90ZXh0Pjx0ZXh0IGZpbGw9IiMwMDAwMDAiIGZvbnQtZmFtaWx5PSJBcmlhbCIgZm9udC1zaXplPSIxMSIgbGVuZ3RoQWRqdXN0PSJzcGFjaW5nIiB0ZXh0TGVuZ3RoPSIxMSIgeD0iMzQwLjUiIHk9IjE2Ni4zMTI1Ij55YTwvdGV4dD48dGV4dCBmaWxsPSIjMDAwMDAwIiBmb250LWZhbWlseT0iQXJpYWwiIGZvbnQtc2l6ZT0iMTEiIGxlbmd0aEFkanVzdD0ic3BhY2luZyIgdGV4dExlbmd0aD0iMjcuNSIgeD0iNDA4LjUiIHk9IjE2Ni4zMTI1Ij50aWRhazwvdGV4dD48bGluZSBzdHlsZT0ic3Ryb2tlOiMwMDAwMDA7c3Ryb2tlLXdpZHRoOjEuNTsiIHgxPSI3OCIgeDI9IjI5OSIgeTE9IjE4OS42ODc1IiB5Mj0iMTg5LjY4NzUiLz48cmVjdCBmaWxsPSIjRkZGRkZGIiBoZWlnaHQ9IjMyLjg0MzgiIHJ4PSIxMi41IiByeT0iMTIuNSIgc3R5bGU9InN0cm9rZTojMDAwMDAwO3N0cm9rZS13aWR0aDoxOyIgd2lkdGg9IjEzNCIgeD0iMTEiIHk9IjI0My4xODc1Ii8+PHRleHQgZmlsbD0iIzAwMDAwMCIgZm9udC1mYW1pbHk9IkFyaWFsIiBmb250LXNpemU9IjEyIiBsZW5ndGhBZGp1c3Q9InNwYWNpbmciIHRleHRMZW5ndGg9IjExNCIgeD0iMjEiIHk9IjI2NC41MzEzIj5MaWhhdCBKYWR3YWwgVXN0YWR6PC90ZXh0PjxyZWN0IGZpbGw9IiNGRkZGRkYiIGhlaWdodD0iMzIuODQzOCIgcng9IjEyLjUiIHJ5PSIxMi41IiBzdHlsZT0ic3Ryb2tlOiMwMDAwMDA7c3Ryb2tlLXdpZHRoOjE7IiB3aWR0aD0iODYiIHg9IjM1IiB5PSIzMTEuMDMxMyIvPjx0ZXh0IGZpbGw9IiMwMDAwMDAiIGZvbnQtZmFtaWx5PSJBcmlhbCIgZm9udC1zaXplPSIxMiIgbGVuZ3RoQWRqdXN0PSJzcGFjaW5nIiB0ZXh0TGVuZ3RoPSI2NiIgeD0iNDUiIHk9IjMzMi4zNzUiPlBpbGloIFdha3R1PC90ZXh0PjxyZWN0IGZpbGw9IiNGRkZGRkYiIGhlaWdodD0iMzIuODQzOCIgcng9IjEyLjUiIHJ5PSIxMi41IiBzdHlsZT0ic3Ryb2tlOiMwMDAwMDA7c3Ryb2tlLXdpZHRoOjE7IiB3aWR0aD0iMTIyIiB4PSIxNyIgeT0iMzY1Ljg3NSIvPjx0ZXh0IGZpbGw9IiMwMDAwMDAiIGZvbnQtZmFtaWx5PSJBcmlhbCIgZm9udC1zaXplPSIxMiIgbGVuZ3RoQWRqdXN0PSJzcGFjaW5nIiB0ZXh0TGVuZ3RoPSIxMDIiIHg9IjI3IiB5PSIzODcuMjE4OCI+SW5wdXQgRGF0YSBKYW1hYWg8L3RleHQ+PHJlY3QgZmlsbD0iI0ZGRkZGRiIgaGVpZ2h0PSIzMi44NDM4IiByeD0iMTIuNSIgcnk9IjEyLjUiIHN0eWxlPSJzdHJva2U6IzAwMDAwMDtzdHJva2Utd2lkdGg6MTsiIHdpZHRoPSIxMjIiIHg9IjIzOCIgeT0iMjExLjE4NzUiLz48dGV4dCBmaWxsPSIjMDAwMDAwIiBmb250LWZhbWlseT0iQXJpYWwiIGZvbnQtc2l6ZT0iMTIiIGxlbmd0aEFkanVzdD0ic3BhY2luZyIgdGV4dExlbmd0aD0iMTAyIiB4PSIyNDgiIHk9IjIzMi41MzEzIj5Lb25maXJtYXNpIFVzdGFkejwvdGV4dD48cG9seWdvbiBmaWxsPSIjRkZGRkZGIiBwb2ludHM9IjI3MS41LDI3OS4wMzEzLDMyNi41LDI3OS4wMzEzLDMzOC41LDI5MS4wMzEzLDMyNi41LDMwMy4wMzEzLDI3MS41LDMwMy4wMzEzLDI1OS41LDI5MS4wMzEzLDI3MS41LDI3OS4wMzEzIiBzdHlsZT0ic3Ryb2tlOiMwMDAwMDA7c3Ryb2tlLXdpZHRoOjE7Ii8+PHRleHQgZmlsbD0iIzAwMDAwMCIgZm9udC1mYW1pbHk9IkFyaWFsIiBmb250LXNpemU9IjExIiBsZW5ndGhBZGp1c3Q9InNwYWNpbmciIHRleHRMZW5ndGg9IjU1IiB4PSIyNzEuNSIgeT0iMjk1LjU0MyI+RGlzZXR1anVpPzwvdGV4dD48dGV4dCBmaWxsPSIjMDAwMDAwIiBmb250LWZhbWlseT0iQXJpYWwiIGZvbnQtc2l6ZT0iMTEiIGxlbmd0aEFkanVzdD0ic3BhY2luZyIgdGV4dExlbmd0aD0iMTEiIHg9IjI0OC41IiB5PSIyODkuNjU2MyI+eWE8L3RleHQ+PHRleHQgZmlsbD0iIzAwMDAwMCIgZm9udC1mYW1pbHk9IkFyaWFsIiBmb250LXNpemU9IjExIiBsZW5ndGhBZGp1c3Q9InNwYWNpbmciIHRleHRMZW5ndGg9IjI3LjUiIHg9IjMzOC41IiB5PSIyODkuNjU2MyI+dGlkYWs8L3RleHQ+PHJlY3QgZmlsbD0iI0ZGRkZGRiIgaGVpZ2h0PSIzMi44NDM4IiByeD0iMTIuNSIgcnk9IjEyLjUiIHN0eWxlPSJzdHJva2U6IzAwMDAwMDtzdHJva2Utd2lkdGg6MTsiIHdpZHRoPSIxMzQiIHg9IjE1NSIgeT0iMzEzLjAzMTMiLz48dGV4dCBmaWxsPSIjMDAwMDAwIiBmb250LWZhbWlseT0iQXJpYWwiIGZvbnQtc2l6ZT0iMTIiIGxlbmd0aEFkanVzdD0ic3BhY2luZyIgdGV4dExlbmd0aD0iMTE0IiB4PSIxNjUiIHk9IjMzNC4zNzUiPlNldCBTdGF0dXMgQXBwcm92ZWQ8L3RleHQ+PHJlY3QgZmlsbD0iI0ZGRkZGRiIgaGVpZ2h0PSIzMi44NDM4IiByeD0iMTIuNSIgcnk9IjEyLjUiIHN0eWxlPSJzdHJva2U6IzAwMDAwMDtzdHJva2Utd2lkdGg6MTsiIHdpZHRoPSIxMTYiIHg9IjE2NCIgeT0iMzY3Ljg3NSIvPjx0ZXh0IGZpbGw9IiMwMDAwMDAiIGZvbnQtZmFtaWx5PSJBcmlhbCIgZm9udC1zaXplPSIxMiIgbGVuZ3RoQWRqdXN0PSJzcGFjaW5nIiB0ZXh0TGVuZ3RoPSI5NiIgeD0iMTc0IiB5PSIzODkuMjE4OCI+S2lyaW0gTm90aWZpa2FzaTwvdGV4dD48cmVjdCBmaWxsPSIjRkZGRkZGIiBoZWlnaHQ9IjMyLjg0MzgiIHJ4PSIxMi41IiByeT0iMTIuNSIgc3R5bGU9InN0cm9rZTojMDAwMDAwO3N0cm9rZS13aWR0aDoxOyIgd2lkdGg9IjEzNCIgeD0iMzA5IiB5PSIzMTMuMDMxMyIvPjx0ZXh0IGZpbGw9IiMwMDAwMDAiIGZvbnQtZmFtaWx5PSJBcmlhbCIgZm9udC1zaXplPSIxMiIgbGVuZ3RoQWRqdXN0PSJzcGFjaW5nIiB0ZXh0TGVuZ3RoPSIxMTQiIHg9IjMxOSIgeT0iMzM0LjM3NSI+U2V0IFN0YXR1cyBSZWplY3RlZDwvdGV4dD48cmVjdCBmaWxsPSIjRkZGRkZGIiBoZWlnaHQ9IjMyLjg0MzgiIHJ4PSIxMi41IiByeT0iMTIuNSIgc3R5bGU9InN0cm9rZTojMDAwMDAwO3N0cm9rZS13aWR0aDoxOyIgd2lkdGg9IjkyIiB4PSIzMzAiIHk9IjM2Ny44NzUiLz48dGV4dCBmaWxsPSIjMDAwMDAwIiBmb250LWZhbWlseT0iQXJpYWwiIGZvbnQtc2l6ZT0iMTIiIGxlbmd0aEFkanVzdD0ic3BhY2luZyIgdGV4dExlbmd0aD0iNzIiIHg9IjM0MCIgeT0iMzg5LjIxODgiPktpcmltIEFsYXNhbjwvdGV4dD48cG9seWdvbiBmaWxsPSIjRkZGRkZGIiBwb2ludHM9IjI5OSw0MDYuNzE4OCwzMTEsNDE4LjcxODgsMjk5LDQzMC43MTg4LDI4Nyw0MTguNzE4OCwyOTksNDA2LjcxODgiIHN0eWxlPSJzdHJva2U6IzAwMDAwMDtzdHJva2Utd2lkdGg6MTsiLz48bGluZSBzdHlsZT0ic3Ryb2tlOiMwMDAwMDA7c3Ryb2tlLXdpZHRoOjEuNTsiIHgxPSI3OCIgeDI9IjI5OSIgeTE9IjQ1MC43MTg4IiB5Mj0iNDUwLjcxODgiLz48cmVjdCBmaWxsPSIjRkZGRkZGIiBoZWlnaHQ9IjMyLjg0MzgiIHJ4PSIxMi41IiByeT0iMTIuNSIgc3R5bGU9InN0cm9rZTojMDAwMDAwO3N0cm9rZS13aWR0aDoxOyIgd2lkdGg9IjExMCIgeD0iNDYzIiB5PSIxODkuNjg3NSIvPjx0ZXh0IGZpbGw9IiMwMDAwMDAiIGZvbnQtZmFtaWx5PSJBcmlhbCIgZm9udC1zaXplPSIxMiIgbGVuZ3RoQWRqdXN0PSJzcGFjaW5nIiB0ZXh0TGVuZ3RoPSI5MCIgeD0iNDczIiB5PSIyMTEuMDMxMyI+VGFtcGlsa2FuIEVycm9yPC90ZXh0Pjxwb2x5Z29uIGZpbGw9IiNGRkZGRkYiIHBvaW50cz0iMzgwLDQ1OC4yMTg4LDM5Miw0NzAuMjE4OCwzODAsNDgyLjIxODgsMzY4LDQ3MC4yMTg4LDM4MCw0NTguMjE4OCIgc3R5bGU9InN0cm9rZTojMDAwMDAwO3N0cm9rZS13aWR0aDoxOyIvPjxyZWN0IGZpbGw9IiNGRkZGRkYiIGhlaWdodD0iMzIuODQzOCIgcng9IjEyLjUiIHJ5PSIxMi41IiBzdHlsZT0ic3Ryb2tlOiMwMDAwMDA7c3Ryb2tlLXdpZHRoOjE7IiB3aWR0aD0iMTEwIiB4PSIzMjUiIHk9IjUwMi4yMTg4Ii8+PHRleHQgZmlsbD0iIzAwMDAwMCIgZm9udC1mYW1pbHk9IkFyaWFsIiBmb250LXNpemU9IjEyIiBsZW5ndGhBZGp1c3Q9InNwYWNpbmciIHRleHRMZW5ndGg9IjkwIiB4PSIzMzUiIHk9IjUyMy41NjI1Ij5VcGRhdGUgS2FsZW5kZXI8L3RleHQ+PGVsbGlwc2UgY3g9IjM4MCIgY3k9IjU2Ni4wNjI1IiBmaWxsPSJub25lIiByeD0iMTEiIHJ5PSIxMSIgc3R5bGU9InN0cm9rZTojMjIyMjIyO3N0cm9rZS13aWR0aDoxOyIvPjxlbGxpcHNlIGN4PSIzODAiIGN5PSI1NjYuMDYyNSIgZmlsbD0iIzIyMjIyMiIgcng9IjYiIHJ5PSI2IiBzdHlsZT0ic3Ryb2tlOiMyMjIyMjI7c3Ryb2tlLXdpZHRoOjE7Ii8+PGxpbmUgc3R5bGU9InN0cm9rZTojMDAwMDAwO3N0cm9rZS13aWR0aDoxOyIgeDE9IjM4MCIgeDI9IjM4MCIgeTE9IjMwIiB5Mj0iNTAiLz48cG9seWdvbiBmaWxsPSIjMDAwMDAwIiBwb2ludHM9IjM3Niw0MCwzODAsNTAsMzg0LDQwLDM4MCw0NCIgc3R5bGU9InN0cm9rZTojMDAwMDAwO3N0cm9rZS13aWR0aDoxOyIvPjxsaW5lIHN0eWxlPSJzdHJva2U6IzAwMDAwMDtzdHJva2Utd2lkdGg6MTsiIHgxPSIzODAiIHgyPSIzODAiIHkxPSI4Mi44NDM4IiB5Mj0iMTAyLjg0MzgiLz48cG9seWdvbiBmaWxsPSIjMDAwMDAwIiBwb2ludHM9IjM3Niw5Mi44NDM4LDM4MCwxMDIuODQzOCwzODQsOTIuODQzOCwzODAsOTYuODQzOCIgc3R5bGU9InN0cm9rZTojMDAwMDAwO3N0cm9rZS13aWR0aDoxOyIvPjxsaW5lIHN0eWxlPSJzdHJva2U6IzAwMDAwMDtzdHJva2Utd2lkdGg6MTsiIHgxPSI3OCIgeDI9Ijc4IiB5MT0iMjc2LjAzMTMiIHkyPSIzMTEuMDMxMyIvPjxwb2x5Z29uIGZpbGw9IiMwMDAwMDAiIHBvaW50cz0iNzQsMzAxLjAzMTMsNzgsMzExLjAzMTMsODIsMzAxLjAzMTMsNzgsMzA1LjAzMTMiIHN0eWxlPSJzdHJva2U6IzAwMDAwMDtzdHJva2Utd2lkdGg6MTsiLz48bGluZSBzdHlsZT0ic3Ryb2tlOiMwMDAwMDA7c3Ryb2tlLXdpZHRoOjE7IiB4MT0iNzgiIHgyPSI3OCIgeTE9IjM0My44NzUiIHkyPSIzNjUuODc1Ii8+PHBvbHlnb24gZmlsbD0iIzAwMDAwMCIgcG9pbnRzPSI3NCwzNTUuODc1LDc4LDM2NS44NzUsODIsMzU1Ljg3NSw3OCwzNTkuODc1IiBzdHlsZT0ic3Ryb2tlOiMwMDAwMDA7c3Ryb2tlLXdpZHRoOjE7Ii8+PGxpbmUgc3R5bGU9InN0cm9rZTojMDAwMDAwO3N0cm9rZS13aWR0aDoxOyIgeDE9IjIyMiIgeDI9IjIyMiIgeTE9IjM0NS44NzUiIHkyPSIzNjcuODc1Ii8+PHBvbHlnb24gZmlsbD0iIzAwMDAwMCIgcG9pbnRzPSIyMTgsMzU3Ljg3NSwyMjIsMzY3Ljg3NSwyMjYsMzU3Ljg3NSwyMjIsMzYxLjg3NSIgc3R5bGU9InN0cm9rZTojMDAwMDAwO3N0cm9rZS13aWR0aDoxOyIvPjxsaW5lIHN0eWxlPSJzdHJva2U6IzAwMDAwMDtzdHJva2Utd2lkdGg6MTsiIHgxPSIzNzYiIHgyPSIzNzYiIHkxPSIzNDUuODc1IiB5Mj0iMzY3Ljg3NSIvPjxwb2x5Z29uIGZpbGw9IiMwMDAwMDAiIHBvaW50cz0iMzcyLDM1Ny44NzUsMzc2LDM2Ny44NzUsMzgwLDM1Ny44NzUsMzc2LDM2MS44NzUiIHN0eWxlPSJzdHJva2U6IzAwMDAwMDtzdHJva2Utd2lkdGg6MTsiLz48bGluZSBzdHlsZT0ic3Ryb2tlOiMwMDAwMDA7c3Ryb2tlLXdpZHRoOjE7IiB4MT0iMjU5LjUiIHgyPSIyMjIiIHkxPSIyOTEuMDMxMyIgeTI9IjI5MS4wMzEzIi8+PGxpbmUgc3R5bGU9InN0cm9rZTojMDAwMDAwO3N0cm9rZS13aWR0aDoxOyIgeDE9IjIyMiIgeDI9IjIyMiIgeTE9IjI5MS4wMzEzIiB5Mj0iMzEzLjAzMTMiLz48cG9seWdvbiBmaWxsPSIjMDAwMDAwIiBwb2ludHM9IjIxOCwzMDMuMDMxMywyMjIsMzEzLjAzMTMsMjI2LDMwMy4wMzEzLDIyMiwzMDcuMDMxMyIgc3R5bGU9InN0cm9rZTojMDAwMDAwO3N0cm9rZS13aWR0aDoxOyIvPjxsaW5lIHN0eWxlPSJzdHJva2U6IzAwMDAwMDtzdHJva2Utd2lkdGg6MTsiIHgxPSIzMzguNSIgeDI9IjM3NiIgeTE9IjI5MS4wMzEzIiB5Mj0iMjkxLjAzMTMiLz48bGluZSBzdHlsZT0ic3Ryb2tlOiMwMDAwMDA7c3Ryb2tlLXdpZHRoOjE7IiB4MT0iMzc2IiB4Mj0iMzc2IiB5MT0iMjkxLjAzMTMiIHkyPSIzMTMuMDMxMyIvPjxwb2x5Z29uIGZpbGw9IiMwMDAwMDAiIHBvaW50cz0iMzcyLDMwMy4wMzEzLDM3NiwzMTMuMDMxMywzODAsMzAzLjAzMTMsMzc2LDMwNy4wMzEzIiBzdHlsZT0ic3Ryb2tlOiMwMDAwMDA7c3Ryb2tlLXdpZHRoOjE7Ii8+PGxpbmUgc3R5bGU9InN0cm9rZTojMDAwMDAwO3N0cm9rZS13aWR0aDoxOyIgeDE9IjIyMiIgeDI9IjIyMiIgeTE9IjQwMC43MTg4IiB5Mj0iNDE4LjcxODgiLz48bGluZSBzdHlsZT0ic3Ryb2tlOiMwMDAwMDA7c3Ryb2tlLXdpZHRoOjE7IiB4MT0iMjIyIiB4Mj0iMjg3IiB5MT0iNDE4LjcxODgiIHkyPSI0MTguNzE4OCIvPjxwb2x5Z29uIGZpbGw9IiMwMDAwMDAiIHBvaW50cz0iMjc3LDQxNC43MTg4LDI4Nyw0MTguNzE4OCwyNzcsNDIyLjcxODgsMjgxLDQxOC43MTg4IiBzdHlsZT0ic3Ryb2tlOiMwMDAwMDA7c3Ryb2tlLXdpZHRoOjE7Ii8+PGxpbmUgc3R5bGU9InN0cm9rZTojMDAwMDAwO3N0cm9rZS13aWR0aDoxOyIgeDE9IjM3NiIgeDI9IjM3NiIgeTE9IjQwMC43MTg4IiB5Mj0iNDE4LjcxODgiLz48bGluZSBzdHlsZT0ic3Ryb2tlOiMwMDAwMDA7c3Ryb2tlLXdpZHRoOjE7IiB4MT0iMzc2IiB4Mj0iMzExIiB5MT0iNDE4LjcxODgiIHkyPSI0MTguNzE4OCIvPjxwb2x5Z29uIGZpbGw9IiMwMDAwMDAiIHBvaW50cz0iMzIxLDQxNC43MTg4LDMxMSw0MTguNzE4OCwzMjEsNDIyLjcxODgsMzE3LDQxOC43MTg4IiBzdHlsZT0ic3Ryb2tlOiMwMDAwMDA7c3Ryb2tlLXdpZHRoOjE7Ii8+PGxpbmUgc3R5bGU9InN0cm9rZTojMDAwMDAwO3N0cm9rZS13aWR0aDoxOyIgeDE9IjI5OSIgeDI9IjI5OSIgeTE9IjI0NC4wMzEzIiB5Mj0iMjc5LjAzMTMiLz48cG9seWdvbiBmaWxsPSIjMDAwMDAwIiBwb2ludHM9IjI5NSwyNjkuMDMxMywyOTksMjc5LjAzMTMsMzAzLDI2OS4wMzEzLDI5OSwyNzMuMDMxMyIgc3R5bGU9InN0cm9rZTojMDAwMDAwO3N0cm9rZS13aWR0aDoxOyIvPjxsaW5lIHN0eWxlPSJzdHJva2U6IzAwMDAwMDtzdHJva2Utd2lkdGg6MTsiIHgxPSI3OCIgeDI9Ijc4IiB5MT0iMTkxLjE4NzUiIHkyPSIyNDMuMTg3NSIvPjxwb2x5Z29uIGZpbGw9IiMwMDAwMDAiIHBvaW50cz0iNzQsMjMzLjE4NzUsNzgsMjQzLjE4NzUsODIsMjMzLjE4NzUsNzgsMjM3LjE4NzUiIHN0eWxlPSJzdHJva2U6IzAwMDAwMDtzdHJva2Utd2lkdGg6MTsiLz48bGluZSBzdHlsZT0ic3Ryb2tlOiMwMDAwMDA7c3Ryb2tlLXdpZHRoOjE7IiB4MT0iMjk5IiB4Mj0iMjk5IiB5MT0iMTkxLjE4NzUiIHkyPSIyMTEuMTg3NSIvPjxwb2x5Z29uIGZpbGw9IiMwMDAwMDAiIHBvaW50cz0iMjk1LDIwMS4xODc1LDI5OSwyMTEuMTg3NSwzMDMsMjAxLjE4NzUsMjk5LDIwNS4xODc1IiBzdHlsZT0ic3Ryb2tlOiMwMDAwMDA7c3Ryb2tlLXdpZHRoOjE7Ii8+PGxpbmUgc3R5bGU9InN0cm9rZTojMDAwMDAwO3N0cm9rZS13aWR0aDoxOyIgeDE9Ijc4IiB4Mj0iNzgiIHkxPSIzOTguNzE4OCIgeTI9IjQ1MC43MTg4Ii8+PHBvbHlnb24gZmlsbD0iIzAwMDAwMCIgcG9pbnRzPSI3NCw0NDAuNzE4OCw3OCw0NTAuNzE4OCw4Miw0NDAuNzE4OCw3OCw0NDQuNzE4OCIgc3R5bGU9InN0cm9rZTojMDAwMDAwO3N0cm9rZS13aWR0aDoxOyIvPjxsaW5lIHN0eWxlPSJzdHJva2U6IzAwMDAwMDtzdHJva2Utd2lkdGg6MTsiIHgxPSIyOTkiIHgyPSIyOTkiIHkxPSI0MzAuNzE4OCIgeTI9IjQ1MC43MTg4Ii8+PHBvbHlnb24gZmlsbD0iIzAwMDAwMCIgcG9pbnRzPSIyOTUsNDQwLjcxODgsMjk5LDQ1MC43MTg4LDMwMyw0NDAuNzE4OCwyOTksNDQ0LjcxODgiIHN0eWxlPSJzdHJva2U6IzAwMDAwMDtzdHJva2Utd2lkdGg6MTsiLz48bGluZSBzdHlsZT0ic3Ryb2tlOiMwMDAwMDA7c3Ryb2tlLXdpZHRoOjE7IiB4MT0iMzUxLjUiIHgyPSIyMTgiIHkxPSIxNjcuNjg3NSIgeTI9IjE2Ny42ODc1Ii8+PGxpbmUgc3R5bGU9InN0cm9rZTojMDAwMDAwO3N0cm9rZS13aWR0aDoxOyIgeDE9IjIxOCIgeDI9IjIxOCIgeTE9IjE2Ny42ODc1IiB5Mj0iMTg5LjY4NzUiLz48cG9seWdvbiBmaWxsPSIjMDAwMDAwIiBwb2ludHM9IjIxNCwxNzkuNjg3NSwyMTgsMTg5LjY4NzUsMjIyLDE3OS42ODc1LDIxOCwxODMuNjg3NSIgc3R5bGU9InN0cm9rZTojMDAwMDAwO3N0cm9rZS13aWR0aDoxOyIvPjxsaW5lIHN0eWxlPSJzdHJva2U6IzAwMDAwMDtzdHJva2Utd2lkdGg6MTsiIHgxPSI0MDguNSIgeDI9IjUxOCIgeTE9IjE2Ny42ODc1IiB5Mj0iMTY3LjY4NzUiLz48bGluZSBzdHlsZT0ic3Ryb2tlOiMwMDAwMDA7c3Ryb2tlLXdpZHRoOjE7IiB4MT0iNTE4IiB4Mj0iNTE4IiB5MT0iMTY3LjY4NzUiIHkyPSIxODkuNjg3NSIvPjxwb2x5Z29uIGZpbGw9IiMwMDAwMDAiIHBvaW50cz0iNTE0LDE3OS42ODc1LDUxOCwxODkuNjg3NSw1MjIsMTc5LjY4NzUsNTE4LDE4My42ODc1IiBzdHlsZT0ic3Ryb2tlOiMwMDAwMDA7c3Ryb2tlLXdpZHRoOjE7Ii8+PGxpbmUgc3R5bGU9InN0cm9rZTojMDAwMDAwO3N0cm9rZS13aWR0aDoxOyIgeDE9IjIxOCIgeDI9IjIxOCIgeTE9IjQ1Mi4yMTg4IiB5Mj0iNDcwLjIxODgiLz48bGluZSBzdHlsZT0ic3Ryb2tlOiMwMDAwMDA7c3Ryb2tlLXdpZHRoOjE7IiB4MT0iMjE4IiB4Mj0iMzY4IiB5MT0iNDcwLjIxODgiIHkyPSI0NzAuMjE4OCIvPjxwb2x5Z29uIGZpbGw9IiMwMDAwMDAiIHBvaW50cz0iMzU4LDQ2Ni4yMTg4LDM2OCw0NzAuMjE4OCwzNTgsNDc0LjIxODgsMzYyLDQ3MC4yMTg4IiBzdHlsZT0ic3Ryb2tlOiMwMDAwMDA7c3Ryb2tlLXdpZHRoOjE7Ii8+PGxpbmUgc3R5bGU9InN0cm9rZTojMDAwMDAwO3N0cm9rZS13aWR0aDoxOyIgeDE9IjUxOCIgeDI9IjUxOCIgeTE9IjIyMi41MzEzIiB5Mj0iNDcwLjIxODgiLz48bGluZSBzdHlsZT0ic3Ryb2tlOiMwMDAwMDA7c3Ryb2tlLXdpZHRoOjE7IiB4MT0iNTE4IiB4Mj0iMzkyIiB5MT0iNDcwLjIxODgiIHkyPSI0NzAuMjE4OCIvPjxwb2x5Z29uIGZpbGw9IiMwMDAwMDAiIHBvaW50cz0iNDAyLDQ2Ni4yMTg4LDM5Miw0NzAuMjE4OCw0MDIsNDc0LjIxODgsMzk4LDQ3MC4yMTg4IiBzdHlsZT0ic3Ryb2tlOiMwMDAwMDA7c3Ryb2tlLXdpZHRoOjE7Ii8+PGxpbmUgc3R5bGU9InN0cm9rZTojMDAwMDAwO3N0cm9rZS13aWR0aDoxOyIgeDE9IjM4MCIgeDI9IjM4MCIgeTE9IjEzNS42ODc1IiB5Mj0iMTU1LjY4NzUiLz48cG9seWdvbiBmaWxsPSIjMDAwMDAwIiBwb2ludHM9IjM3NiwxNDUuNjg3NSwzODAsMTU1LjY4NzUsMzg0LDE0NS42ODc1LDM4MCwxNDkuNjg3NSIgc3R5bGU9InN0cm9rZTojMDAwMDAwO3N0cm9rZS13aWR0aDoxOyIvPjxsaW5lIHN0eWxlPSJzdHJva2U6IzAwMDAwMDtzdHJva2Utd2lkdGg6MTsiIHgxPSIzODAiIHgyPSIzODAiIHkxPSI0ODIuMjE4OCIgeTI9IjUwMi4yMTg4Ii8+PHBvbHlnb24gZmlsbD0iIzAwMDAwMCIgcG9pbnRzPSIzNzYsNDkyLjIxODgsMzgwLDUwMi4yMTg4LDM4NCw0OTIuMjE4OCwzODAsNDk2LjIxODgiIHN0eWxlPSJzdHJva2U6IzAwMDAwMDtzdHJva2Utd2lkdGg6MTsiLz48bGluZSBzdHlsZT0ic3Ryb2tlOiMwMDAwMDA7c3Ryb2tlLXdpZHRoOjE7IiB4MT0iMzgwIiB4Mj0iMzgwIiB5MT0iNTM1LjA2MjUiIHkyPSI1NTUuMDYyNSIvPjxwb2x5Z29uIGZpbGw9IiMwMDAwMDAiIHBvaW50cz0iMzc2LDU0NS4wNjI1LDM4MCw1NTUuMDYyNSwzODQsNTQ1LjA2MjUsMzgwLDU0OS4wNjI1IiBzdHlsZT0ic3Ryb2tlOiMwMDAwMDA7c3Ryb2tlLXdpZHRoOjE7Ii8+PCEtLVNSQz1bWFA4ekp5Q200OFJ0XzhlUnN2NHI2TDJXODQ1QlhNV0J5bjVWYWNpU0V4QkZaU2dsbnBHaklnNjJvUFFWenlEVmxjN0plU0NNTWNqaUtKbFI0ZVdCYkZYbGVnWjRlRU5VNmJiWW5CYlpyMkVVRXNWeE13a2pXdFVESEpEMmxhUGJVcE9MYkFXejlNRE44Um5ac1R6NEgtTGlDNmc4dzZpTWtnSXBKZjZ4TjdFa01UVFNEOFF5WHdqbnVPbW5kYjd6cnRVSV9MNXQ5WmJsNHRJSTlFZDJMY29vRUNhUkpud1VvMEh1SEJEYk01Q1I4azBJOWctZU1MckZHTWVvQ0RkWkQwN21kTVE5OHEyd3UxZWJrYklGNlpPbk1OcmEwdGJjcEpNeU9JRlhrRjlXa1kwbUd5NWVRMTdoeDlHNU0yNlJHSk10ZmNKTmVrVXBsQS16cERZSlg2dFc3X2l2LTVPYWkxQUt1MjdsRWNUdGZCOEpjeEZaNWZQTWtFR2M5Vy0wdWNGM0g1WFhTb2RiWFJQS29BLUtOQUQ3U3FtbVlpbGFDMXVsdktUY2tpUXNPenNXV1JsdTBMc00zOU9hdE5HQVhNMkVFZ3ZHMUY1UFJGUzldLS0+PC9nPjwvc3ZnPg==;" vertex="1" parent="Jx06i-ONw801CrRce3De-28">
            <mxGeometry y="20" width="584" height="588" as="geometry" />
          </mxCell>
        </UserObject>
        <mxCell id="Jx06i-ONw801CrRce3De-9" value="Flowchart Janji Temu" style="swimlane;whiteSpace=wrap;html=1;" vertex="1" parent="Jx06i-ONw801CrRce3De-28">
          <mxGeometry width="580" height="610" as="geometry" />
        </mxCell>
        <mxCell id="Jx06i-ONw801CrRce3De-30" value="" style="group" vertex="1" connectable="0" parent="1">
          <mxGeometry x="760" y="750" width="514" height="560" as="geometry" />
        </mxCell>
        <UserObject label="" plantUmlData="{&#xa;  &quot;data&quot;: &quot;@startuml\nskinparam monochrome true\nskinparam defaultFontName Arial\nskinparam ArrowColor black\nskinparam shadowing false\n\nskinparam ActivityBackgroundColor white\nskinparam ActivityBorderColor black\nskinparam ActivityBorderThickness 1\n\nskinparam DiamondBackgroundColor white\nskinparam DiamondBorderColor black\nskinparam DiamondBorderThickness 1\n\nstart\n\n:Login;\n\n:Akses Menu Kas;\n\nif (Valid?) then (ya)\n  split\n    :Input Pemasukan;\n    :Pilih Kategori;\n    :Simpan Pemasukan;\n  split again\n    :Input Pengeluaran;\n    :Pilih Kategori;\n    :Simpan Pengeluaran;\n  split again\n    :Lihat Laporan;\n    :Filter Data;\n  end split\nelse (tidak)\n  :Tampilkan Error;\nendif\n\n:Update Saldo;\n\nstop\n@enduml\n&quot;,&#xa;  &quot;format&quot;: &quot;svg&quot;&#xa;}" id="Jx06i-ONw801CrRce3De-12">
          <mxCell style="shape=image;noLabel=1;verticalAlign=top;aspect=fixed;imageAspect=0;image=data:image/svg+xml,PHN2ZyB4bWxucz0iaHR0cDovL3d3dy53My5vcmcvMjAwMC9zdmciIHhtbG5zOnhsaW5rPSJodHRwOi8vd3d3LnczLm9yZy8xOTk5L3hsaW5rIiBjb250ZW50U3R5bGVUeXBlPSJ0ZXh0L2NzcyIgZGF0YS1kaWFncmFtLXR5cGU9IkFDVElWSVRZIiBoZWlnaHQ9IjUzN3B4IiBwcmVzZXJ2ZUFzcGVjdFJhdGlvPSJub25lIiBzdHlsZT0id2lkdGg6NTE0cHg7aGVpZ2h0OjUzN3B4O2JhY2tncm91bmQ6I0ZGRkZGRjsiIHZlcnNpb249IjEuMSIgdmlld0JveD0iMCAwIDUxNCA1MzciIHdpZHRoPSI1MTRweCIgem9vbUFuZFBhbj0ibWFnbmlmeSI+PGRlZnMvPjxnPjxlbGxpcHNlIGN4PSIzMjciIGN5PSIyMCIgZmlsbD0iIzIyMjIyMiIgcng9IjEwIiByeT0iMTAiIHN0eWxlPSJzdHJva2U6IzIyMjIyMjtzdHJva2Utd2lkdGg6MTsiLz48cmVjdCBmaWxsPSIjRkZGRkZGIiBoZWlnaHQ9IjMyLjg0MzgiIHJ4PSIxMi41IiByeT0iMTIuNSIgc3R5bGU9InN0cm9rZTojMDAwMDAwO3N0cm9rZS13aWR0aDoxOyIgd2lkdGg9IjUwIiB4PSIzMDIiIHk9IjUwIi8+PHRleHQgZmlsbD0iIzAwMDAwMCIgZm9udC1mYW1pbHk9IkFyaWFsIiBmb250LXNpemU9IjEyIiBsZW5ndGhBZGp1c3Q9InNwYWNpbmciIHRleHRMZW5ndGg9IjMwIiB4PSIzMTIiIHk9IjcxLjM0MzgiPkxvZ2luPC90ZXh0PjxyZWN0IGZpbGw9IiNGRkZGRkYiIGhlaWdodD0iMzIuODQzOCIgcng9IjEyLjUiIHJ5PSIxMi41IiBzdHlsZT0ic3Ryb2tlOiMwMDAwMDA7c3Ryb2tlLXdpZHRoOjE7IiB3aWR0aD0iMTA0IiB4PSIyNzUiIHk9IjEwMi44NDM4Ii8+PHRleHQgZmlsbD0iIzAwMDAwMCIgZm9udC1mYW1pbHk9IkFyaWFsIiBmb250LXNpemU9IjEyIiBsZW5ndGhBZGp1c3Q9InNwYWNpbmciIHRleHRMZW5ndGg9Ijg0IiB4PSIyODUiIHk9IjEyNC4xODc1Ij5Ba3NlcyBNZW51IEthczwvdGV4dD48cG9seWdvbiBmaWxsPSIjRkZGRkZGIiBwb2ludHM9IjMxMC41LDE1NS42ODc1LDM0My41LDE1NS42ODc1LDM1NS41LDE2Ny42ODc1LDM0My41LDE3OS42ODc1LDMxMC41LDE3OS42ODc1LDI5OC41LDE2Ny42ODc1LDMxMC41LDE1NS42ODc1IiBzdHlsZT0ic3Ryb2tlOiMwMDAwMDA7c3Ryb2tlLXdpZHRoOjE7Ii8+PHRleHQgZmlsbD0iIzAwMDAwMCIgZm9udC1mYW1pbHk9IkFyaWFsIiBmb250LXNpemU9IjExIiBsZW5ndGhBZGp1c3Q9InNwYWNpbmciIHRleHRMZW5ndGg9IjMzIiB4PSIzMTAuNSIgeT0iMTcyLjE5OTIiPlZhbGlkPzwvdGV4dD48dGV4dCBmaWxsPSIjMDAwMDAwIiBmb250LWZhbWlseT0iQXJpYWwiIGZvbnQtc2l6ZT0iMTEiIGxlbmd0aEFkanVzdD0ic3BhY2luZyIgdGV4dExlbmd0aD0iMTEiIHg9IjI4Ny41IiB5PSIxNjYuMzEyNSI+eWE8L3RleHQ+PHRleHQgZmlsbD0iIzAwMDAwMCIgZm9udC1mYW1pbHk9IkFyaWFsIiBmb250LXNpemU9IjExIiBsZW5ndGhBZGp1c3Q9InNwYWNpbmciIHRleHRMZW5ndGg9IjI3LjUiIHg9IjM1NS41IiB5PSIxNjYuMzEyNSI+dGlkYWs8L3RleHQ+PGxpbmUgc3R5bGU9InN0cm9rZTojMDAwMDAwO3N0cm9rZS13aWR0aDoxLjU7IiB4MT0iNjkiIHgyPSIzMzMiIHkxPSIxODkuNjg3NSIgeTI9IjE4OS42ODc1Ii8+PHJlY3QgZmlsbD0iI0ZGRkZGRiIgaGVpZ2h0PSIzMi44NDM4IiByeD0iMTIuNSIgcnk9IjEyLjUiIHN0eWxlPSJzdHJva2U6IzAwMDAwMDtzdHJva2Utd2lkdGg6MTsiIHdpZHRoPSIxMTAiIHg9IjE0IiB5PSIyMTEuMTg3NSIvPjx0ZXh0IGZpbGw9IiMwMDAwMDAiIGZvbnQtZmFtaWx5PSJBcmlhbCIgZm9udC1zaXplPSIxMiIgbGVuZ3RoQWRqdXN0PSJzcGFjaW5nIiB0ZXh0TGVuZ3RoPSI5MCIgeD0iMjQiIHk9IjIzMi41MzEzIj5JbnB1dCBQZW1hc3VrYW48L3RleHQ+PHJlY3QgZmlsbD0iI0ZGRkZGRiIgaGVpZ2h0PSIzMi44NDM4IiByeD0iMTIuNSIgcnk9IjEyLjUiIHN0eWxlPSJzdHJva2U6IzAwMDAwMDtzdHJva2Utd2lkdGg6MTsiIHdpZHRoPSIxMDQiIHg9IjE3IiB5PSIyNzkuMDMxMyIvPjx0ZXh0IGZpbGw9IiMwMDAwMDAiIGZvbnQtZmFtaWx5PSJBcmlhbCIgZm9udC1zaXplPSIxMiIgbGVuZ3RoQWRqdXN0PSJzcGFjaW5nIiB0ZXh0TGVuZ3RoPSI4NCIgeD0iMjciIHk9IjMwMC4zNzUiPlBpbGloIEthdGVnb3JpPC90ZXh0PjxyZWN0IGZpbGw9IiNGRkZGRkYiIGhlaWdodD0iMzIuODQzOCIgcng9IjEyLjUiIHJ5PSIxMi41IiBzdHlsZT0ic3Ryb2tlOiMwMDAwMDA7c3Ryb2tlLXdpZHRoOjE7IiB3aWR0aD0iMTE2IiB4PSIxMSIgeT0iMzQ2Ljg3NSIvPjx0ZXh0IGZpbGw9IiMwMDAwMDAiIGZvbnQtZmFtaWx5PSJBcmlhbCIgZm9udC1zaXplPSIxMiIgbGVuZ3RoQWRqdXN0PSJzcGFjaW5nIiB0ZXh0TGVuZ3RoPSI5NiIgeD0iMjEiIHk9IjM2OC4yMTg4Ij5TaW1wYW4gUGVtYXN1a2FuPC90ZXh0PjxyZWN0IGZpbGw9IiNGRkZGRkYiIGhlaWdodD0iMzIuODQzOCIgcng9IjEyLjUiIHJ5PSIxMi41IiBzdHlsZT0ic3Ryb2tlOiMwMDAwMDA7c3Ryb2tlLXdpZHRoOjE7IiB3aWR0aD0iMTIyIiB4PSIxNDAiIHk9IjIxMS4xODc1Ii8+PHRleHQgZmlsbD0iIzAwMDAwMCIgZm9udC1mYW1pbHk9IkFyaWFsIiBmb250LXNpemU9IjEyIiBsZW5ndGhBZGp1c3Q9InNwYWNpbmciIHRleHRMZW5ndGg9IjEwMiIgeD0iMTUwIiB5PSIyMzIuNTMxMyI+SW5wdXQgUGVuZ2VsdWFyYW48L3RleHQ+PHJlY3QgZmlsbD0iI0ZGRkZGRiIgaGVpZ2h0PSIzMi44NDM4IiByeD0iMTIuNSIgcnk9IjEyLjUiIHN0eWxlPSJzdHJva2U6IzAwMDAwMDtzdHJva2Utd2lkdGg6MTsiIHdpZHRoPSIxMDQiIHg9IjE0OSIgeT0iMjc5LjAzMTMiLz48dGV4dCBmaWxsPSIjMDAwMDAwIiBmb250LWZhbWlseT0iQXJpYWwiIGZvbnQtc2l6ZT0iMTIiIGxlbmd0aEFkanVzdD0ic3BhY2luZyIgdGV4dExlbmd0aD0iODQiIHg9IjE1OSIgeT0iMzAwLjM3NSI+UGlsaWggS2F0ZWdvcmk8L3RleHQ+PHJlY3QgZmlsbD0iI0ZGRkZGRiIgaGVpZ2h0PSIzMi44NDM4IiByeD0iMTIuNSIgcnk9IjEyLjUiIHN0eWxlPSJzdHJva2U6IzAwMDAwMDtzdHJva2Utd2lkdGg6MTsiIHdpZHRoPSIxMjgiIHg9IjEzNyIgeT0iMzQ2Ljg3NSIvPjx0ZXh0IGZpbGw9IiMwMDAwMDAiIGZvbnQtZmFtaWx5PSJBcmlhbCIgZm9udC1zaXplPSIxMiIgbGVuZ3RoQWRqdXN0PSJzcGFjaW5nIiB0ZXh0TGVuZ3RoPSIxMDgiIHg9IjE0NyIgeT0iMzY4LjIxODgiPlNpbXBhbiBQZW5nZWx1YXJhbjwvdGV4dD48cmVjdCBmaWxsPSIjRkZGRkZGIiBoZWlnaHQ9IjMyLjg0MzgiIHJ4PSIxMi41IiByeT0iMTIuNSIgc3R5bGU9InN0cm9rZTojMDAwMDAwO3N0cm9rZS13aWR0aDoxOyIgd2lkdGg9Ijk4IiB4PSIyODQiIHk9IjI0NS4xMDk0Ii8+PHRleHQgZmlsbD0iIzAwMDAwMCIgZm9udC1mYW1pbHk9IkFyaWFsIiBmb250LXNpemU9IjEyIiBsZW5ndGhBZGp1c3Q9InNwYWNpbmciIHRleHRMZW5ndGg9Ijc4IiB4PSIyOTQiIHk9IjI2Ni40NTMxIj5MaWhhdCBMYXBvcmFuPC90ZXh0PjxyZWN0IGZpbGw9IiNGRkZGRkYiIGhlaWdodD0iMzIuODQzOCIgcng9IjEyLjUiIHJ5PSIxMi41IiBzdHlsZT0ic3Ryb2tlOiMwMDAwMDA7c3Ryb2tlLXdpZHRoOjE7IiB3aWR0aD0iODYiIHg9IjI5MCIgeT0iMzEyLjk1MzEiLz48dGV4dCBmaWxsPSIjMDAwMDAwIiBmb250LWZhbWlseT0iQXJpYWwiIGZvbnQtc2l6ZT0iMTIiIGxlbmd0aEFkanVzdD0ic3BhY2luZyIgdGV4dExlbmd0aD0iNjYiIHg9IjMwMCIgeT0iMzM0LjI5NjkiPkZpbHRlciBEYXRhPC90ZXh0PjxsaW5lIHN0eWxlPSJzdHJva2U6IzAwMDAwMDtzdHJva2Utd2lkdGg6MS41OyIgeDE9IjY5IiB4Mj0iMzMzIiB5MT0iMzk5LjcxODgiIHkyPSIzOTkuNzE4OCIvPjxyZWN0IGZpbGw9IiNGRkZGRkYiIGhlaWdodD0iMzIuODQzOCIgcng9IjEyLjUiIHJ5PSIxMi41IiBzdHlsZT0ic3Ryb2tlOiMwMDAwMDA7c3Ryb2tlLXdpZHRoOjE7IiB3aWR0aD0iMTEwIiB4PSIzOTMiIHk9IjE4OS42ODc1Ii8+PHRleHQgZmlsbD0iIzAwMDAwMCIgZm9udC1mYW1pbHk9IkFyaWFsIiBmb250LXNpemU9IjEyIiBsZW5ndGhBZGp1c3Q9InNwYWNpbmciIHRleHRMZW5ndGg9IjkwIiB4PSI0MDMiIHk9IjIxMS4wMzEzIj5UYW1waWxrYW4gRXJyb3I8L3RleHQ+PHBvbHlnb24gZmlsbD0iI0ZGRkZGRiIgcG9pbnRzPSIzMjcsNDA3LjIxODgsMzM5LDQxOS4yMTg4LDMyNyw0MzEuMjE4OCwzMTUsNDE5LjIxODgsMzI3LDQwNy4yMTg4IiBzdHlsZT0ic3Ryb2tlOiMwMDAwMDA7c3Ryb2tlLXdpZHRoOjE7Ii8+PHJlY3QgZmlsbD0iI0ZGRkZGRiIgaGVpZ2h0PSIzMi44NDM4IiByeD0iMTIuNSIgcnk9IjEyLjUiIHN0eWxlPSJzdHJva2U6IzAwMDAwMDtzdHJva2Utd2lkdGg6MTsiIHdpZHRoPSI5MiIgeD0iMjgxIiB5PSI0NTEuMjE4OCIvPjx0ZXh0IGZpbGw9IiMwMDAwMDAiIGZvbnQtZmFtaWx5PSJBcmlhbCIgZm9udC1zaXplPSIxMiIgbGVuZ3RoQWRqdXN0PSJzcGFjaW5nIiB0ZXh0TGVuZ3RoPSI3MiIgeD0iMjkxIiB5PSI0NzIuNTYyNSI+VXBkYXRlIFNhbGRvPC90ZXh0PjxlbGxpcHNlIGN4PSIzMjciIGN5PSI1MTUuMDYyNSIgZmlsbD0ibm9uZSIgcng9IjExIiByeT0iMTEiIHN0eWxlPSJzdHJva2U6IzIyMjIyMjtzdHJva2Utd2lkdGg6MTsiLz48ZWxsaXBzZSBjeD0iMzI3IiBjeT0iNTE1LjA2MjUiIGZpbGw9IiMyMjIyMjIiIHJ4PSI2IiByeT0iNiIgc3R5bGU9InN0cm9rZTojMjIyMjIyO3N0cm9rZS13aWR0aDoxOyIvPjxsaW5lIHN0eWxlPSJzdHJva2U6IzAwMDAwMDtzdHJva2Utd2lkdGg6MTsiIHgxPSIzMjciIHgyPSIzMjciIHkxPSIzMCIgeTI9IjUwIi8+PHBvbHlnb24gZmlsbD0iIzAwMDAwMCIgcG9pbnRzPSIzMjMsNDAsMzI3LDUwLDMzMSw0MCwzMjcsNDQiIHN0eWxlPSJzdHJva2U6IzAwMDAwMDtzdHJva2Utd2lkdGg6MTsiLz48bGluZSBzdHlsZT0ic3Ryb2tlOiMwMDAwMDA7c3Ryb2tlLXdpZHRoOjE7IiB4MT0iMzI3IiB4Mj0iMzI3IiB5MT0iODIuODQzOCIgeTI9IjEwMi44NDM4Ii8+PHBvbHlnb24gZmlsbD0iIzAwMDAwMCIgcG9pbnRzPSIzMjMsOTIuODQzOCwzMjcsMTAyLjg0MzgsMzMxLDkyLjg0MzgsMzI3LDk2Ljg0MzgiIHN0eWxlPSJzdHJva2U6IzAwMDAwMDtzdHJva2Utd2lkdGg6MTsiLz48bGluZSBzdHlsZT0ic3Ryb2tlOiMwMDAwMDA7c3Ryb2tlLXdpZHRoOjE7IiB4MT0iNjkiIHgyPSI2OSIgeTE9IjI0NC4wMzEzIiB5Mj0iMjc5LjAzMTMiLz48cG9seWdvbiBmaWxsPSIjMDAwMDAwIiBwb2ludHM9IjY1LDI2OS4wMzEzLDY5LDI3OS4wMzEzLDczLDI2OS4wMzEzLDY5LDI3My4wMzEzIiBzdHlsZT0ic3Ryb2tlOiMwMDAwMDA7c3Ryb2tlLXdpZHRoOjE7Ii8+PGxpbmUgc3R5bGU9InN0cm9rZTojMDAwMDAwO3N0cm9rZS13aWR0aDoxOyIgeDE9IjY5IiB4Mj0iNjkiIHkxPSIzMTEuODc1IiB5Mj0iMzQ2Ljg3NSIvPjxwb2x5Z29uIGZpbGw9IiMwMDAwMDAiIHBvaW50cz0iNjUsMzM2Ljg3NSw2OSwzNDYuODc1LDczLDMzNi44NzUsNjksMzQwLjg3NSIgc3R5bGU9InN0cm9rZTojMDAwMDAwO3N0cm9rZS13aWR0aDoxOyIvPjxsaW5lIHN0eWxlPSJzdHJva2U6IzAwMDAwMDtzdHJva2Utd2lkdGg6MTsiIHgxPSIyMDEiIHgyPSIyMDEiIHkxPSIyNDQuMDMxMyIgeTI9IjI3OS4wMzEzIi8+PHBvbHlnb24gZmlsbD0iIzAwMDAwMCIgcG9pbnRzPSIxOTcsMjY5LjAzMTMsMjAxLDI3OS4wMzEzLDIwNSwyNjkuMDMxMywyMDEsMjczLjAzMTMiIHN0eWxlPSJzdHJva2U6IzAwMDAwMDtzdHJva2Utd2lkdGg6MTsiLz48bGluZSBzdHlsZT0ic3Ryb2tlOiMwMDAwMDA7c3Ryb2tlLXdpZHRoOjE7IiB4MT0iMjAxIiB4Mj0iMjAxIiB5MT0iMzExLjg3NSIgeTI9IjM0Ni44NzUiLz48cG9seWdvbiBmaWxsPSIjMDAwMDAwIiBwb2ludHM9IjE5NywzMzYuODc1LDIwMSwzNDYuODc1LDIwNSwzMzYuODc1LDIwMSwzNDAuODc1IiBzdHlsZT0ic3Ryb2tlOiMwMDAwMDA7c3Ryb2tlLXdpZHRoOjE7Ii8+PGxpbmUgc3R5bGU9InN0cm9rZTojMDAwMDAwO3N0cm9rZS13aWR0aDoxOyIgeDE9IjMzMyIgeDI9IjMzMyIgeTE9IjI3Ny45NTMxIiB5Mj0iMzEyLjk1MzEiLz48cG9seWdvbiBmaWxsPSIjMDAwMDAwIiBwb2ludHM9IjMyOSwzMDIuOTUzMSwzMzMsMzEyLjk1MzEsMzM3LDMwMi45NTMxLDMzMywzMDYuOTUzMSIgc3R5bGU9InN0cm9rZTojMDAwMDAwO3N0cm9rZS13aWR0aDoxOyIvPjxsaW5lIHN0eWxlPSJzdHJva2U6IzAwMDAwMDtzdHJva2Utd2lkdGg6MTsiIHgxPSI2OSIgeDI9IjY5IiB5MT0iMTkxLjE4NzUiIHkyPSIyMTEuMTg3NSIvPjxwb2x5Z29uIGZpbGw9IiMwMDAwMDAiIHBvaW50cz0iNjUsMjAxLjE4NzUsNjksMjExLjE4NzUsNzMsMjAxLjE4NzUsNjksMjA1LjE4NzUiIHN0eWxlPSJzdHJva2U6IzAwMDAwMDtzdHJva2Utd2lkdGg6MTsiLz48bGluZSBzdHlsZT0ic3Ryb2tlOiMwMDAwMDA7c3Ryb2tlLXdpZHRoOjE7IiB4MT0iMjAxIiB4Mj0iMjAxIiB5MT0iMTkxLjE4NzUiIHkyPSIyMTEuMTg3NSIvPjxwb2x5Z29uIGZpbGw9IiMwMDAwMDAiIHBvaW50cz0iMTk3LDIwMS4xODc1LDIwMSwyMTEuMTg3NSwyMDUsMjAxLjE4NzUsMjAxLDIwNS4xODc1IiBzdHlsZT0ic3Ryb2tlOiMwMDAwMDA7c3Ryb2tlLXdpZHRoOjE7Ii8+PGxpbmUgc3R5bGU9InN0cm9rZTojMDAwMDAwO3N0cm9rZS13aWR0aDoxOyIgeDE9IjMzMyIgeDI9IjMzMyIgeTE9IjE5MS4xODc1IiB5Mj0iMjQ1LjEwOTQiLz48cG9seWdvbiBmaWxsPSIjMDAwMDAwIiBwb2ludHM9IjMyOSwyMzUuMTA5NCwzMzMsMjQ1LjEwOTQsMzM3LDIzNS4xMDk0LDMzMywyMzkuMTA5NCIgc3R5bGU9InN0cm9rZTojMDAwMDAwO3N0cm9rZS13aWR0aDoxOyIvPjxsaW5lIHN0eWxlPSJzdHJva2U6IzAwMDAwMDtzdHJva2Utd2lkdGg6MTsiIHgxPSI2OSIgeDI9IjY5IiB5MT0iMzc5LjcxODgiIHkyPSIzOTkuNzE4OCIvPjxwb2x5Z29uIGZpbGw9IiMwMDAwMDAiIHBvaW50cz0iNjUsMzg5LjcxODgsNjksMzk5LjcxODgsNzMsMzg5LjcxODgsNjksMzkzLjcxODgiIHN0eWxlPSJzdHJva2U6IzAwMDAwMDtzdHJva2Utd2lkdGg6MTsiLz48bGluZSBzdHlsZT0ic3Ryb2tlOiMwMDAwMDA7c3Ryb2tlLXdpZHRoOjE7IiB4MT0iMjAxIiB4Mj0iMjAxIiB5MT0iMzc5LjcxODgiIHkyPSIzOTkuNzE4OCIvPjxwb2x5Z29uIGZpbGw9IiMwMDAwMDAiIHBvaW50cz0iMTk3LDM4OS43MTg4LDIwMSwzOTkuNzE4OCwyMDUsMzg5LjcxODgsMjAxLDM5My43MTg4IiBzdHlsZT0ic3Ryb2tlOiMwMDAwMDA7c3Ryb2tlLXdpZHRoOjE7Ii8+PGxpbmUgc3R5bGU9InN0cm9rZTojMDAwMDAwO3N0cm9rZS13aWR0aDoxOyIgeDE9IjMzMyIgeDI9IjMzMyIgeTE9IjM0NS43OTY5IiB5Mj0iMzk5LjcxODgiLz48cG9seWdvbiBmaWxsPSIjMDAwMDAwIiBwb2ludHM9IjMyOSwzODkuNzE4OCwzMzMsMzk5LjcxODgsMzM3LDM4OS43MTg4LDMzMywzOTMuNzE4OCIgc3R5bGU9InN0cm9rZTojMDAwMDAwO3N0cm9rZS13aWR0aDoxOyIvPjxsaW5lIHN0eWxlPSJzdHJva2U6IzAwMDAwMDtzdHJva2Utd2lkdGg6MTsiIHgxPSIyOTguNSIgeDI9IjE5MiIgeTE9IjE2Ny42ODc1IiB5Mj0iMTY3LjY4NzUiLz48bGluZSBzdHlsZT0ic3Ryb2tlOiMwMDAwMDA7c3Ryb2tlLXdpZHRoOjE7IiB4MT0iMTkyIiB4Mj0iMTkyIiB5MT0iMTY3LjY4NzUiIHkyPSIxODkuNjg3NSIvPjxwb2x5Z29uIGZpbGw9IiMwMDAwMDAiIHBvaW50cz0iMTg4LDE3OS42ODc1LDE5MiwxODkuNjg3NSwxOTYsMTc5LjY4NzUsMTkyLDE4My42ODc1IiBzdHlsZT0ic3Ryb2tlOiMwMDAwMDA7c3Ryb2tlLXdpZHRoOjE7Ii8+PGxpbmUgc3R5bGU9InN0cm9rZTojMDAwMDAwO3N0cm9rZS13aWR0aDoxOyIgeDE9IjM1NS41IiB4Mj0iNDQ4IiB5MT0iMTY3LjY4NzUiIHkyPSIxNjcuNjg3NSIvPjxsaW5lIHN0eWxlPSJzdHJva2U6IzAwMDAwMDtzdHJva2Utd2lkdGg6MTsiIHgxPSI0NDgiIHgyPSI0NDgiIHkxPSIxNjcuNjg3NSIgeTI9IjE4OS42ODc1Ii8+PHBvbHlnb24gZmlsbD0iIzAwMDAwMCIgcG9pbnRzPSI0NDQsMTc5LjY4NzUsNDQ4LDE4OS42ODc1LDQ1MiwxNzkuNjg3NSw0NDgsMTgzLjY4NzUiIHN0eWxlPSJzdHJva2U6IzAwMDAwMDtzdHJva2Utd2lkdGg6MTsiLz48bGluZSBzdHlsZT0ic3Ryb2tlOiMwMDAwMDA7c3Ryb2tlLXdpZHRoOjE7IiB4MT0iMTkyIiB4Mj0iMTkyIiB5MT0iNDAxLjIxODgiIHkyPSI0MTkuMjE4OCIvPjxsaW5lIHN0eWxlPSJzdHJva2U6IzAwMDAwMDtzdHJva2Utd2lkdGg6MTsiIHgxPSIxOTIiIHgyPSIzMTUiIHkxPSI0MTkuMjE4OCIgeTI9IjQxOS4yMTg4Ii8+PHBvbHlnb24gZmlsbD0iIzAwMDAwMCIgcG9pbnRzPSIzMDUsNDE1LjIxODgsMzE1LDQxOS4yMTg4LDMwNSw0MjMuMjE4OCwzMDksNDE5LjIxODgiIHN0eWxlPSJzdHJva2U6IzAwMDAwMDtzdHJva2Utd2lkdGg6MTsiLz48bGluZSBzdHlsZT0ic3Ryb2tlOiMwMDAwMDA7c3Ryb2tlLXdpZHRoOjE7IiB4MT0iNDQ4IiB4Mj0iNDQ4IiB5MT0iMjIyLjUzMTMiIHkyPSI0MTkuMjE4OCIvPjxsaW5lIHN0eWxlPSJzdHJva2U6IzAwMDAwMDtzdHJva2Utd2lkdGg6MTsiIHgxPSI0NDgiIHgyPSIzMzkiIHkxPSI0MTkuMjE4OCIgeTI9IjQxOS4yMTg4Ii8+PHBvbHlnb24gZmlsbD0iIzAwMDAwMCIgcG9pbnRzPSIzNDksNDE1LjIxODgsMzM5LDQxOS4yMTg4LDM0OSw0MjMuMjE4OCwzNDUsNDE5LjIxODgiIHN0eWxlPSJzdHJva2U6IzAwMDAwMDtzdHJva2Utd2lkdGg6MTsiLz48bGluZSBzdHlsZT0ic3Ryb2tlOiMwMDAwMDA7c3Ryb2tlLXdpZHRoOjE7IiB4MT0iMzI3IiB4Mj0iMzI3IiB5MT0iMTM1LjY4NzUiIHkyPSIxNTUuNjg3NSIvPjxwb2x5Z29uIGZpbGw9IiMwMDAwMDAiIHBvaW50cz0iMzIzLDE0NS42ODc1LDMyNywxNTUuNjg3NSwzMzEsMTQ1LjY4NzUsMzI3LDE0OS42ODc1IiBzdHlsZT0ic3Ryb2tlOiMwMDAwMDA7c3Ryb2tlLXdpZHRoOjE7Ii8+PGxpbmUgc3R5bGU9InN0cm9rZTojMDAwMDAwO3N0cm9rZS13aWR0aDoxOyIgeDE9IjMyNyIgeDI9IjMyNyIgeTE9IjQzMS4yMTg4IiB5Mj0iNDUxLjIxODgiLz48cG9seWdvbiBmaWxsPSIjMDAwMDAwIiBwb2ludHM9IjMyMyw0NDEuMjE4OCwzMjcsNDUxLjIxODgsMzMxLDQ0MS4yMTg4LDMyNyw0NDUuMjE4OCIgc3R5bGU9InN0cm9rZTojMDAwMDAwO3N0cm9rZS13aWR0aDoxOyIvPjxsaW5lIHN0eWxlPSJzdHJva2U6IzAwMDAwMDtzdHJva2Utd2lkdGg6MTsiIHgxPSIzMjciIHgyPSIzMjciIHkxPSI0ODQuMDYyNSIgeTI9IjUwNC4wNjI1Ii8+PHBvbHlnb24gZmlsbD0iIzAwMDAwMCIgcG9pbnRzPSIzMjMsNDk0LjA2MjUsMzI3LDUwNC4wNjI1LDMzMSw0OTQuMDYyNSwzMjcsNDk4LjA2MjUiIHN0eWxlPSJzdHJva2U6IzAwMDAwMDtzdHJva2Utd2lkdGg6MTsiLz48IS0tU1JDPVtaTEIxSmlDbTNCdHRBdHBTWmJvdDBuZ0NJT1kxOWNybUR1dFJNYXRaQTc2UHpsVHVPcTBoOWsyS29FX3ZGSnlka1VLR0NNNDdkR0dmY29HVFdRUVVZbG81RUFnbXp4Z0llNHpleTI4bi1XNi1JNGRzai04Ym1RbDdpWHIwa0s0ZFVtdXJMRVdwNVNFa0tsY0R6TjFaN05NSUZoV0ZZTnQzSWZUdWFYb2JvcFBacGd4WGlXc0tDcm1EM1BVQ2JqN3p2VlQ5LXlMa0gxY3hBSU9qWWpiUVFXdnBrb3BRSjFhVUFWSm1XRGFnTkM3YTFKc3h3b2JlR200YzF2bU0wM2J3TFppMVBsU1h6V2VSd1ozdEJQaENnUmZYcHVzOUFETUktNXBTU1hTblpCYWQ5UzBRRU9wckdhcy1qbTNfS25vblZzWWtrSzY1REtSdnJia25McWdtSENMWlhPOHhmbzl4VWZXZUVzb0ZLTVN4eDI5eDZuVmt4RWthVU01S2hjblJwejdQREIxNXhzSC10QVI0VG0wMF0tLT48L2c+PC9zdmc+;" vertex="1" parent="Jx06i-ONw801CrRce3De-30">
            <mxGeometry y="20" width="514" height="537" as="geometry" />
          </mxCell>
        </UserObject>
        <mxCell id="Jx06i-ONw801CrRce3De-11" value="Flowchart Kas" style="swimlane;whiteSpace=wrap;html=1;" vertex="1" parent="Jx06i-ONw801CrRce3De-30">
          <mxGeometry width="510" height="560" as="geometry" />
        </mxCell>
        <mxCell id="Jx06i-ONw801CrRce3De-31" value="" style="group" vertex="1" connectable="0" parent="1">
          <mxGeometry x="1320" y="750" width="530" height="560" as="geometry" />
        </mxCell>
        <UserObject label="" plantUmlData="{&quot;data&quot;:&quot;@startuml\nskinparam monochrome true\nskinparam defaultFontName Arial\nskinparam ArrowColor black\nskinparam shadowing false\n\nskinparam ActivityBackgroundColor white\nskinparam ActivityBorderColor black\nskinparam ActivityBorderThickness 1\n\nskinparam DiamondBackgroundColor white\nskinparam DiamondBorderColor black\nskinparam DiamondBorderThickness 1\n\nstart\n\n:Login;\n\n:Akses Menu Pengumuman;\n\nif (Valid?) then (ya)\n  split\n    :Buat Pengumuman;\n    :Set Prioritas;\n    :Upload Media;\n  split again\n    :Edit Pengumuman;\n    :Update Status;\n  split again\n    :Hapus Pengumuman;\n    :Arsip Data;\n  end split\nelse (tidak)\n  :Tampilkan Error;\nendif\n\n:Broadcast Pengumuman;\n\nstop\n@enduml\n&quot;,&quot;format&quot;:&quot;svg&quot;}" id="Jx06i-ONw801CrRce3De-15">
          <mxCell style="shape=image;noLabel=1;verticalAlign=top;aspect=fixed;imageAspect=0;image=data:image/svg+xml,PHN2ZyB4bWxucz0iaHR0cDovL3d3dy53My5vcmcvMjAwMC9zdmciIHhtbG5zOnhsaW5rPSJodHRwOi8vd3d3LnczLm9yZy8xOTk5L3hsaW5rIiBjb250ZW50U3R5bGVUeXBlPSJ0ZXh0L2NzcyIgZGF0YS1kaWFncmFtLXR5cGU9IkFDVElWSVRZIiBoZWlnaHQ9IjUzN3B4IiBwcmVzZXJ2ZUFzcGVjdFJhdGlvPSJub25lIiBzdHlsZT0id2lkdGg6NTI4cHg7aGVpZ2h0OjUzN3B4O2JhY2tncm91bmQ6I0ZGRkZGRjsiIHZlcnNpb249IjEuMSIgdmlld0JveD0iMCAwIDUyOCA1MzciIHdpZHRoPSI1MjhweCIgem9vbUFuZFBhbj0ibWFnbmlmeSI+PGRlZnMvPjxnPjxlbGxpcHNlIGN4PSIzMjQiIGN5PSIyMCIgZmlsbD0iIzIyMjIyMiIgcng9IjEwIiByeT0iMTAiIHN0eWxlPSJzdHJva2U6IzIyMjIyMjtzdHJva2Utd2lkdGg6MTsiLz48cmVjdCBmaWxsPSIjRkZGRkZGIiBoZWlnaHQ9IjMyLjg0MzgiIHJ4PSIxMi41IiByeT0iMTIuNSIgc3R5bGU9InN0cm9rZTojMDAwMDAwO3N0cm9rZS13aWR0aDoxOyIgd2lkdGg9IjUwIiB4PSIyOTkiIHk9IjUwIi8+PHRleHQgZmlsbD0iIzAwMDAwMCIgZm9udC1mYW1pbHk9IkFyaWFsIiBmb250LXNpemU9IjEyIiBsZW5ndGhBZGp1c3Q9InNwYWNpbmciIHRleHRMZW5ndGg9IjMwIiB4PSIzMDkiIHk9IjcxLjM0MzgiPkxvZ2luPC90ZXh0PjxyZWN0IGZpbGw9IiNGRkZGRkYiIGhlaWdodD0iMzIuODQzOCIgcng9IjEyLjUiIHJ5PSIxMi41IiBzdHlsZT0ic3Ryb2tlOiMwMDAwMDA7c3Ryb2tlLXdpZHRoOjE7IiB3aWR0aD0iMTQ2IiB4PSIyNTEiIHk9IjEwMi44NDM4Ii8+PHRleHQgZmlsbD0iIzAwMDAwMCIgZm9udC1mYW1pbHk9IkFyaWFsIiBmb250LXNpemU9IjEyIiBsZW5ndGhBZGp1c3Q9InNwYWNpbmciIHRleHRMZW5ndGg9IjEyNiIgeD0iMjYxIiB5PSIxMjQuMTg3NSI+QWtzZXMgTWVudSBQZW5ndW11bWFuPC90ZXh0Pjxwb2x5Z29uIGZpbGw9IiNGRkZGRkYiIHBvaW50cz0iMzA3LjUsMTU1LjY4NzUsMzQwLjUsMTU1LjY4NzUsMzUyLjUsMTY3LjY4NzUsMzQwLjUsMTc5LjY4NzUsMzA3LjUsMTc5LjY4NzUsMjk1LjUsMTY3LjY4NzUsMzA3LjUsMTU1LjY4NzUiIHN0eWxlPSJzdHJva2U6IzAwMDAwMDtzdHJva2Utd2lkdGg6MTsiLz48dGV4dCBmaWxsPSIjMDAwMDAwIiBmb250LWZhbWlseT0iQXJpYWwiIGZvbnQtc2l6ZT0iMTEiIGxlbmd0aEFkanVzdD0ic3BhY2luZyIgdGV4dExlbmd0aD0iMzMiIHg9IjMwNy41IiB5PSIxNzIuMTk5MiI+VmFsaWQ/PC90ZXh0Pjx0ZXh0IGZpbGw9IiMwMDAwMDAiIGZvbnQtZmFtaWx5PSJBcmlhbCIgZm9udC1zaXplPSIxMSIgbGVuZ3RoQWRqdXN0PSJzcGFjaW5nIiB0ZXh0TGVuZ3RoPSIxMSIgeD0iMjg0LjUiIHk9IjE2Ni4zMTI1Ij55YTwvdGV4dD48dGV4dCBmaWxsPSIjMDAwMDAwIiBmb250LWZhbWlseT0iQXJpYWwiIGZvbnQtc2l6ZT0iMTEiIGxlbmd0aEFkanVzdD0ic3BhY2luZyIgdGV4dExlbmd0aD0iMjcuNSIgeD0iMzUyLjUiIHk9IjE2Ni4zMTI1Ij50aWRhazwvdGV4dD48bGluZSBzdHlsZT0ic3Ryb2tlOiMwMDAwMDA7c3Ryb2tlLXdpZHRoOjEuNTsiIHgxPSI2NiIgeDI9IjMxOS41IiB5MT0iMTg5LjY4NzUiIHkyPSIxODkuNjg3NSIvPjxyZWN0IGZpbGw9IiNGRkZGRkYiIGhlaWdodD0iMzIuODQzOCIgcng9IjEyLjUiIHJ5PSIxMi41IiBzdHlsZT0ic3Ryb2tlOiMwMDAwMDA7c3Ryb2tlLXdpZHRoOjE7IiB3aWR0aD0iMTEwIiB4PSIxMSIgeT0iMjExLjE4NzUiLz48dGV4dCBmaWxsPSIjMDAwMDAwIiBmb250LWZhbWlseT0iQXJpYWwiIGZvbnQtc2l6ZT0iMTIiIGxlbmd0aEFkanVzdD0ic3BhY2luZyIgdGV4dExlbmd0aD0iOTAiIHg9IjIxIiB5PSIyMzIuNTMxMyI+QnVhdCBQZW5ndW11bWFuPC90ZXh0PjxyZWN0IGZpbGw9IiNGRkZGRkYiIGhlaWdodD0iMzIuODQzOCIgcng9IjEyLjUiIHJ5PSIxMi41IiBzdHlsZT0ic3Ryb2tlOiMwMDAwMDA7c3Ryb2tlLXdpZHRoOjE7IiB3aWR0aD0iOTgiIHg9IjE3IiB5PSIyNzkuMDMxMyIvPjx0ZXh0IGZpbGw9IiMwMDAwMDAiIGZvbnQtZmFtaWx5PSJBcmlhbCIgZm9udC1zaXplPSIxMiIgbGVuZ3RoQWRqdXN0PSJzcGFjaW5nIiB0ZXh0TGVuZ3RoPSI3OCIgeD0iMjciIHk9IjMwMC4zNzUiPlNldCBQcmlvcml0YXM8L3RleHQ+PHJlY3QgZmlsbD0iI0ZGRkZGRiIgaGVpZ2h0PSIzMi44NDM4IiByeD0iMTIuNSIgcnk9IjEyLjUiIHN0eWxlPSJzdHJva2U6IzAwMDAwMDtzdHJva2Utd2lkdGg6MTsiIHdpZHRoPSI5MiIgeD0iMjAiIHk9IjM0Ni44NzUiLz48dGV4dCBmaWxsPSIjMDAwMDAwIiBmb250LWZhbWlseT0iQXJpYWwiIGZvbnQtc2l6ZT0iMTIiIGxlbmd0aEFkanVzdD0ic3BhY2luZyIgdGV4dExlbmd0aD0iNzIiIHg9IjMwIiB5PSIzNjguMjE4OCI+VXBsb2FkIE1lZGlhPC90ZXh0PjxyZWN0IGZpbGw9IiNGRkZGRkYiIGhlaWdodD0iMzIuODQzOCIgcng9IjEyLjUiIHJ5PSIxMi41IiBzdHlsZT0ic3Ryb2tlOiMwMDAwMDA7c3Ryb2tlLXdpZHRoOjE7IiB3aWR0aD0iMTEwIiB4PSIxMzEiIHk9IjI0NS4xMDk0Ii8+PHRleHQgZmlsbD0iIzAwMDAwMCIgZm9udC1mYW1pbHk9IkFyaWFsIiBmb250LXNpemU9IjEyIiBsZW5ndGhBZGp1c3Q9InNwYWNpbmciIHRleHRMZW5ndGg9IjkwIiB4PSIxNDEiIHk9IjI2Ni40NTMxIj5FZGl0IFBlbmd1bXVtYW48L3RleHQ+PHJlY3QgZmlsbD0iI0ZGRkZGRiIgaGVpZ2h0PSIzMi44NDM4IiByeD0iMTIuNSIgcnk9IjEyLjUiIHN0eWxlPSJzdHJva2U6IzAwMDAwMDtzdHJva2Utd2lkdGg6MTsiIHdpZHRoPSI5OCIgeD0iMTM3IiB5PSIzMTIuOTUzMSIvPjx0ZXh0IGZpbGw9IiMwMDAwMDAiIGZvbnQtZmFtaWx5PSJBcmlhbCIgZm9udC1zaXplPSIxMiIgbGVuZ3RoQWRqdXN0PSJzcGFjaW5nIiB0ZXh0TGVuZ3RoPSI3OCIgeD0iMTQ3IiB5PSIzMzQuMjk2OSI+VXBkYXRlIFN0YXR1czwvdGV4dD48cmVjdCBmaWxsPSIjRkZGRkZGIiBoZWlnaHQ9IjMyLjg0MzgiIHJ4PSIxMi41IiByeT0iMTIuNSIgc3R5bGU9InN0cm9rZTojMDAwMDAwO3N0cm9rZS13aWR0aDoxOyIgd2lkdGg9IjExNiIgeD0iMjYxLjUiIHk9IjI0NS4xMDk0Ii8+PHRleHQgZmlsbD0iIzAwMDAwMCIgZm9udC1mYW1pbHk9IkFyaWFsIiBmb250LXNpemU9IjEyIiBsZW5ndGhBZGp1c3Q9InNwYWNpbmciIHRleHRMZW5ndGg9Ijk2IiB4PSIyNzEuNSIgeT0iMjY2LjQ1MzEiPkhhcHVzIFBlbmd1bXVtYW48L3RleHQ+PHJlY3QgZmlsbD0iI0ZGRkZGRiIgaGVpZ2h0PSIzMi44NDM4IiByeD0iMTIuNSIgcnk9IjEyLjUiIHN0eWxlPSJzdHJva2U6IzAwMDAwMDtzdHJva2Utd2lkdGg6MTsiIHdpZHRoPSI4MCIgeD0iMjc5LjUiIHk9IjMxMi45NTMxIi8+PHRleHQgZmlsbD0iIzAwMDAwMCIgZm9udC1mYW1pbHk9IkFyaWFsIiBmb250LXNpemU9IjEyIiBsZW5ndGhBZGp1c3Q9InNwYWNpbmciIHRleHRMZW5ndGg9IjYwIiB4PSIyODkuNSIgeT0iMzM0LjI5NjkiPkFyc2lwIERhdGE8L3RleHQ+PGxpbmUgc3R5bGU9InN0cm9rZTojMDAwMDAwO3N0cm9rZS13aWR0aDoxLjU7IiB4MT0iNjYiIHgyPSIzMTkuNSIgeTE9IjM5OS43MTg4IiB5Mj0iMzk5LjcxODgiLz48cmVjdCBmaWxsPSIjRkZGRkZGIiBoZWlnaHQ9IjMyLjg0MzgiIHJ4PSIxMi41IiByeT0iMTIuNSIgc3R5bGU9InN0cm9rZTojMDAwMDAwO3N0cm9rZS13aWR0aDoxOyIgd2lkdGg9IjExMCIgeD0iNDA3IiB5PSIxODkuNjg3NSIvPjx0ZXh0IGZpbGw9IiMwMDAwMDAiIGZvbnQtZmFtaWx5PSJBcmlhbCIgZm9udC1zaXplPSIxMiIgbGVuZ3RoQWRqdXN0PSJzcGFjaW5nIiB0ZXh0TGVuZ3RoPSI5MCIgeD0iNDE3IiB5PSIyMTEuMDMxMyI+VGFtcGlsa2FuIEVycm9yPC90ZXh0Pjxwb2x5Z29uIGZpbGw9IiNGRkZGRkYiIHBvaW50cz0iMzI0LDQwNy4yMTg4LDMzNiw0MTkuMjE4OCwzMjQsNDMxLjIxODgsMzEyLDQxOS4yMTg4LDMyNCw0MDcuMjE4OCIgc3R5bGU9InN0cm9rZTojMDAwMDAwO3N0cm9rZS13aWR0aDoxOyIvPjxyZWN0IGZpbGw9IiNGRkZGRkYiIGhlaWdodD0iMzIuODQzOCIgcng9IjEyLjUiIHJ5PSIxMi41IiBzdHlsZT0ic3Ryb2tlOiMwMDAwMDA7c3Ryb2tlLXdpZHRoOjE7IiB3aWR0aD0iMTQwIiB4PSIyNTQiIHk9IjQ1MS4yMTg4Ii8+PHRleHQgZmlsbD0iIzAwMDAwMCIgZm9udC1mYW1pbHk9IkFyaWFsIiBmb250LXNpemU9IjEyIiBsZW5ndGhBZGp1c3Q9InNwYWNpbmciIHRleHRMZW5ndGg9IjEyMCIgeD0iMjY0IiB5PSI0NzIuNTYyNSI+QnJvYWRjYXN0IFBlbmd1bXVtYW48L3RleHQ+PGVsbGlwc2UgY3g9IjMyNCIgY3k9IjUxNS4wNjI1IiBmaWxsPSJub25lIiByeD0iMTEiIHJ5PSIxMSIgc3R5bGU9InN0cm9rZTojMjIyMjIyO3N0cm9rZS13aWR0aDoxOyIvPjxlbGxpcHNlIGN4PSIzMjQiIGN5PSI1MTUuMDYyNSIgZmlsbD0iIzIyMjIyMiIgcng9IjYiIHJ5PSI2IiBzdHlsZT0ic3Ryb2tlOiMyMjIyMjI7c3Ryb2tlLXdpZHRoOjE7Ii8+PGxpbmUgc3R5bGU9InN0cm9rZTojMDAwMDAwO3N0cm9rZS13aWR0aDoxOyIgeDE9IjMyNCIgeDI9IjMyNCIgeTE9IjMwIiB5Mj0iNTAiLz48cG9seWdvbiBmaWxsPSIjMDAwMDAwIiBwb2ludHM9IjMyMCw0MCwzMjQsNTAsMzI4LDQwLDMyNCw0NCIgc3R5bGU9InN0cm9rZTojMDAwMDAwO3N0cm9rZS13aWR0aDoxOyIvPjxsaW5lIHN0eWxlPSJzdHJva2U6IzAwMDAwMDtzdHJva2Utd2lkdGg6MTsiIHgxPSIzMjQiIHgyPSIzMjQiIHkxPSI4Mi44NDM4IiB5Mj0iMTAyLjg0MzgiLz48cG9seWdvbiBmaWxsPSIjMDAwMDAwIiBwb2ludHM9IjMyMCw5Mi44NDM4LDMyNCwxMDIuODQzOCwzMjgsOTIuODQzOCwzMjQsOTYuODQzOCIgc3R5bGU9InN0cm9rZTojMDAwMDAwO3N0cm9rZS13aWR0aDoxOyIvPjxsaW5lIHN0eWxlPSJzdHJva2U6IzAwMDAwMDtzdHJva2Utd2lkdGg6MTsiIHgxPSI2NiIgeDI9IjY2IiB5MT0iMjQ0LjAzMTMiIHkyPSIyNzkuMDMxMyIvPjxwb2x5Z29uIGZpbGw9IiMwMDAwMDAiIHBvaW50cz0iNjIsMjY5LjAzMTMsNjYsMjc5LjAzMTMsNzAsMjY5LjAzMTMsNjYsMjczLjAzMTMiIHN0eWxlPSJzdHJva2U6IzAwMDAwMDtzdHJva2Utd2lkdGg6MTsiLz48bGluZSBzdHlsZT0ic3Ryb2tlOiMwMDAwMDA7c3Ryb2tlLXdpZHRoOjE7IiB4MT0iNjYiIHgyPSI2NiIgeTE9IjMxMS44NzUiIHkyPSIzNDYuODc1Ii8+PHBvbHlnb24gZmlsbD0iIzAwMDAwMCIgcG9pbnRzPSI2MiwzMzYuODc1LDY2LDM0Ni44NzUsNzAsMzM2Ljg3NSw2NiwzNDAuODc1IiBzdHlsZT0ic3Ryb2tlOiMwMDAwMDA7c3Ryb2tlLXdpZHRoOjE7Ii8+PGxpbmUgc3R5bGU9InN0cm9rZTojMDAwMDAwO3N0cm9rZS13aWR0aDoxOyIgeDE9IjE4NiIgeDI9IjE4NiIgeTE9IjI3Ny45NTMxIiB5Mj0iMzEyLjk1MzEiLz48cG9seWdvbiBmaWxsPSIjMDAwMDAwIiBwb2ludHM9IjE4MiwzMDIuOTUzMSwxODYsMzEyLjk1MzEsMTkwLDMwMi45NTMxLDE4NiwzMDYuOTUzMSIgc3R5bGU9InN0cm9rZTojMDAwMDAwO3N0cm9rZS13aWR0aDoxOyIvPjxsaW5lIHN0eWxlPSJzdHJva2U6IzAwMDAwMDtzdHJva2Utd2lkdGg6MTsiIHgxPSIzMTkuNSIgeDI9IjMxOS41IiB5MT0iMjc3Ljk1MzEiIHkyPSIzMTIuOTUzMSIvPjxwb2x5Z29uIGZpbGw9IiMwMDAwMDAiIHBvaW50cz0iMzE1LjUsMzAyLjk1MzEsMzE5LjUsMzEyLjk1MzEsMzIzLjUsMzAyLjk1MzEsMzE5LjUsMzA2Ljk1MzEiIHN0eWxlPSJzdHJva2U6IzAwMDAwMDtzdHJva2Utd2lkdGg6MTsiLz48bGluZSBzdHlsZT0ic3Ryb2tlOiMwMDAwMDA7c3Ryb2tlLXdpZHRoOjE7IiB4MT0iNjYiIHgyPSI2NiIgeTE9IjE5MS4xODc1IiB5Mj0iMjExLjE4NzUiLz48cG9seWdvbiBmaWxsPSIjMDAwMDAwIiBwb2ludHM9IjYyLDIwMS4xODc1LDY2LDIxMS4xODc1LDcwLDIwMS4xODc1LDY2LDIwNS4xODc1IiBzdHlsZT0ic3Ryb2tlOiMwMDAwMDA7c3Ryb2tlLXdpZHRoOjE7Ii8+PGxpbmUgc3R5bGU9InN0cm9rZTojMDAwMDAwO3N0cm9rZS13aWR0aDoxOyIgeDE9IjE4NiIgeDI9IjE4NiIgeTE9IjE5MS4xODc1IiB5Mj0iMjQ1LjEwOTQiLz48cG9seWdvbiBmaWxsPSIjMDAwMDAwIiBwb2ludHM9IjE4MiwyMzUuMTA5NCwxODYsMjQ1LjEwOTQsMTkwLDIzNS4xMDk0LDE4NiwyMzkuMTA5NCIgc3R5bGU9InN0cm9rZTojMDAwMDAwO3N0cm9rZS13aWR0aDoxOyIvPjxsaW5lIHN0eWxlPSJzdHJva2U6IzAwMDAwMDtzdHJva2Utd2lkdGg6MTsiIHgxPSIzMTkuNSIgeDI9IjMxOS41IiB5MT0iMTkxLjE4NzUiIHkyPSIyNDUuMTA5NCIvPjxwb2x5Z29uIGZpbGw9IiMwMDAwMDAiIHBvaW50cz0iMzE1LjUsMjM1LjEwOTQsMzE5LjUsMjQ1LjEwOTQsMzIzLjUsMjM1LjEwOTQsMzE5LjUsMjM5LjEwOTQiIHN0eWxlPSJzdHJva2U6IzAwMDAwMDtzdHJva2Utd2lkdGg6MTsiLz48bGluZSBzdHlsZT0ic3Ryb2tlOiMwMDAwMDA7c3Ryb2tlLXdpZHRoOjE7IiB4MT0iNjYiIHgyPSI2NiIgeTE9IjM3OS43MTg4IiB5Mj0iMzk5LjcxODgiLz48cG9seWdvbiBmaWxsPSIjMDAwMDAwIiBwb2ludHM9IjYyLDM4OS43MTg4LDY2LDM5OS43MTg4LDcwLDM4OS43MTg4LDY2LDM5My43MTg4IiBzdHlsZT0ic3Ryb2tlOiMwMDAwMDA7c3Ryb2tlLXdpZHRoOjE7Ii8+PGxpbmUgc3R5bGU9InN0cm9rZTojMDAwMDAwO3N0cm9rZS13aWR0aDoxOyIgeDE9IjE4NiIgeDI9IjE4NiIgeTE9IjM0NS43OTY5IiB5Mj0iMzk5LjcxODgiLz48cG9seWdvbiBmaWxsPSIjMDAwMDAwIiBwb2ludHM9IjE4MiwzODkuNzE4OCwxODYsMzk5LjcxODgsMTkwLDM4OS43MTg4LDE4NiwzOTMuNzE4OCIgc3R5bGU9InN0cm9rZTojMDAwMDAwO3N0cm9rZS13aWR0aDoxOyIvPjxsaW5lIHN0eWxlPSJzdHJva2U6IzAwMDAwMDtzdHJva2Utd2lkdGg6MTsiIHgxPSIzMTkuNSIgeDI9IjMxOS41IiB5MT0iMzQ1Ljc5NjkiIHkyPSIzOTkuNzE4OCIvPjxwb2x5Z29uIGZpbGw9IiMwMDAwMDAiIHBvaW50cz0iMzE1LjUsMzg5LjcxODgsMzE5LjUsMzk5LjcxODgsMzIzLjUsMzg5LjcxODgsMzE5LjUsMzkzLjcxODgiIHN0eWxlPSJzdHJva2U6IzAwMDAwMDtzdHJva2Utd2lkdGg6MTsiLz48bGluZSBzdHlsZT0ic3Ryb2tlOiMwMDAwMDA7c3Ryb2tlLXdpZHRoOjE7IiB4MT0iMjk1LjUiIHgyPSIxODkiIHkxPSIxNjcuNjg3NSIgeTI9IjE2Ny42ODc1Ii8+PGxpbmUgc3R5bGU9InN0cm9rZTojMDAwMDAwO3N0cm9rZS13aWR0aDoxOyIgeDE9IjE4OSIgeDI9IjE4OSIgeTE9IjE2Ny42ODc1IiB5Mj0iMTg5LjY4NzUiLz48cG9seWdvbiBmaWxsPSIjMDAwMDAwIiBwb2ludHM9IjE4NSwxNzkuNjg3NSwxODksMTg5LjY4NzUsMTkzLDE3OS42ODc1LDE4OSwxODMuNjg3NSIgc3R5bGU9InN0cm9rZTojMDAwMDAwO3N0cm9rZS13aWR0aDoxOyIvPjxsaW5lIHN0eWxlPSJzdHJva2U6IzAwMDAwMDtzdHJva2Utd2lkdGg6MTsiIHgxPSIzNTIuNSIgeDI9IjQ2MiIgeTE9IjE2Ny42ODc1IiB5Mj0iMTY3LjY4NzUiLz48bGluZSBzdHlsZT0ic3Ryb2tlOiMwMDAwMDA7c3Ryb2tlLXdpZHRoOjE7IiB4MT0iNDYyIiB4Mj0iNDYyIiB5MT0iMTY3LjY4NzUiIHkyPSIxODkuNjg3NSIvPjxwb2x5Z29uIGZpbGw9IiMwMDAwMDAiIHBvaW50cz0iNDU4LDE3OS42ODc1LDQ2MiwxODkuNjg3NSw0NjYsMTc5LjY4NzUsNDYyLDE4My42ODc1IiBzdHlsZT0ic3Ryb2tlOiMwMDAwMDA7c3Ryb2tlLXdpZHRoOjE7Ii8+PGxpbmUgc3R5bGU9InN0cm9rZTojMDAwMDAwO3N0cm9rZS13aWR0aDoxOyIgeDE9IjE4OSIgeDI9IjE4OSIgeTE9IjQwMS4yMTg4IiB5Mj0iNDE5LjIxODgiLz48bGluZSBzdHlsZT0ic3Ryb2tlOiMwMDAwMDA7c3Ryb2tlLXdpZHRoOjE7IiB4MT0iMTg5IiB4Mj0iMzEyIiB5MT0iNDE5LjIxODgiIHkyPSI0MTkuMjE4OCIvPjxwb2x5Z29uIGZpbGw9IiMwMDAwMDAiIHBvaW50cz0iMzAyLDQxNS4yMTg4LDMxMiw0MTkuMjE4OCwzMDIsNDIzLjIxODgsMzA2LDQxOS4yMTg4IiBzdHlsZT0ic3Ryb2tlOiMwMDAwMDA7c3Ryb2tlLXdpZHRoOjE7Ii8+PGxpbmUgc3R5bGU9InN0cm9rZTojMDAwMDAwO3N0cm9rZS13aWR0aDoxOyIgeDE9IjQ2MiIgeDI9IjQ2MiIgeTE9IjIyMi41MzEzIiB5Mj0iNDE5LjIxODgiLz48bGluZSBzdHlsZT0ic3Ryb2tlOiMwMDAwMDA7c3Ryb2tlLXdpZHRoOjE7IiB4MT0iNDYyIiB4Mj0iMzM2IiB5MT0iNDE5LjIxODgiIHkyPSI0MTkuMjE4OCIvPjxwb2x5Z29uIGZpbGw9IiMwMDAwMDAiIHBvaW50cz0iMzQ2LDQxNS4yMTg4LDMzNiw0MTkuMjE4OCwzNDYsNDIzLjIxODgsMzQyLDQxOS4yMTg4IiBzdHlsZT0ic3Ryb2tlOiMwMDAwMDA7c3Ryb2tlLXdpZHRoOjE7Ii8+PGxpbmUgc3R5bGU9InN0cm9rZTojMDAwMDAwO3N0cm9rZS13aWR0aDoxOyIgeDE9IjMyNCIgeDI9IjMyNCIgeTE9IjEzNS42ODc1IiB5Mj0iMTU1LjY4NzUiLz48cG9seWdvbiBmaWxsPSIjMDAwMDAwIiBwb2ludHM9IjMyMCwxNDUuNjg3NSwzMjQsMTU1LjY4NzUsMzI4LDE0NS42ODc1LDMyNCwxNDkuNjg3NSIgc3R5bGU9InN0cm9rZTojMDAwMDAwO3N0cm9rZS13aWR0aDoxOyIvPjxsaW5lIHN0eWxlPSJzdHJva2U6IzAwMDAwMDtzdHJva2Utd2lkdGg6MTsiIHgxPSIzMjQiIHgyPSIzMjQiIHkxPSI0MzEuMjE4OCIgeTI9IjQ1MS4yMTg4Ii8+PHBvbHlnb24gZmlsbD0iIzAwMDAwMCIgcG9pbnRzPSIzMjAsNDQxLjIxODgsMzI0LDQ1MS4yMTg4LDMyOCw0NDEuMjE4OCwzMjQsNDQ1LjIxODgiIHN0eWxlPSJzdHJva2U6IzAwMDAwMDtzdHJva2Utd2lkdGg6MTsiLz48bGluZSBzdHlsZT0ic3Ryb2tlOiMwMDAwMDA7c3Ryb2tlLXdpZHRoOjE7IiB4MT0iMzI0IiB4Mj0iMzI0IiB5MT0iNDg0LjA2MjUiIHkyPSI1MDQuMDYyNSIvPjxwb2x5Z29uIGZpbGw9IiMwMDAwMDAiIHBvaW50cz0iMzIwLDQ5NC4wNjI1LDMyNCw1MDQuMDYyNSwzMjgsNDk0LjA2MjUsMzI0LDQ5OC4wNjI1IiBzdHlsZT0ic3Ryb2tlOiMwMDAwMDA7c3Ryb2tlLXdpZHRoOjE7Ii8+PCEtLVNSQz1bWExBeFJpQ20zRHB6NUhvSmlNaW81NHdKZWFEUTU0WklkUkxlY3gwaTJISkw4N3pWdkxOT2dENUU0ZFh0bDJFYnNCNEJBRFgzeHZzbE1sNHpXS2dZOGx1V1hjZkNMZi16cXBWQ1MyY0NUZTJOOGx4dXZBcU4tQkhPVEdDZWpjWnlhTHEzRFRmOG5MMUxBTi1uZGJQUHFPWEZwYm5SNzVqTWNrOXZDSUpKRGNGRWxrTWdTbkdaRjBtRHJ1bnZIbEVWdHZ0c1h6czhDZFBKNTJzQW5UT3R4OVJ2S2RRSDhob0lJXzFFaGFiendsNENTMHNwM3hIaTdrVVdCSmNPZE4xVTBDSFdNVkM5aTVXYnI5N2VLanJIQldmeE9TTHVnbnMyek1Zb1lzNVN0ZmkwRGlaa0lqV09kY1hyMjBRTE9BVWVBS3hnTloyYS01ak9Ja0cwUXpJQjZwYnBZcXR2WU02Y1JCMHhweEJPT25fT1RrWFdheC04QjhqQ3ZKZmxQSUt2UnVMbjcyZmxwdVRsXS0tPjwvZz48L3N2Zz4=;" vertex="1" parent="Jx06i-ONw801CrRce3De-31">
            <mxGeometry y="23" width="528" height="537" as="geometry" />
          </mxCell>
        </UserObject>
        <mxCell id="Jx06i-ONw801CrRce3De-16" value="Flowchart Pengumuman" style="swimlane;whiteSpace=wrap;html=1;" vertex="1" parent="Jx06i-ONw801CrRce3De-31">
          <mxGeometry width="530" height="560" as="geometry" />
        </mxCell>
        <mxCell id="Jx06i-ONw801CrRce3De-32" value="" style="group" vertex="1" connectable="0" parent="1">
          <mxGeometry x="740" y="1427" width="530" height="560" as="geometry" />
        </mxCell>
        <UserObject label="" plantUmlData="{&#xa;  &quot;data&quot;: &quot;@startuml\nskinparam monochrome true\nskinparam defaultFontName Arial\nskinparam ArrowColor black\nskinparam shadowing false\n\nskinparam ActivityBackgroundColor white\nskinparam ActivityBorderColor black\nskinparam ActivityBorderThickness 1\n\nskinparam DiamondBackgroundColor white\nskinparam DiamondBorderColor black\nskinparam DiamondBorderThickness 1\n\nstart\n\n:Login;\n\n:Akses Menu Kegiatan;\n\nif (Valid?) then (ya)\n  split\n    :Input Kegiatan Baru;\n    :Set Jadwal;\n    :Upload Poster;\n  split again\n    :Edit Kegiatan;\n    :Update Status;\n  split again\n    :Hapus Kegiatan;\n    :Arsip Data;\n  end split\nelse (tidak)\n  :Tampilkan Error;\nendif\n\n:Publikasi Kegiatan;\n\nstop\n@enduml&quot;,&#xa;  &quot;format&quot;: &quot;svg&quot;&#xa;}" id="Jx06i-ONw801CrRce3De-23">
          <mxCell style="shape=image;noLabel=1;verticalAlign=top;aspect=fixed;imageAspect=0;image=data:image/svg+xml,PHN2ZyB4bWxucz0iaHR0cDovL3d3dy53My5vcmcvMjAwMC9zdmciIHhtbG5zOnhsaW5rPSJodHRwOi8vd3d3LnczLm9yZy8xOTk5L3hsaW5rIiBjb250ZW50U3R5bGVUeXBlPSJ0ZXh0L2NzcyIgZGF0YS1kaWFncmFtLXR5cGU9IkFDVElWSVRZIiBoZWlnaHQ9IjUzN3B4IiBwcmVzZXJ2ZUFzcGVjdFJhdGlvPSJub25lIiBzdHlsZT0id2lkdGg6NTI4cHg7aGVpZ2h0OjUzN3B4O2JhY2tncm91bmQ6I0ZGRkZGRjsiIHZlcnNpb249IjEuMSIgdmlld0JveD0iMCAwIDUyOCA1MzciIHdpZHRoPSI1MjhweCIgem9vbUFuZFBhbj0ibWFnbmlmeSI+PGRlZnMvPjxnPjxlbGxpcHNlIGN4PSIzMzAiIGN5PSIyMCIgZmlsbD0iIzIyMjIyMiIgcng9IjEwIiByeT0iMTAiIHN0eWxlPSJzdHJva2U6IzIyMjIyMjtzdHJva2Utd2lkdGg6MTsiLz48cmVjdCBmaWxsPSIjRkZGRkZGIiBoZWlnaHQ9IjMyLjg0MzgiIHJ4PSIxMi41IiByeT0iMTIuNSIgc3R5bGU9InN0cm9rZTojMDAwMDAwO3N0cm9rZS13aWR0aDoxOyIgd2lkdGg9IjUwIiB4PSIzMDUiIHk9IjUwIi8+PHRleHQgZmlsbD0iIzAwMDAwMCIgZm9udC1mYW1pbHk9IkFyaWFsIiBmb250LXNpemU9IjEyIiBsZW5ndGhBZGp1c3Q9InNwYWNpbmciIHRleHRMZW5ndGg9IjMwIiB4PSIzMTUiIHk9IjcxLjM0MzgiPkxvZ2luPC90ZXh0PjxyZWN0IGZpbGw9IiNGRkZGRkYiIGhlaWdodD0iMzIuODQzOCIgcng9IjEyLjUiIHJ5PSIxMi41IiBzdHlsZT0ic3Ryb2tlOiMwMDAwMDA7c3Ryb2tlLXdpZHRoOjE7IiB3aWR0aD0iMTM0IiB4PSIyNjMiIHk9IjEwMi44NDM4Ii8+PHRleHQgZmlsbD0iIzAwMDAwMCIgZm9udC1mYW1pbHk9IkFyaWFsIiBmb250LXNpemU9IjEyIiBsZW5ndGhBZGp1c3Q9InNwYWNpbmciIHRleHRMZW5ndGg9IjExNCIgeD0iMjczIiB5PSIxMjQuMTg3NSI+QWtzZXMgTWVudSBLZWdpYXRhbjwvdGV4dD48cG9seWdvbiBmaWxsPSIjRkZGRkZGIiBwb2ludHM9IjMxMy41LDE1NS42ODc1LDM0Ni41LDE1NS42ODc1LDM1OC41LDE2Ny42ODc1LDM0Ni41LDE3OS42ODc1LDMxMy41LDE3OS42ODc1LDMwMS41LDE2Ny42ODc1LDMxMy41LDE1NS42ODc1IiBzdHlsZT0ic3Ryb2tlOiMwMDAwMDA7c3Ryb2tlLXdpZHRoOjE7Ii8+PHRleHQgZmlsbD0iIzAwMDAwMCIgZm9udC1mYW1pbHk9IkFyaWFsIiBmb250LXNpemU9IjExIiBsZW5ndGhBZGp1c3Q9InNwYWNpbmciIHRleHRMZW5ndGg9IjMzIiB4PSIzMTMuNSIgeT0iMTcyLjE5OTIiPlZhbGlkPzwvdGV4dD48dGV4dCBmaWxsPSIjMDAwMDAwIiBmb250LWZhbWlseT0iQXJpYWwiIGZvbnQtc2l6ZT0iMTEiIGxlbmd0aEFkanVzdD0ic3BhY2luZyIgdGV4dExlbmd0aD0iMTEiIHg9IjI5MC41IiB5PSIxNjYuMzEyNSI+eWE8L3RleHQ+PHRleHQgZmlsbD0iIzAwMDAwMCIgZm9udC1mYW1pbHk9IkFyaWFsIiBmb250LXNpemU9IjExIiBsZW5ndGhBZGp1c3Q9InNwYWNpbmciIHRleHRMZW5ndGg9IjI3LjUiIHg9IjM1OC41IiB5PSIxNjYuMzEyNSI+dGlkYWs8L3RleHQ+PGxpbmUgc3R5bGU9InN0cm9rZTojMDAwMDAwO3N0cm9rZS13aWR0aDoxLjU7IiB4MT0iNzgiIHgyPSIzMzEuNSIgeTE9IjE4OS42ODc1IiB5Mj0iMTg5LjY4NzUiLz48cmVjdCBmaWxsPSIjRkZGRkZGIiBoZWlnaHQ9IjMyLjg0MzgiIHJ4PSIxMi41IiByeT0iMTIuNSIgc3R5bGU9InN0cm9rZTojMDAwMDAwO3N0cm9rZS13aWR0aDoxOyIgd2lkdGg9IjEzNCIgeD0iMTEiIHk9IjIxMS4xODc1Ii8+PHRleHQgZmlsbD0iIzAwMDAwMCIgZm9udC1mYW1pbHk9IkFyaWFsIiBmb250LXNpemU9IjEyIiBsZW5ndGhBZGp1c3Q9InNwYWNpbmciIHRleHRMZW5ndGg9IjExNCIgeD0iMjEiIHk9IjIzMi41MzEzIj5JbnB1dCBLZWdpYXRhbiBCYXJ1PC90ZXh0PjxyZWN0IGZpbGw9IiNGRkZGRkYiIGhlaWdodD0iMzIuODQzOCIgcng9IjEyLjUiIHJ5PSIxMi41IiBzdHlsZT0ic3Ryb2tlOiMwMDAwMDA7c3Ryb2tlLXdpZHRoOjE7IiB3aWR0aD0iODAiIHg9IjM4IiB5PSIyNzkuMDMxMyIvPjx0ZXh0IGZpbGw9IiMwMDAwMDAiIGZvbnQtZmFtaWx5PSJBcmlhbCIgZm9udC1zaXplPSIxMiIgbGVuZ3RoQWRqdXN0PSJzcGFjaW5nIiB0ZXh0TGVuZ3RoPSI2MCIgeD0iNDgiIHk9IjMwMC4zNzUiPlNldCBKYWR3YWw8L3RleHQ+PHJlY3QgZmlsbD0iI0ZGRkZGRiIgaGVpZ2h0PSIzMi44NDM4IiByeD0iMTIuNSIgcnk9IjEyLjUiIHN0eWxlPSJzdHJva2U6IzAwMDAwMDtzdHJva2Utd2lkdGg6MTsiIHdpZHRoPSI5OCIgeD0iMjkiIHk9IjM0Ni44NzUiLz48dGV4dCBmaWxsPSIjMDAwMDAwIiBmb250LWZhbWlseT0iQXJpYWwiIGZvbnQtc2l6ZT0iMTIiIGxlbmd0aEFkanVzdD0ic3BhY2luZyIgdGV4dExlbmd0aD0iNzgiIHg9IjM5IiB5PSIzNjguMjE4OCI+VXBsb2FkIFBvc3RlcjwvdGV4dD48cmVjdCBmaWxsPSIjRkZGRkZGIiBoZWlnaHQ9IjMyLjg0MzgiIHJ4PSIxMi41IiByeT0iMTIuNSIgc3R5bGU9InN0cm9rZTojMDAwMDAwO3N0cm9rZS13aWR0aDoxOyIgd2lkdGg9Ijk4IiB4PSIxNTUiIHk9IjI0NS4xMDk0Ii8+PHRleHQgZmlsbD0iIzAwMDAwMCIgZm9udC1mYW1pbHk9IkFyaWFsIiBmb250LXNpemU9IjEyIiBsZW5ndGhBZGp1c3Q9InNwYWNpbmciIHRleHRMZW5ndGg9Ijc4IiB4PSIxNjUiIHk9IjI2Ni40NTMxIj5FZGl0IEtlZ2lhdGFuPC90ZXh0PjxyZWN0IGZpbGw9IiNGRkZGRkYiIGhlaWdodD0iMzIuODQzOCIgcng9IjEyLjUiIHJ5PSIxMi41IiBzdHlsZT0ic3Ryb2tlOiMwMDAwMDA7c3Ryb2tlLXdpZHRoOjE7IiB3aWR0aD0iOTgiIHg9IjE1NSIgeT0iMzEyLjk1MzEiLz48dGV4dCBmaWxsPSIjMDAwMDAwIiBmb250LWZhbWlseT0iQXJpYWwiIGZvbnQtc2l6ZT0iMTIiIGxlbmd0aEFkanVzdD0ic3BhY2luZyIgdGV4dExlbmd0aD0iNzgiIHg9IjE2NSIgeT0iMzM0LjI5NjkiPlVwZGF0ZSBTdGF0dXM8L3RleHQ+PHJlY3QgZmlsbD0iI0ZGRkZGRiIgaGVpZ2h0PSIzMi44NDM4IiByeD0iMTIuNSIgcnk9IjEyLjUiIHN0eWxlPSJzdHJva2U6IzAwMDAwMDtzdHJva2Utd2lkdGg6MTsiIHdpZHRoPSIxMDQiIHg9IjI3OS41IiB5PSIyNDUuMTA5NCIvPjx0ZXh0IGZpbGw9IiMwMDAwMDAiIGZvbnQtZmFtaWx5PSJBcmlhbCIgZm9udC1zaXplPSIxMiIgbGVuZ3RoQWRqdXN0PSJzcGFjaW5nIiB0ZXh0TGVuZ3RoPSI4NCIgeD0iMjg5LjUiIHk9IjI2Ni40NTMxIj5IYXB1cyBLZWdpYXRhbjwvdGV4dD48cmVjdCBmaWxsPSIjRkZGRkZGIiBoZWlnaHQ9IjMyLjg0MzgiIHJ4PSIxMi41IiByeT0iMTIuNSIgc3R5bGU9InN0cm9rZTojMDAwMDAwO3N0cm9rZS13aWR0aDoxOyIgd2lkdGg9IjgwIiB4PSIyOTEuNSIgeT0iMzEyLjk1MzEiLz48dGV4dCBmaWxsPSIjMDAwMDAwIiBmb250LWZhbWlseT0iQXJpYWwiIGZvbnQtc2l6ZT0iMTIiIGxlbmd0aEFkanVzdD0ic3BhY2luZyIgdGV4dExlbmd0aD0iNjAiIHg9IjMwMS41IiB5PSIzMzQuMjk2OSI+QXJzaXAgRGF0YTwvdGV4dD48bGluZSBzdHlsZT0ic3Ryb2tlOiMwMDAwMDA7c3Ryb2tlLXdpZHRoOjEuNTsiIHgxPSI3OCIgeDI9IjMzMS41IiB5MT0iMzk5LjcxODgiIHkyPSIzOTkuNzE4OCIvPjxyZWN0IGZpbGw9IiNGRkZGRkYiIGhlaWdodD0iMzIuODQzOCIgcng9IjEyLjUiIHJ5PSIxMi41IiBzdHlsZT0ic3Ryb2tlOiMwMDAwMDA7c3Ryb2tlLXdpZHRoOjE7IiB3aWR0aD0iMTEwIiB4PSI0MDciIHk9IjE4OS42ODc1Ii8+PHRleHQgZmlsbD0iIzAwMDAwMCIgZm9udC1mYW1pbHk9IkFyaWFsIiBmb250LXNpemU9IjEyIiBsZW5ndGhBZGp1c3Q9InNwYWNpbmciIHRleHRMZW5ndGg9IjkwIiB4PSI0MTciIHk9IjIxMS4wMzEzIj5UYW1waWxrYW4gRXJyb3I8L3RleHQ+PHBvbHlnb24gZmlsbD0iI0ZGRkZGRiIgcG9pbnRzPSIzMzAsNDA3LjIxODgsMzQyLDQxOS4yMTg4LDMzMCw0MzEuMjE4OCwzMTgsNDE5LjIxODgsMzMwLDQwNy4yMTg4IiBzdHlsZT0ic3Ryb2tlOiMwMDAwMDA7c3Ryb2tlLXdpZHRoOjE7Ii8+PHJlY3QgZmlsbD0iI0ZGRkZGRiIgaGVpZ2h0PSIzMi44NDM4IiByeD0iMTIuNSIgcnk9IjEyLjUiIHN0eWxlPSJzdHJva2U6IzAwMDAwMDtzdHJva2Utd2lkdGg6MTsiIHdpZHRoPSIxMjgiIHg9IjI2NiIgeT0iNDUxLjIxODgiLz48dGV4dCBmaWxsPSIjMDAwMDAwIiBmb250LWZhbWlseT0iQXJpYWwiIGZvbnQtc2l6ZT0iMTIiIGxlbmd0aEFkanVzdD0ic3BhY2luZyIgdGV4dExlbmd0aD0iMTA4IiB4PSIyNzYiIHk9IjQ3Mi41NjI1Ij5QdWJsaWthc2kgS2VnaWF0YW48L3RleHQ+PGVsbGlwc2UgY3g9IjMzMCIgY3k9IjUxNS4wNjI1IiBmaWxsPSJub25lIiByeD0iMTEiIHJ5PSIxMSIgc3R5bGU9InN0cm9rZTojMjIyMjIyO3N0cm9rZS13aWR0aDoxOyIvPjxlbGxpcHNlIGN4PSIzMzAiIGN5PSI1MTUuMDYyNSIgZmlsbD0iIzIyMjIyMiIgcng9IjYiIHJ5PSI2IiBzdHlsZT0ic3Ryb2tlOiMyMjIyMjI7c3Ryb2tlLXdpZHRoOjE7Ii8+PGxpbmUgc3R5bGU9InN0cm9rZTojMDAwMDAwO3N0cm9rZS13aWR0aDoxOyIgeDE9IjMzMCIgeDI9IjMzMCIgeTE9IjMwIiB5Mj0iNTAiLz48cG9seWdvbiBmaWxsPSIjMDAwMDAwIiBwb2ludHM9IjMyNiw0MCwzMzAsNTAsMzM0LDQwLDMzMCw0NCIgc3R5bGU9InN0cm9rZTojMDAwMDAwO3N0cm9rZS13aWR0aDoxOyIvPjxsaW5lIHN0eWxlPSJzdHJva2U6IzAwMDAwMDtzdHJva2Utd2lkdGg6MTsiIHgxPSIzMzAiIHgyPSIzMzAiIHkxPSI4Mi44NDM4IiB5Mj0iMTAyLjg0MzgiLz48cG9seWdvbiBmaWxsPSIjMDAwMDAwIiBwb2ludHM9IjMyNiw5Mi44NDM4LDMzMCwxMDIuODQzOCwzMzQsOTIuODQzOCwzMzAsOTYuODQzOCIgc3R5bGU9InN0cm9rZTojMDAwMDAwO3N0cm9rZS13aWR0aDoxOyIvPjxsaW5lIHN0eWxlPSJzdHJva2U6IzAwMDAwMDtzdHJva2Utd2lkdGg6MTsiIHgxPSI3OCIgeDI9Ijc4IiB5MT0iMjQ0LjAzMTMiIHkyPSIyNzkuMDMxMyIvPjxwb2x5Z29uIGZpbGw9IiMwMDAwMDAiIHBvaW50cz0iNzQsMjY5LjAzMTMsNzgsMjc5LjAzMTMsODIsMjY5LjAzMTMsNzgsMjczLjAzMTMiIHN0eWxlPSJzdHJva2U6IzAwMDAwMDtzdHJva2Utd2lkdGg6MTsiLz48bGluZSBzdHlsZT0ic3Ryb2tlOiMwMDAwMDA7c3Ryb2tlLXdpZHRoOjE7IiB4MT0iNzgiIHgyPSI3OCIgeTE9IjMxMS44NzUiIHkyPSIzNDYuODc1Ii8+PHBvbHlnb24gZmlsbD0iIzAwMDAwMCIgcG9pbnRzPSI3NCwzMzYuODc1LDc4LDM0Ni44NzUsODIsMzM2Ljg3NSw3OCwzNDAuODc1IiBzdHlsZT0ic3Ryb2tlOiMwMDAwMDA7c3Ryb2tlLXdpZHRoOjE7Ii8+PGxpbmUgc3R5bGU9InN0cm9rZTojMDAwMDAwO3N0cm9rZS13aWR0aDoxOyIgeDE9IjIwNCIgeDI9IjIwNCIgeTE9IjI3Ny45NTMxIiB5Mj0iMzEyLjk1MzEiLz48cG9seWdvbiBmaWxsPSIjMDAwMDAwIiBwb2ludHM9IjIwMCwzMDIuOTUzMSwyMDQsMzEyLjk1MzEsMjA4LDMwMi45NTMxLDIwNCwzMDYuOTUzMSIgc3R5bGU9InN0cm9rZTojMDAwMDAwO3N0cm9rZS13aWR0aDoxOyIvPjxsaW5lIHN0eWxlPSJzdHJva2U6IzAwMDAwMDtzdHJva2Utd2lkdGg6MTsiIHgxPSIzMzEuNSIgeDI9IjMzMS41IiB5MT0iMjc3Ljk1MzEiIHkyPSIzMTIuOTUzMSIvPjxwb2x5Z29uIGZpbGw9IiMwMDAwMDAiIHBvaW50cz0iMzI3LjUsMzAyLjk1MzEsMzMxLjUsMzEyLjk1MzEsMzM1LjUsMzAyLjk1MzEsMzMxLjUsMzA2Ljk1MzEiIHN0eWxlPSJzdHJva2U6IzAwMDAwMDtzdHJva2Utd2lkdGg6MTsiLz48bGluZSBzdHlsZT0ic3Ryb2tlOiMwMDAwMDA7c3Ryb2tlLXdpZHRoOjE7IiB4MT0iNzgiIHgyPSI3OCIgeTE9IjE5MS4xODc1IiB5Mj0iMjExLjE4NzUiLz48cG9seWdvbiBmaWxsPSIjMDAwMDAwIiBwb2ludHM9Ijc0LDIwMS4xODc1LDc4LDIxMS4xODc1LDgyLDIwMS4xODc1LDc4LDIwNS4xODc1IiBzdHlsZT0ic3Ryb2tlOiMwMDAwMDA7c3Ryb2tlLXdpZHRoOjE7Ii8+PGxpbmUgc3R5bGU9InN0cm9rZTojMDAwMDAwO3N0cm9rZS13aWR0aDoxOyIgeDE9IjIwNCIgeDI9IjIwNCIgeTE9IjE5MS4xODc1IiB5Mj0iMjQ1LjEwOTQiLz48cG9seWdvbiBmaWxsPSIjMDAwMDAwIiBwb2ludHM9IjIwMCwyMzUuMTA5NCwyMDQsMjQ1LjEwOTQsMjA4LDIzNS4xMDk0LDIwNCwyMzkuMTA5NCIgc3R5bGU9InN0cm9rZTojMDAwMDAwO3N0cm9rZS13aWR0aDoxOyIvPjxsaW5lIHN0eWxlPSJzdHJva2U6IzAwMDAwMDtzdHJva2Utd2lkdGg6MTsiIHgxPSIzMzEuNSIgeDI9IjMzMS41IiB5MT0iMTkxLjE4NzUiIHkyPSIyNDUuMTA5NCIvPjxwb2x5Z29uIGZpbGw9IiMwMDAwMDAiIHBvaW50cz0iMzI3LjUsMjM1LjEwOTQsMzMxLjUsMjQ1LjEwOTQsMzM1LjUsMjM1LjEwOTQsMzMxLjUsMjM5LjEwOTQiIHN0eWxlPSJzdHJva2U6IzAwMDAwMDtzdHJva2Utd2lkdGg6MTsiLz48bGluZSBzdHlsZT0ic3Ryb2tlOiMwMDAwMDA7c3Ryb2tlLXdpZHRoOjE7IiB4MT0iNzgiIHgyPSI3OCIgeTE9IjM3OS43MTg4IiB5Mj0iMzk5LjcxODgiLz48cG9seWdvbiBmaWxsPSIjMDAwMDAwIiBwb2ludHM9Ijc0LDM4OS43MTg4LDc4LDM5OS43MTg4LDgyLDM4OS43MTg4LDc4LDM5My43MTg4IiBzdHlsZT0ic3Ryb2tlOiMwMDAwMDA7c3Ryb2tlLXdpZHRoOjE7Ii8+PGxpbmUgc3R5bGU9InN0cm9rZTojMDAwMDAwO3N0cm9rZS13aWR0aDoxOyIgeDE9IjIwNCIgeDI9IjIwNCIgeTE9IjM0NS43OTY5IiB5Mj0iMzk5LjcxODgiLz48cG9seWdvbiBmaWxsPSIjMDAwMDAwIiBwb2ludHM9IjIwMCwzODkuNzE4OCwyMDQsMzk5LjcxODgsMjA4LDM4OS43MTg4LDIwNCwzOTMuNzE4OCIgc3R5bGU9InN0cm9rZTojMDAwMDAwO3N0cm9rZS13aWR0aDoxOyIvPjxsaW5lIHN0eWxlPSJzdHJva2U6IzAwMDAwMDtzdHJva2Utd2lkdGg6MTsiIHgxPSIzMzEuNSIgeDI9IjMzMS41IiB5MT0iMzQ1Ljc5NjkiIHkyPSIzOTkuNzE4OCIvPjxwb2x5Z29uIGZpbGw9IiMwMDAwMDAiIHBvaW50cz0iMzI3LjUsMzg5LjcxODgsMzMxLjUsMzk5LjcxODgsMzM1LjUsMzg5LjcxODgsMzMxLjUsMzkzLjcxODgiIHN0eWxlPSJzdHJva2U6IzAwMDAwMDtzdHJva2Utd2lkdGg6MTsiLz48bGluZSBzdHlsZT0ic3Ryb2tlOiMwMDAwMDA7c3Ryb2tlLXdpZHRoOjE7IiB4MT0iMzAxLjUiIHgyPSIxODkiIHkxPSIxNjcuNjg3NSIgeTI9IjE2Ny42ODc1Ii8+PGxpbmUgc3R5bGU9InN0cm9rZTojMDAwMDAwO3N0cm9rZS13aWR0aDoxOyIgeDE9IjE4OSIgeDI9IjE4OSIgeTE9IjE2Ny42ODc1IiB5Mj0iMTg5LjY4NzUiLz48cG9seWdvbiBmaWxsPSIjMDAwMDAwIiBwb2ludHM9IjE4NSwxNzkuNjg3NSwxODksMTg5LjY4NzUsMTkzLDE3OS42ODc1LDE4OSwxODMuNjg3NSIgc3R5bGU9InN0cm9rZTojMDAwMDAwO3N0cm9rZS13aWR0aDoxOyIvPjxsaW5lIHN0eWxlPSJzdHJva2U6IzAwMDAwMDtzdHJva2Utd2lkdGg6MTsiIHgxPSIzNTguNSIgeDI9IjQ2MiIgeTE9IjE2Ny42ODc1IiB5Mj0iMTY3LjY4NzUiLz48bGluZSBzdHlsZT0ic3Ryb2tlOiMwMDAwMDA7c3Ryb2tlLXdpZHRoOjE7IiB4MT0iNDYyIiB4Mj0iNDYyIiB5MT0iMTY3LjY4NzUiIHkyPSIxODkuNjg3NSIvPjxwb2x5Z29uIGZpbGw9IiMwMDAwMDAiIHBvaW50cz0iNDU4LDE3OS42ODc1LDQ2MiwxODkuNjg3NSw0NjYsMTc5LjY4NzUsNDYyLDE4My42ODc1IiBzdHlsZT0ic3Ryb2tlOiMwMDAwMDA7c3Ryb2tlLXdpZHRoOjE7Ii8+PGxpbmUgc3R5bGU9InN0cm9rZTojMDAwMDAwO3N0cm9rZS13aWR0aDoxOyIgeDE9IjE4OSIgeDI9IjE4OSIgeTE9IjQwMS4yMTg4IiB5Mj0iNDE5LjIxODgiLz48bGluZSBzdHlsZT0ic3Ryb2tlOiMwMDAwMDA7c3Ryb2tlLXdpZHRoOjE7IiB4MT0iMTg5IiB4Mj0iMzE4IiB5MT0iNDE5LjIxODgiIHkyPSI0MTkuMjE4OCIvPjxwb2x5Z29uIGZpbGw9IiMwMDAwMDAiIHBvaW50cz0iMzA4LDQxNS4yMTg4LDMxOCw0MTkuMjE4OCwzMDgsNDIzLjIxODgsMzEyLDQxOS4yMTg4IiBzdHlsZT0ic3Ryb2tlOiMwMDAwMDA7c3Ryb2tlLXdpZHRoOjE7Ii8+PGxpbmUgc3R5bGU9InN0cm9rZTojMDAwMDAwO3N0cm9rZS13aWR0aDoxOyIgeDE9IjQ2MiIgeDI9IjQ2MiIgeTE9IjIyMi41MzEzIiB5Mj0iNDE5LjIxODgiLz48bGluZSBzdHlsZT0ic3Ryb2tlOiMwMDAwMDA7c3Ryb2tlLXdpZHRoOjE7IiB4MT0iNDYyIiB4Mj0iMzQyIiB5MT0iNDE5LjIxODgiIHkyPSI0MTkuMjE4OCIvPjxwb2x5Z29uIGZpbGw9IiMwMDAwMDAiIHBvaW50cz0iMzUyLDQxNS4yMTg4LDM0Miw0MTkuMjE4OCwzNTIsNDIzLjIxODgsMzQ4LDQxOS4yMTg4IiBzdHlsZT0ic3Ryb2tlOiMwMDAwMDA7c3Ryb2tlLXdpZHRoOjE7Ii8+PGxpbmUgc3R5bGU9InN0cm9rZTojMDAwMDAwO3N0cm9rZS13aWR0aDoxOyIgeDE9IjMzMCIgeDI9IjMzMCIgeTE9IjEzNS42ODc1IiB5Mj0iMTU1LjY4NzUiLz48cG9seWdvbiBmaWxsPSIjMDAwMDAwIiBwb2ludHM9IjMyNiwxNDUuNjg3NSwzMzAsMTU1LjY4NzUsMzM0LDE0NS42ODc1LDMzMCwxNDkuNjg3NSIgc3R5bGU9InN0cm9rZTojMDAwMDAwO3N0cm9rZS13aWR0aDoxOyIvPjxsaW5lIHN0eWxlPSJzdHJva2U6IzAwMDAwMDtzdHJva2Utd2lkdGg6MTsiIHgxPSIzMzAiIHgyPSIzMzAiIHkxPSI0MzEuMjE4OCIgeTI9IjQ1MS4yMTg4Ii8+PHBvbHlnb24gZmlsbD0iIzAwMDAwMCIgcG9pbnRzPSIzMjYsNDQxLjIxODgsMzMwLDQ1MS4yMTg4LDMzNCw0NDEuMjE4OCwzMzAsNDQ1LjIxODgiIHN0eWxlPSJzdHJva2U6IzAwMDAwMDtzdHJva2Utd2lkdGg6MTsiLz48bGluZSBzdHlsZT0ic3Ryb2tlOiMwMDAwMDA7c3Ryb2tlLXdpZHRoOjE7IiB4MT0iMzMwIiB4Mj0iMzMwIiB5MT0iNDg0LjA2MjUiIHkyPSI1MDQuMDYyNSIvPjxwb2x5Z29uIGZpbGw9IiMwMDAwMDAiIHBvaW50cz0iMzI2LDQ5NC4wNjI1LDMzMCw1MDQuMDYyNSwzMzQsNDk0LjA2MjUsMzMwLDQ5OC4wNjI1IiBzdHlsZT0ic3Ryb2tlOiMwMDAwMDA7c3Ryb2tlLXdpZHRoOjE7Ii8+PCEtLVNSQz1bWEw5QlJ5OG0zQnh0TF9XOG5ydFhDOU4xakJVR09Ca1JuY3NqZmFhS0V3bHV6bWxZZUpBWHhQSmVVX1lwZEtaN0JjMzQ3ZGhsVkRMNnRuRGVKNUo4WEo1S094Qnd3OXItT0FSQm82WDdWMWNaN253eXpINXM1Z2prSDRjQm5XX2k2Z1pIMlhMWkx3TnlwUmZWUDRTSlZOQmNNNjllTVVjTXBhVDN5TlJDak1SUlNqS3Y0ZTZ4U1UySUNTemVfaWl4b193OGt2OVNmb2I2Qk9oUGNzX09wVkVieDhHNHRpYWJVQU02S1Y0MFNtc0pCeEhpeGdVV0JKY094NzVRMDRZbWhGYTRjM3N4YUZKWVdHTjZEM3lvNnI5dUdKRVdGRzZWbU5lcWlGUVk1RVZkQ2UwRGlaaWdMZVByYjd6bzZMSTJaUThja1Vid21mM2Fqd3NDbVc2TTZKYTB2Q29mUVNoRjJuRGJXenJYYWphTS15MnNvd3NseWxWOFJNS2ZydGFad3hJcHRBN21VMjZZRmxtMF0tLT48L2c+PC9zdmc+;" vertex="1" parent="Jx06i-ONw801CrRce3De-32">
            <mxGeometry x="2" y="23" width="528" height="537" as="geometry" />
          </mxCell>
        </UserObject>
        <mxCell id="Jx06i-ONw801CrRce3De-24" value="Flowchart Kegiatan" style="swimlane;whiteSpace=wrap;html=1;" vertex="1" parent="Jx06i-ONw801CrRce3De-32">
          <mxGeometry width="530" height="560" as="geometry" />
        </mxCell>
      </root>
    </mxGraphModel>
  </diagram>
  <diagram name="Admin" id="Y8pZ_MDHfoSOt9GX1bxb">
    <mxGraphModel dx="827" dy="543" grid="1" gridSize="10" guides="1" tooltips="1" connect="1" arrows="1" fold="1" page="1" pageScale="1" pageWidth="827" pageHeight="1169" math="0" shadow="0">
      <root>
        <mxCell id="0" />
        <mxCell id="1" parent="0" />
        <mxCell id="K7lIHibH0SLw5Hq8eADf-1" value="Use Case Kelola Donasi Admin" style="swimlane;whiteSpace=wrap;html=1;startSize=23;" parent="1" vertex="1">
          <mxGeometry x="40" y="40" width="760" height="780" as="geometry" />
        </mxCell>
        <mxCell id="K7lIHibH0SLw5Hq8eADf-2" value="Admin" style="shape=umlActor;verticalLabelPosition=bottom;verticalAlign=top;html=1;outlineConnect=0;" parent="K7lIHibH0SLw5Hq8eADf-1" vertex="1">
          <mxGeometry x="57" y="360" width="30" height="60" as="geometry" />
        </mxCell>
        <mxCell id="K7lIHibH0SLw5Hq8eADf-4" value="Filter Donasi" style="ellipse;whiteSpace=wrap;html=1;" parent="K7lIHibH0SLw5Hq8eADf-1" vertex="1">
          <mxGeometry x="250" y="150" width="120" height="80" as="geometry" />
        </mxCell>
        <mxCell id="K7lIHibH0SLw5Hq8eADf-5" value="Tambah Donasi Manual" style="ellipse;whiteSpace=wrap;html=1;" parent="K7lIHibH0SLw5Hq8eADf-1" vertex="1">
          <mxGeometry x="250" y="270" width="120" height="80" as="geometry" />
        </mxCell>
        <mxCell id="K7lIHibH0SLw5Hq8eADf-6" value="Update Status Donasi" style="ellipse;whiteSpace=wrap;html=1;" parent="K7lIHibH0SLw5Hq8eADf-1" vertex="1">
          <mxGeometry x="250" y="450" width="120" height="80" as="geometry" />
        </mxCell>
        <mxCell id="K7lIHibH0SLw5Hq8eADf-7" value="Export Laporan Donasi" style="ellipse;whiteSpace=wrap;html=1;" parent="K7lIHibH0SLw5Hq8eADf-1" vertex="1">
          <mxGeometry x="250" y="570" width="120" height="80" as="geometry" />
        </mxCell>
        <mxCell id="K7lIHibH0SLw5Hq8eADf-12" value="" style="endArrow=classic;html=1;rounded=0;entryX=0;entryY=0.5;entryDx=0;entryDy=0;exitX=0.5;exitY=0.5;exitDx=0;exitDy=0;exitPerimeter=0;" parent="K7lIHibH0SLw5Hq8eADf-1" source="K7lIHibH0SLw5Hq8eADf-2" target="K7lIHibH0SLw5Hq8eADf-4" edge="1">
          <mxGeometry width="50" height="50" relative="1" as="geometry">
            <mxPoint x="97" y="370" as="sourcePoint" />
            <mxPoint x="147" y="320" as="targetPoint" />
          </mxGeometry>
        </mxCell>
        <mxCell id="K7lIHibH0SLw5Hq8eADf-14" value="" style="endArrow=classic;html=1;rounded=0;exitX=0.5;exitY=0.5;exitDx=0;exitDy=0;exitPerimeter=0;entryX=0;entryY=0.5;entryDx=0;entryDy=0;" parent="K7lIHibH0SLw5Hq8eADf-1" source="K7lIHibH0SLw5Hq8eADf-2" target="K7lIHibH0SLw5Hq8eADf-5" edge="1">
          <mxGeometry width="50" height="50" relative="1" as="geometry">
            <mxPoint x="147" y="360" as="sourcePoint" />
            <mxPoint x="197" y="310" as="targetPoint" />
          </mxGeometry>
        </mxCell>
        <mxCell id="K7lIHibH0SLw5Hq8eADf-15" value="" style="endArrow=classic;html=1;rounded=0;exitX=0.5;exitY=0.5;exitDx=0;exitDy=0;exitPerimeter=0;entryX=0;entryY=0.5;entryDx=0;entryDy=0;" parent="K7lIHibH0SLw5Hq8eADf-1" source="K7lIHibH0SLw5Hq8eADf-2" target="K7lIHibH0SLw5Hq8eADf-6" edge="1">
          <mxGeometry width="50" height="50" relative="1" as="geometry">
            <mxPoint x="207" y="370" as="sourcePoint" />
            <mxPoint x="257" y="320" as="targetPoint" />
          </mxGeometry>
        </mxCell>
        <mxCell id="K7lIHibH0SLw5Hq8eADf-16" value="" style="endArrow=classic;html=1;rounded=0;entryX=0;entryY=0.5;entryDx=0;entryDy=0;exitX=0.5;exitY=0.5;exitDx=0;exitDy=0;exitPerimeter=0;" parent="K7lIHibH0SLw5Hq8eADf-1" source="K7lIHibH0SLw5Hq8eADf-2" target="K7lIHibH0SLw5Hq8eADf-7" edge="1">
          <mxGeometry width="50" height="50" relative="1" as="geometry">
            <mxPoint x="67" y="530" as="sourcePoint" />
            <mxPoint x="117" y="480" as="targetPoint" />
          </mxGeometry>
        </mxCell>
        <mxCell id="yaC3rKsIGgokILqT5Cvf-1" value="Kirim notifikasi donatur" style="ellipse;whiteSpace=wrap;html=1;" vertex="1" parent="K7lIHibH0SLw5Hq8eADf-1">
          <mxGeometry x="530" y="250" width="120" height="80" as="geometry" />
        </mxCell>
        <mxCell id="yaC3rKsIGgokILqT5Cvf-2" value="Lihat Daftar Donasi" style="ellipse;whiteSpace=wrap;html=1;" vertex="1" parent="K7lIHibH0SLw5Hq8eADf-1">
          <mxGeometry x="530" y="380" width="120" height="80" as="geometry" />
        </mxCell>
        <mxCell id="yaC3rKsIGgokILqT5Cvf-4" value="" style="curved=1;endArrow=classic;html=1;rounded=0;exitX=1;exitY=0.5;exitDx=0;exitDy=0;entryX=0;entryY=0.5;entryDx=0;entryDy=0;dashed=1;dashPattern=1 2;" edge="1" parent="K7lIHibH0SLw5Hq8eADf-1" source="K7lIHibH0SLw5Hq8eADf-6" target="yaC3rKsIGgokILqT5Cvf-1">
          <mxGeometry width="50" height="50" relative="1" as="geometry">
            <mxPoint x="410" y="440" as="sourcePoint" />
            <mxPoint x="460" y="390" as="targetPoint" />
            <Array as="points">
              <mxPoint x="460" y="440" />
              <mxPoint x="410" y="390" />
            </Array>
          </mxGeometry>
        </mxCell>
        <mxCell id="yaC3rKsIGgokILqT5Cvf-5" value="&amp;lt;&amp;lt;includes&amp;gt;&amp;gt;" style="edgeLabel;html=1;align=center;verticalAlign=middle;resizable=0;points=[];" vertex="1" connectable="0" parent="yaC3rKsIGgokILqT5Cvf-4">
          <mxGeometry x="0.2521" y="-5" relative="1" as="geometry">
            <mxPoint y="-1" as="offset" />
          </mxGeometry>
        </mxCell>
        <mxCell id="yaC3rKsIGgokILqT5Cvf-7" value="" style="curved=1;endArrow=classic;html=1;rounded=0;exitX=0.5;exitY=0.5;exitDx=0;exitDy=0;exitPerimeter=0;" edge="1" parent="K7lIHibH0SLw5Hq8eADf-1" source="K7lIHibH0SLw5Hq8eADf-2">
          <mxGeometry width="50" height="50" relative="1" as="geometry">
            <mxPoint x="360" y="410" as="sourcePoint" />
            <mxPoint x="530" y="290" as="targetPoint" />
            <Array as="points">
              <mxPoint x="410" y="410" />
              <mxPoint x="360" y="360" />
            </Array>
          </mxGeometry>
        </mxCell>
        <mxCell id="yaC3rKsIGgokILqT5Cvf-8" value="" style="curved=1;endArrow=classic;html=1;rounded=0;exitX=0.5;exitY=0.5;exitDx=0;exitDy=0;exitPerimeter=0;entryX=0;entryY=0.5;entryDx=0;entryDy=0;" edge="1" parent="K7lIHibH0SLw5Hq8eADf-1" source="K7lIHibH0SLw5Hq8eADf-2" target="yaC3rKsIGgokILqT5Cvf-2">
          <mxGeometry width="50" height="50" relative="1" as="geometry">
            <mxPoint x="300" y="420" as="sourcePoint" />
            <mxPoint x="350" y="370" as="targetPoint" />
            <Array as="points">
              <mxPoint x="350" y="420" />
              <mxPoint x="300" y="370" />
            </Array>
          </mxGeometry>
        </mxCell>
        <mxCell id="yaC3rKsIGgokILqT5Cvf-9" value="" style="curved=1;endArrow=classic;html=1;rounded=0;exitX=1;exitY=0.5;exitDx=0;exitDy=0;entryX=0.5;entryY=1;entryDx=0;entryDy=0;dashed=1;dashPattern=1 2;" edge="1" parent="K7lIHibH0SLw5Hq8eADf-1" source="K7lIHibH0SLw5Hq8eADf-7" target="yaC3rKsIGgokILqT5Cvf-2">
          <mxGeometry width="50" height="50" relative="1" as="geometry">
            <mxPoint x="440" y="570" as="sourcePoint" />
            <mxPoint x="490" y="520" as="targetPoint" />
            <Array as="points">
              <mxPoint x="490" y="570" />
              <mxPoint x="440" y="520" />
            </Array>
          </mxGeometry>
        </mxCell>
        <mxCell id="yaC3rKsIGgokILqT5Cvf-10" value="extendes" style="edgeLabel;html=1;align=center;verticalAlign=middle;resizable=0;points=[];" vertex="1" connectable="0" parent="yaC3rKsIGgokILqT5Cvf-9">
          <mxGeometry x="0.2949" y="-13" relative="1" as="geometry">
            <mxPoint y="1" as="offset" />
          </mxGeometry>
        </mxCell>
        <mxCell id="yaC3rKsIGgokILqT5Cvf-12" value="" style="endArrow=classic;html=1;rounded=0;exitX=1;exitY=0.5;exitDx=0;exitDy=0;entryX=0;entryY=0;entryDx=0;entryDy=0;dashed=1;" edge="1" parent="K7lIHibH0SLw5Hq8eADf-1" source="K7lIHibH0SLw5Hq8eADf-5" target="yaC3rKsIGgokILqT5Cvf-2">
          <mxGeometry width="50" height="50" relative="1" as="geometry">
            <mxPoint x="420" y="290" as="sourcePoint" />
            <mxPoint x="470" y="240" as="targetPoint" />
          </mxGeometry>
        </mxCell>
        <mxCell id="yaC3rKsIGgokILqT5Cvf-13" value="extendes" style="edgeLabel;html=1;align=center;verticalAlign=middle;resizable=0;points=[];" vertex="1" connectable="0" parent="yaC3rKsIGgokILqT5Cvf-12">
          <mxGeometry x="0.2549" y="1" relative="1" as="geometry">
            <mxPoint x="-1" as="offset" />
          </mxGeometry>
        </mxCell>
      </root>
    </mxGraphModel>
  </diagram>
  <diagram name="Guest/Donatur" id="eR6kmiVw4No1_qGa5tsJ">
    <mxGraphModel dx="1123" dy="737" grid="1" gridSize="10" guides="1" tooltips="1" connect="1" arrows="1" fold="1" page="1" pageScale="1" pageWidth="827" pageHeight="1169" math="0" shadow="0">
      <root>
        <mxCell id="WY7uik9soMdYelpWkTz4-0" />
        <mxCell id="WY7uik9soMdYelpWkTz4-1" parent="WY7uik9soMdYelpWkTz4-0" />
        <mxCell id="WY7uik9soMdYelpWkTz4-2" value="Use Case Guest/Jamaah" style="swimlane;whiteSpace=wrap;html=1;" parent="WY7uik9soMdYelpWkTz4-1" vertex="1">
          <mxGeometry x="40" y="40" width="760" height="700" as="geometry" />
        </mxCell>
        <mxCell id="WY7uik9soMdYelpWkTz4-3" value="Guest/Jamaah" style="shape=umlActor;verticalLabelPosition=bottom;verticalAlign=top;html=1;outlineConnect=0;" parent="WY7uik9soMdYelpWkTz4-2" vertex="1">
          <mxGeometry x="60" y="300" width="30" height="60" as="geometry" />
        </mxCell>
        <mxCell id="WY7uik9soMdYelpWkTz4-8" value="Track Status Donasi" style="ellipse;whiteSpace=wrap;html=1;" parent="WY7uik9soMdYelpWkTz4-2" vertex="1">
          <mxGeometry x="312" y="125" width="120" height="80" as="geometry" />
        </mxCell>
        <mxCell id="WY7uik9soMdYelpWkTz4-9" value="Download Receipt" style="ellipse;whiteSpace=wrap;html=1;" parent="WY7uik9soMdYelpWkTz4-2" vertex="1">
          <mxGeometry x="312" y="235" width="120" height="80" as="geometry" />
        </mxCell>
        <mxCell id="WY7uik9soMdYelpWkTz4-11" value="Donasi Online" style="ellipse;whiteSpace=wrap;html=1;" parent="WY7uik9soMdYelpWkTz4-2" vertex="1">
          <mxGeometry x="316" y="465" width="120" height="80" as="geometry" />
        </mxCell>
        <mxCell id="WY7uik9soMdYelpWkTz4-17" value="" style="endArrow=classic;html=1;rounded=0;exitX=0.5;exitY=0.5;exitDx=0;exitDy=0;exitPerimeter=0;entryX=0;entryY=0.5;entryDx=0;entryDy=0;" parent="WY7uik9soMdYelpWkTz4-2" source="WY7uik9soMdYelpWkTz4-3" target="WY7uik9soMdYelpWkTz4-8" edge="1">
          <mxGeometry width="50" height="50" relative="1" as="geometry">
            <mxPoint x="150" y="440" as="sourcePoint" />
            <mxPoint x="200" y="390" as="targetPoint" />
          </mxGeometry>
        </mxCell>
        <mxCell id="WY7uik9soMdYelpWkTz4-18" value="" style="endArrow=classic;html=1;rounded=0;exitX=0.5;exitY=0.5;exitDx=0;exitDy=0;exitPerimeter=0;entryX=0;entryY=0.5;entryDx=0;entryDy=0;" parent="WY7uik9soMdYelpWkTz4-2" source="WY7uik9soMdYelpWkTz4-3" target="WY7uik9soMdYelpWkTz4-9" edge="1">
          <mxGeometry width="50" height="50" relative="1" as="geometry">
            <mxPoint x="210" y="450" as="sourcePoint" />
            <mxPoint x="260" y="400" as="targetPoint" />
          </mxGeometry>
        </mxCell>
        <mxCell id="WY7uik9soMdYelpWkTz4-19" value="" style="endArrow=classic;html=1;rounded=0;entryX=0;entryY=0.5;entryDx=0;entryDy=0;exitX=0.5;exitY=0.5;exitDx=0;exitDy=0;exitPerimeter=0;" parent="WY7uik9soMdYelpWkTz4-2" source="WY7uik9soMdYelpWkTz4-3" target="WY7uik9soMdYelpWkTz4-11" edge="1">
          <mxGeometry width="50" height="50" relative="1" as="geometry">
            <mxPoint x="70" y="610" as="sourcePoint" />
            <mxPoint x="120" y="560" as="targetPoint" />
          </mxGeometry>
        </mxCell>
        <mxCell id="QPkIVWt9Uk_w3OFuO6b2-2" value="LIhat laporan donasi public" style="ellipse;whiteSpace=wrap;html=1;" parent="WY7uik9soMdYelpWkTz4-2" vertex="1">
          <mxGeometry x="316" y="355" width="120" height="80" as="geometry" />
        </mxCell>
        <mxCell id="QPkIVWt9Uk_w3OFuO6b2-3" value="" style="endArrow=classic;html=1;rounded=0;exitX=0.5;exitY=0.5;exitDx=0;exitDy=0;exitPerimeter=0;entryX=0;entryY=0.5;entryDx=0;entryDy=0;" parent="WY7uik9soMdYelpWkTz4-2" source="WY7uik9soMdYelpWkTz4-3" target="QPkIVWt9Uk_w3OFuO6b2-2" edge="1">
          <mxGeometry width="50" height="50" relative="1" as="geometry">
            <mxPoint x="180" y="440" as="sourcePoint" />
            <mxPoint x="230" y="390" as="targetPoint" />
          </mxGeometry>
        </mxCell>
      </root>
    </mxGraphModel>
  </diagram>
  <diagram name="Admin" id="dx2PNix4jrfQMWlh-Gkm">
    <mxGraphModel dx="827" dy="543" grid="1" gridSize="10" guides="1" tooltips="1" connect="1" arrows="1" fold="1" page="1" pageScale="1" pageWidth="827" pageHeight="1169" math="0" shadow="0">
      <root>
        <mxCell id="0" />
        <mxCell id="1" parent="0" />
        <mxCell id="K7lIHibH0SLw5Hq8eADf-1" value="Use Case Kelola Donasi Admin" style="swimlane;whiteSpace=wrap;html=1;startSize=23;" parent="1" vertex="1">
          <mxGeometry x="40" y="40" width="760" height="780" as="geometry" />
        </mxCell>
        <mxCell id="K7lIHibH0SLw5Hq8eADf-2" value="Admin" style="shape=umlActor;verticalLabelPosition=bottom;verticalAlign=top;html=1;outlineConnect=0;" parent="K7lIHibH0SLw5Hq8eADf-1" vertex="1">
          <mxGeometry x="57" y="360" width="30" height="60" as="geometry" />
        </mxCell>
        <mxCell id="K7lIHibH0SLw5Hq8eADf-4" value="Filter Donasi" style="ellipse;whiteSpace=wrap;html=1;" parent="K7lIHibH0SLw5Hq8eADf-1" vertex="1">
          <mxGeometry x="250" y="150" width="120" height="80" as="geometry" />
        </mxCell>
        <mxCell id="K7lIHibH0SLw5Hq8eADf-5" value="Tambah Donasi Manual" style="ellipse;whiteSpace=wrap;html=1;" parent="K7lIHibH0SLw5Hq8eADf-1" vertex="1">
          <mxGeometry x="250" y="270" width="120" height="80" as="geometry" />
        </mxCell>
        <mxCell id="K7lIHibH0SLw5Hq8eADf-6" value="Update Status Donasi" style="ellipse;whiteSpace=wrap;html=1;" parent="K7lIHibH0SLw5Hq8eADf-1" vertex="1">
          <mxGeometry x="250" y="450" width="120" height="80" as="geometry" />
        </mxCell>
        <mxCell id="K7lIHibH0SLw5Hq8eADf-7" value="Export Laporan Donasi" style="ellipse;whiteSpace=wrap;html=1;" parent="K7lIHibH0SLw5Hq8eADf-1" vertex="1">
          <mxGeometry x="250" y="570" width="120" height="80" as="geometry" />
        </mxCell>
        <mxCell id="K7lIHibH0SLw5Hq8eADf-12" value="" style="endArrow=classic;html=1;rounded=0;entryX=0;entryY=0.5;entryDx=0;entryDy=0;exitX=0.5;exitY=0.5;exitDx=0;exitDy=0;exitPerimeter=0;" parent="K7lIHibH0SLw5Hq8eADf-1" source="K7lIHibH0SLw5Hq8eADf-2" target="K7lIHibH0SLw5Hq8eADf-4" edge="1">
          <mxGeometry width="50" height="50" relative="1" as="geometry">
            <mxPoint x="97" y="370" as="sourcePoint" />
            <mxPoint x="147" y="320" as="targetPoint" />
          </mxGeometry>
        </mxCell>
        <mxCell id="K7lIHibH0SLw5Hq8eADf-14" value="" style="endArrow=classic;html=1;rounded=0;exitX=0.5;exitY=0.5;exitDx=0;exitDy=0;exitPerimeter=0;entryX=0;entryY=0.5;entryDx=0;entryDy=0;" parent="K7lIHibH0SLw5Hq8eADf-1" source="K7lIHibH0SLw5Hq8eADf-2" target="K7lIHibH0SLw5Hq8eADf-5" edge="1">
          <mxGeometry width="50" height="50" relative="1" as="geometry">
            <mxPoint x="147" y="360" as="sourcePoint" />
            <mxPoint x="197" y="310" as="targetPoint" />
          </mxGeometry>
        </mxCell>
        <mxCell id="K7lIHibH0SLw5Hq8eADf-15" value="" style="endArrow=classic;html=1;rounded=0;exitX=0.5;exitY=0.5;exitDx=0;exitDy=0;exitPerimeter=0;entryX=0;entryY=0.5;entryDx=0;entryDy=0;" parent="K7lIHibH0SLw5Hq8eADf-1" source="K7lIHibH0SLw5Hq8eADf-2" target="K7lIHibH0SLw5Hq8eADf-6" edge="1">
          <mxGeometry width="50" height="50" relative="1" as="geometry">
            <mxPoint x="207" y="370" as="sourcePoint" />
            <mxPoint x="257" y="320" as="targetPoint" />
          </mxGeometry>
        </mxCell>
        <mxCell id="K7lIHibH0SLw5Hq8eADf-16" value="" style="endArrow=classic;html=1;rounded=0;entryX=0;entryY=0.5;entryDx=0;entryDy=0;exitX=0.5;exitY=0.5;exitDx=0;exitDy=0;exitPerimeter=0;" parent="K7lIHibH0SLw5Hq8eADf-1" source="K7lIHibH0SLw5Hq8eADf-2" target="K7lIHibH0SLw5Hq8eADf-7" edge="1">
          <mxGeometry width="50" height="50" relative="1" as="geometry">
            <mxPoint x="67" y="530" as="sourcePoint" />
            <mxPoint x="117" y="480" as="targetPoint" />
          </mxGeometry>
        </mxCell>
        <mxCell id="yaC3rKsIGgokILqT5Cvf-1" value="Kirim notifikasi donatur" style="ellipse;whiteSpace=wrap;html=1;" vertex="1" parent="K7lIHibH0SLw5Hq8eADf-1">
          <mxGeometry x="530" y="250" width="120" height="80" as="geometry" />
        </mxCell>
        <mxCell id="yaC3rKsIGgokILqT5Cvf-2" value="Lihat Daftar Donasi" style="ellipse;whiteSpace=wrap;html=1;" vertex="1" parent="K7lIHibH0SLw5Hq8eADf-1">
          <mxGeometry x="530" y="380" width="120" height="80" as="geometry" />
        </mxCell>
        <mxCell id="yaC3rKsIGgokILqT5Cvf-4" value="" style="curved=1;endArrow=classic;html=1;rounded=0;exitX=1;exitY=0.5;exitDx=0;exitDy=0;entryX=0;entryY=0.5;entryDx=0;entryDy=0;dashed=1;dashPattern=1 2;" edge="1" parent="K7lIHibH0SLw5Hq8eADf-1" source="K7lIHibH0SLw5Hq8eADf-6" target="yaC3rKsIGgokILqT5Cvf-1">
          <mxGeometry width="50" height="50" relative="1" as="geometry">
            <mxPoint x="410" y="440" as="sourcePoint" />
            <mxPoint x="460" y="390" as="targetPoint" />
            <Array as="points">
              <mxPoint x="460" y="440" />
              <mxPoint x="410" y="390" />
            </Array>
          </mxGeometry>
        </mxCell>
        <mxCell id="yaC3rKsIGgokILqT5Cvf-5" value="&amp;lt;&amp;lt;includes&amp;gt;&amp;gt;" style="edgeLabel;html=1;align=center;verticalAlign=middle;resizable=0;points=[];" vertex="1" connectable="0" parent="yaC3rKsIGgokILqT5Cvf-4">
          <mxGeometry x="0.2521" y="-5" relative="1" as="geometry">
            <mxPoint y="-1" as="offset" />
          </mxGeometry>
        </mxCell>
        <mxCell id="yaC3rKsIGgokILqT5Cvf-7" value="" style="curved=1;endArrow=classic;html=1;rounded=0;exitX=0.5;exitY=0.5;exitDx=0;exitDy=0;exitPerimeter=0;" edge="1" parent="K7lIHibH0SLw5Hq8eADf-1" source="K7lIHibH0SLw5Hq8eADf-2">
          <mxGeometry width="50" height="50" relative="1" as="geometry">
            <mxPoint x="360" y="410" as="sourcePoint" />
            <mxPoint x="530" y="290" as="targetPoint" />
            <Array as="points">
              <mxPoint x="410" y="410" />
              <mxPoint x="360" y="360" />
            </Array>
          </mxGeometry>
        </mxCell>
        <mxCell id="yaC3rKsIGgokILqT5Cvf-8" value="" style="curved=1;endArrow=classic;html=1;rounded=0;exitX=0.5;exitY=0.5;exitDx=0;exitDy=0;exitPerimeter=0;entryX=0;entryY=0.5;entryDx=0;entryDy=0;" edge="1" parent="K7lIHibH0SLw5Hq8eADf-1" source="K7lIHibH0SLw5Hq8eADf-2" target="yaC3rKsIGgokILqT5Cvf-2">
          <mxGeometry width="50" height="50" relative="1" as="geometry">
            <mxPoint x="300" y="420" as="sourcePoint" />
            <mxPoint x="350" y="370" as="targetPoint" />
            <Array as="points">
              <mxPoint x="350" y="420" />
              <mxPoint x="300" y="370" />
            </Array>
          </mxGeometry>
        </mxCell>
        <mxCell id="yaC3rKsIGgokILqT5Cvf-9" value="" style="curved=1;endArrow=classic;html=1;rounded=0;exitX=1;exitY=0.5;exitDx=0;exitDy=0;entryX=0.5;entryY=1;entryDx=0;entryDy=0;dashed=1;dashPattern=1 2;" edge="1" parent="K7lIHibH0SLw5Hq8eADf-1" source="K7lIHibH0SLw5Hq8eADf-7" target="yaC3rKsIGgokILqT5Cvf-2">
          <mxGeometry width="50" height="50" relative="1" as="geometry">
            <mxPoint x="440" y="570" as="sourcePoint" />
            <mxPoint x="490" y="520" as="targetPoint" />
            <Array as="points">
              <mxPoint x="490" y="570" />
              <mxPoint x="440" y="520" />
            </Array>
          </mxGeometry>
        </mxCell>
        <mxCell id="yaC3rKsIGgokILqT5Cvf-10" value="extendes" style="edgeLabel;html=1;align=center;verticalAlign=middle;resizable=0;points=[];" vertex="1" connectable="0" parent="yaC3rKsIGgokILqT5Cvf-9">
          <mxGeometry x="0.2949" y="-13" relative="1" as="geometry">
            <mxPoint y="1" as="offset" />
          </mxGeometry>
        </mxCell>
        <mxCell id="yaC3rKsIGgokILqT5Cvf-12" value="" style="endArrow=classic;html=1;rounded=0;exitX=1;exitY=0.5;exitDx=0;exitDy=0;entryX=0;entryY=0;entryDx=0;entryDy=0;dashed=1;" edge="1" parent="K7lIHibH0SLw5Hq8eADf-1" source="K7lIHibH0SLw5Hq8eADf-5" target="yaC3rKsIGgokILqT5Cvf-2">
          <mxGeometry width="50" height="50" relative="1" as="geometry">
            <mxPoint x="420" y="290" as="sourcePoint" />
            <mxPoint x="470" y="240" as="targetPoint" />
          </mxGeometry>
        </mxCell>
        <mxCell id="yaC3rKsIGgokILqT5Cvf-13" value="extendes" style="edgeLabel;html=1;align=center;verticalAlign=middle;resizable=0;points=[];" vertex="1" connectable="0" parent="yaC3rKsIGgokILqT5Cvf-12">
          <mxGeometry x="0.2549" y="1" relative="1" as="geometry">
            <mxPoint x="-1" as="offset" />
          </mxGeometry>
        </mxCell>
      </root>
    </mxGraphModel>
  </diagram>
  <diagram name="Guest/Donatur" id="3YOcSMio7M5LcTvc0Vvo">
    <mxGraphModel dx="1123" dy="737" grid="1" gridSize="10" guides="1" tooltips="1" connect="1" arrows="1" fold="1" page="1" pageScale="1" pageWidth="827" pageHeight="1169" math="0" shadow="0">
      <root>
        <mxCell id="WY7uik9soMdYelpWkTz4-0" />
        <mxCell id="WY7uik9soMdYelpWkTz4-1" parent="WY7uik9soMdYelpWkTz4-0" />
        <mxCell id="WY7uik9soMdYelpWkTz4-2" value="Use Case Guest/Jamaah" style="swimlane;whiteSpace=wrap;html=1;" parent="WY7uik9soMdYelpWkTz4-1" vertex="1">
          <mxGeometry x="40" y="40" width="760" height="700" as="geometry" />
        </mxCell>
        <mxCell id="WY7uik9soMdYelpWkTz4-3" value="Guest/Jamaah" style="shape=umlActor;verticalLabelPosition=bottom;verticalAlign=top;html=1;outlineConnect=0;" parent="WY7uik9soMdYelpWkTz4-2" vertex="1">
          <mxGeometry x="60" y="300" width="30" height="60" as="geometry" />
        </mxCell>
        <mxCell id="WY7uik9soMdYelpWkTz4-8" value="Track Status Donasi" style="ellipse;whiteSpace=wrap;html=1;" parent="WY7uik9soMdYelpWkTz4-2" vertex="1">
          <mxGeometry x="312" y="125" width="120" height="80" as="geometry" />
        </mxCell>
        <mxCell id="WY7uik9soMdYelpWkTz4-9" value="Download Receipt" style="ellipse;whiteSpace=wrap;html=1;" parent="WY7uik9soMdYelpWkTz4-2" vertex="1">
          <mxGeometry x="312" y="235" width="120" height="80" as="geometry" />
        </mxCell>
        <mxCell id="WY7uik9soMdYelpWkTz4-11" value="Donasi Online" style="ellipse;whiteSpace=wrap;html=1;" parent="WY7uik9soMdYelpWkTz4-2" vertex="1">
          <mxGeometry x="316" y="465" width="120" height="80" as="geometry" />
        </mxCell>
        <mxCell id="WY7uik9soMdYelpWkTz4-17" value="" style="endArrow=classic;html=1;rounded=0;exitX=0.5;exitY=0.5;exitDx=0;exitDy=0;exitPerimeter=0;entryX=0;entryY=0.5;entryDx=0;entryDy=0;" parent="WY7uik9soMdYelpWkTz4-2" source="WY7uik9soMdYelpWkTz4-3" target="WY7uik9soMdYelpWkTz4-8" edge="1">
          <mxGeometry width="50" height="50" relative="1" as="geometry">
            <mxPoint x="150" y="440" as="sourcePoint" />
            <mxPoint x="200" y="390" as="targetPoint" />
          </mxGeometry>
        </mxCell>
        <mxCell id="WY7uik9soMdYelpWkTz4-18" value="" style="endArrow=classic;html=1;rounded=0;exitX=0.5;exitY=0.5;exitDx=0;exitDy=0;exitPerimeter=0;entryX=0;entryY=0.5;entryDx=0;entryDy=0;" parent="WY7uik9soMdYelpWkTz4-2" source="WY7uik9soMdYelpWkTz4-3" target="WY7uik9soMdYelpWkTz4-9" edge="1">
          <mxGeometry width="50" height="50" relative="1" as="geometry">
            <mxPoint x="210" y="450" as="sourcePoint" />
            <mxPoint x="260" y="400" as="targetPoint" />
          </mxGeometry>
        </mxCell>
        <mxCell id="WY7uik9soMdYelpWkTz4-19" value="" style="endArrow=classic;html=1;rounded=0;entryX=0;entryY=0.5;entryDx=0;entryDy=0;exitX=0.5;exitY=0.5;exitDx=0;exitDy=0;exitPerimeter=0;" parent="WY7uik9soMdYelpWkTz4-2" source="WY7uik9soMdYelpWkTz4-3" target="WY7uik9soMdYelpWkTz4-11" edge="1">
          <mxGeometry width="50" height="50" relative="1" as="geometry">
            <mxPoint x="70" y="610" as="sourcePoint" />
            <mxPoint x="120" y="560" as="targetPoint" />
          </mxGeometry>
        </mxCell>
        <mxCell id="QPkIVWt9Uk_w3OFuO6b2-2" value="LIhat laporan donasi public" style="ellipse;whiteSpace=wrap;html=1;" parent="WY7uik9soMdYelpWkTz4-2" vertex="1">
          <mxGeometry x="316" y="355" width="120" height="80" as="geometry" />
        </mxCell>
        <mxCell id="QPkIVWt9Uk_w3OFuO6b2-3" value="" style="endArrow=classic;html=1;rounded=0;exitX=0.5;exitY=0.5;exitDx=0;exitDy=0;exitPerimeter=0;entryX=0;entryY=0.5;entryDx=0;entryDy=0;" parent="WY7uik9soMdYelpWkTz4-2" source="WY7uik9soMdYelpWkTz4-3" target="QPkIVWt9Uk_w3OFuO6b2-2" edge="1">
          <mxGeometry width="50" height="50" relative="1" as="geometry">
            <mxPoint x="180" y="440" as="sourcePoint" />
            <mxPoint x="230" y="390" as="targetPoint" />
          </mxGeometry>
        </mxCell>
      </root>
    </mxGraphModel>
  </diagram>
</mxfile>
